<svg
  class="fill-current text-white"
  width="100"
  height="100"
  viewBox="0 0 24 24"
  fill="white"
  xmlns="http://www.w3.org/2000/svg"
>
  <path
    d="M20 5H16.83L15.41 3.59C15.05 3.22 14.55 3 14 3H10C9.45 3 8.95 3.22 8.59 3.59L7.17 5H4C2.9 5 2 5.9 2 7V19C2 20.1 2.9 21 4 21H20C21.1 21 22 20.1 22 19V7C22 5.9 21.1 5 20 5ZM12 17C9.24 17 7 14.76 7 12C7 9.24 9.24 7 12 7C14.76 7 17 9.24 17 12C17 14.76 14.76 17 12 17ZM12 9C10.34 9 9 10.34 9 12C9 13.66 10.34 15 12 15C13.66 15 15 13.66 15 12C15 10.34 13.66 9 12 9Z"
    fill="white"
  />
</svg>