<svg width="44" height="44" viewBox="0 0 44 44" fill="none" xmlns="http://www.w3.org/2000/svg">
  <path fill-rule="evenodd" clip-rule="evenodd" d="M12.9459 6C10.1525 6 7.62642 6.69817 5.79293 8.40069C3.94205 10.1194 3 12.6717 3 15.9459V28.0541C3 31.3284 3.94205 33.8806 5.79293 35.5993C7.62642 37.3019 10.1525 38 12.9459 38H30.2432C33.0368 38 35.5629 37.3019 37.3962 35.5993C39.2472 33.8806 40.1892 31.3284 40.1892 28.0541V15.9459C40.1892 12.6717 39.2472 10.1194 37.3962 8.40069C35.5629 6.69817 33.0368 6 30.2432 6H12.9459ZM34.0979 15.7078C34.6648 15.2697 34.7693 14.455 34.3311 13.888C33.8931 13.3211 33.0784 13.2166 32.5114 13.6547L22.9165 21.0687C22.1379 21.6705 21.0511 21.6705 20.2724 21.0687L10.6776 13.6547C10.1106 13.2166 9.2959 13.3211 8.85782 13.888C8.41973 14.455 8.52419 15.2697 9.09114 15.7078L18.6861 23.1219C20.3992 24.4455 22.7898 24.4455 24.503 23.1219L34.0979 15.7078Z" fill="black" />
</svg>