<svg width="52" height="51" viewBox="0 0 52 51" fill="none" xmlns="http://www.w3.org/2000/svg">
  <path d="M26.0059 50.3819C39.8098 50.3819 51 39.256 51 25.5315C51 11.8071 39.8098 0.681152 26.0059 0.681152C12.202 0.681152 1.01172 11.8071 1.01172 25.5315C1.01172 39.256 12.202 50.3819 26.0059 50.3819Z" stroke="#B7B7B7" />
  <path d="M24.7062 32.8787L24.6858 26.6194H22.0078V23.9369H24.6858V22.1485C24.6858 19.7349 26.1778 18.5718 28.3272 18.5718C29.3568 18.5718 30.2417 18.6486 30.4995 18.6829V21.2052L29.0088 21.2059C27.8399 21.2059 27.6135 21.7623 27.6135 22.5788V23.9369H30.9343L30.0416 26.6194H27.6135V32.8787H24.7062Z" fill="#1E2532" />
</svg>