<svg width="20" height="21" viewBox="0 0 20 21" fill="none" xmlns="http://www.w3.org/2000/svg">
  <path d="M7.57396 2.52673C9.30254 1.9333 11.1822 1.94963 12.9002 2.57298C13.8437 2.92619 14.7082 3.46228 15.444 4.15048C15.194 4.41798 14.9302 4.66798 14.6752 4.92798C14.1902 5.41215 13.7056 5.89465 13.2215 6.37548C12.7388 5.9139 12.1549 5.57147 11.5165 5.37548C10.6994 5.12878 9.83024 5.11189 9.00424 5.32666C8.17824 5.54143 7.42735 5.97956 6.83396 6.59298C6.31601 7.1199 5.92375 7.757 5.68646 8.45673L3.09521 6.45048C4.02273 4.61118 5.62865 3.20426 7.57396 2.52673Z" fill="#E33629" />
  <path d="M2.40793 8.43745C2.5472 7.74719 2.77843 7.07873 3.09543 6.44995L5.68668 8.4612C5.34769 9.45946 5.34769 10.5417 5.68668 11.54C4.82334 12.2066 3.95959 12.8766 3.09543 13.55C2.30186 11.9703 2.05984 10.1706 2.40793 8.43745Z" fill="#F8BD00" />
  <path d="M10.1592 8.51904H17.5992C17.8537 9.91521 17.7849 11.3511 17.398 12.7165C17.042 13.9721 16.3506 15.107 15.398 15.999C14.5617 15.3465 13.7217 14.699 12.8855 14.0465C13.3001 13.7669 13.654 13.4064 13.9259 12.9867C14.1978 12.567 14.3822 12.0967 14.468 11.604H10.1592C10.158 10.5765 10.1592 9.54779 10.1592 8.51904Z" fill="#587DBD" />
  <path d="M3.09424 13.5498C3.9584 12.8831 4.82215 12.2131 5.68549 11.5398C6.0195 12.52 6.65474 13.3697 7.50049 13.9673C8.028 14.3401 8.6274 14.599 9.26049 14.7273C9.88431 14.8433 10.5242 14.8433 11.148 14.7273C11.77 14.622 12.3631 14.3878 12.8892 14.0398C13.7255 14.6923 14.5655 15.3398 15.4017 15.9923C14.4866 16.8245 13.371 17.4046 12.1642 17.676C10.8322 17.9892 9.44414 17.9742 8.11924 17.6323C7.07137 17.3525 6.09258 16.8593 5.24424 16.1835C4.34631 15.4707 3.61293 14.5723 3.09424 13.5498Z" fill="#319F43" />
</svg>