<svg width="52" height="52" viewBox="0 0 52 52" fill="none" xmlns="http://www.w3.org/2000/svg">
<path d="M26.0059 51.0826C39.8098 51.0826 51 39.9567 51 26.2322C51 12.5077 39.8098 1.38184 26.0059 1.38184C12.202 1.38184 1.01172 12.5077 1.01172 26.2322C1.01172 39.9567 12.202 51.0826 26.0059 51.0826Z" stroke="#B7B7B7"/>
<g clip-path="url(#clip0_154_594)">
<path d="M29.7552 18.7803H22.2569C20.1864 18.7803 18.5078 20.4492 18.5078 22.5078V29.9629C18.5078 32.0216 20.1864 33.6905 22.2569 33.6905H29.7552C31.8258 33.6905 33.5043 32.0216 33.5043 29.9629V22.5078C33.5043 20.4492 31.8258 18.7803 29.7552 18.7803Z" stroke="#1E2532" stroke-width="2" stroke-linecap="round" stroke-linejoin="round"/>
<path d="M29.0052 25.7663C29.0978 26.3868 28.9912 27.0204 28.7006 27.5772C28.4101 28.1339 27.9503 28.5854 27.3868 28.8674C26.8233 29.1494 26.1847 29.2476 25.5619 29.1479C24.939 29.0483 24.3636 28.7559 23.9175 28.3124C23.4715 27.8688 23.1774 27.2968 23.0772 26.6775C22.9769 26.0582 23.0757 25.4233 23.3593 24.863C23.6429 24.3028 24.097 23.8457 24.657 23.5568C25.2169 23.2679 25.8543 23.1619 26.4783 23.2539C27.1149 23.3478 27.7042 23.6427 28.1592 24.0951C28.6142 24.5475 28.9108 25.1334 29.0052 25.7663Z" stroke="#1E2532" stroke-width="2" stroke-linecap="round" stroke-linejoin="round"/>
<ellipse cx="30.1289" cy="22.1329" rx="1.125" ry="1.11827" fill="white"/>
</g>
<defs>
<clipPath id="clip0_154_594">
<rect width="17.9958" height="17.8923" fill="white" transform="translate(17.0078 17.2881)"/>
</clipPath>
</defs>
</svg>
