<svg width="60" height="53" viewBox="0 0 60 53" fill="none" xmlns="http://www.w3.org/2000/svg">
  <path d="M59.7009 2.12935C59.5957 1.69302 59.3263 1.31409 58.9489 1.07139C58.5715 0.828687 58.115 0.740901 57.6745 0.826291C57.234 0.911682 56.8433 1.16367 56.5838 1.52985C56.3242 1.89602 56.2158 2.34818 56.281 2.79226C57.8176 10.7956 51.7285 15.7155 47.2742 18.1764L45.9937 15.6178C45.5628 14.7595 44.4398 13.9341 43.4948 13.7844L34.3983 12.4965C33.2829 12.3678 32.1534 12.5431 31.1293 13.0037L1.59735 27.8807C0.910211 28.2283 0.388721 28.8341 0.147066 29.5654C-0.0945884 30.2968 -0.0367175 31.0941 0.308008 31.7828L9.93611 50.9844C10.659 52.4156 12.1391 52.4716 13.5719 51.7544L43.1042 36.8746C43.9537 36.4422 45.0151 35.3969 45.46 34.5441L49.6163 25.9885C50.0608 25.1386 50.0693 23.7444 49.6385 22.8861L48.8585 21.3271C54.8451 17.9858 61.4996 11.5082 59.7009 2.12935ZM43.3376 27.003C42.7936 27.2765 42.2011 27.44 41.5939 27.4844C40.9868 27.5287 40.3769 27.453 39.799 27.2614C39.2211 27.0699 38.6867 26.7663 38.2262 26.368C37.7657 25.9698 37.3881 25.4846 37.1151 24.9403C36.5623 23.8389 36.4689 22.563 36.8556 21.3926C37.2422 20.2223 38.0772 19.2532 39.1774 18.698C40.0396 18.2641 41.0159 18.1104 41.9696 18.2586C42.9234 18.4068 43.807 18.8494 44.4969 19.5246C43.653 19.8791 43.0797 20.0751 42.9737 20.1033C42.5956 20.2202 42.2684 20.4622 42.0457 20.7895C41.8231 21.1168 41.7181 21.5101 41.7481 21.9049C41.7781 22.2996 41.9413 22.6725 42.2108 22.9623C42.4804 23.2521 42.8404 23.4418 43.2318 23.5002C43.477 23.536 43.7363 23.5156 43.9892 23.4389C44.5808 23.2573 45.2193 23.033 45.8918 22.7554C45.9091 23.6321 45.6786 24.496 45.2267 25.2474C44.7748 25.9989 44.12 26.6074 43.3376 27.003Z" fill="black" />
  <path d="M11.8256 40.2275L10.4307 35.3719L12.2056 34.4695C12.7992 34.1676 13.2972 34.0856 13.6994 34.2236C14.0768 34.3534 14.365 34.6141 14.5641 35.0058C14.8262 35.5212 14.874 36.0131 14.7075 36.4817C14.5411 36.9503 14.2064 37.3125 13.7034 37.5683L12.6706 38.0934L13.0995 39.5798L11.8256 40.2275ZM12.0383 35.8854L12.3592 37.0064L13.058 36.6511C13.2271 36.5652 13.341 36.4423 13.3999 36.2827C13.4609 36.1168 13.4442 35.9411 13.3498 35.7556C13.2052 35.4711 12.9762 35.4085 12.6629 35.5678L12.0383 35.8854Z" fill="white" />
  <path d="M17.201 35.5485L16.6445 35.8315L17.1337 37.5285L15.8598 38.1763L14.4649 33.3206L16.3387 32.3679C16.7964 32.1352 17.2229 32.0454 17.6183 32.0986C18.0179 32.1497 18.3162 32.369 18.5132 32.7565C18.6768 33.0781 18.7325 33.3715 18.6805 33.6366C18.6327 33.8996 18.4845 34.1592 18.2359 34.4153L18.2453 34.4338C18.6506 34.4042 18.9706 34.6202 19.2053 35.082C19.2221 35.115 19.2756 35.2253 19.3658 35.4129C19.4539 35.5964 19.5231 35.7325 19.5733 35.8211C19.653 35.9777 19.7332 36.0641 19.814 36.0801L19.8486 36.1481L18.5623 36.8021C18.5041 36.7694 18.4394 36.683 18.3682 36.5428C18.3409 36.4892 18.2895 36.383 18.214 36.2243C18.1405 36.0593 18.0828 35.9356 18.0408 35.8531C17.9423 35.6594 17.8277 35.536 17.697 35.4831C17.5684 35.424 17.4031 35.4458 17.201 35.5485ZM16.0566 33.7722L16.3616 34.8313L17.0418 34.4854C17.215 34.3973 17.3342 34.2797 17.3994 34.1324C17.4646 33.9851 17.4521 33.8228 17.3619 33.6455C17.2173 33.361 16.9801 33.3026 16.6502 33.4703L16.0566 33.7722Z" fill="white" />
  <path d="M20.0631 36.039L18.6682 31.1834L19.9422 30.5356L21.337 35.3913L20.0631 36.039Z" fill="white" />
  <path d="M24.1798 34.0781C23.5532 34.3967 22.9683 34.4814 22.4254 34.332C21.8866 34.1805 21.4557 33.7873 21.1329 33.1524C20.7598 32.4185 20.6659 31.6828 20.8512 30.9451C21.0385 30.2013 21.4867 29.6491 22.1959 29.2885C22.7483 29.0076 23.2327 28.904 23.6489 28.9777C24.1998 29.0712 24.6458 29.423 24.9871 30.0329L23.707 30.6838C23.6002 30.4839 23.4627 30.3514 23.2948 30.2864C23.1268 30.2213 22.9335 30.2443 22.715 30.3554C22.3605 30.5357 22.1701 30.8297 22.1439 31.2374C22.1156 31.6409 22.2062 32.0488 22.4159 32.4611C22.5563 32.7373 22.7314 32.9337 22.9411 33.0502C23.1549 33.1646 23.3917 33.1557 23.6514 33.0236C23.8617 32.9167 24.0086 32.7668 24.0921 32.5739C24.1797 32.3789 24.1906 32.1554 24.1248 31.9035L25.4235 31.2431C25.6077 31.8707 25.5794 32.4325 25.3387 32.9285C25.0979 33.4245 24.7117 33.8077 24.1798 34.0781Z" fill="white" />
  <path d="M26.2231 32.9068L24.8283 28.0512L28.1677 26.3532L28.4919 27.4959L26.4264 28.5462L26.6295 29.2212L28.3611 28.3407L28.663 29.3936L26.9252 30.2772L27.1508 31.0576L29.3029 29.9633L29.6492 31.1648L26.2231 32.9068Z" fill="white" />
  <path d="M30.0762 30.9477L28.6813 26.0921L30.4376 25.199C31.023 24.9013 31.5769 24.8324 32.0993 24.9923C32.6257 25.1501 33.0388 25.5238 33.3386 26.1133C33.7243 26.8719 33.8181 27.5922 33.62 28.274C33.4219 28.9559 32.9477 29.4876 32.1973 29.8691L30.0762 30.9477ZM31.0165 29.1387L31.6473 28.8179C31.9977 28.6397 32.21 28.3735 32.2841 28.0193C32.3603 27.6589 32.2946 27.2746 32.0871 26.8664C31.7705 26.2439 31.3257 26.0783 30.7527 26.3697L30.2889 26.6056L31.0165 29.1387Z" fill="white" />
</svg>