<svg width="639" height="478" viewBox="0 0 639 478" fill="none" xmlns="http://www.w3.org/2000/svg">
<g opacity="0.2">
<path d="M147.841 119.703C140.027 116.027 127.106 122.004 122.986 130.749C115.121 147.444 140.558 171.623 149.809 169.028C160.146 166.128 162.186 126.452 147.841 119.703Z" stroke="black" stroke-width="20" stroke-miterlimit="10" stroke-linecap="round" stroke-dasharray="20 20"/>
<path d="M108.762 157.517C105.973 155.904 76.4359 138.811 59.7199 152.339C47.9828 161.837 47.8705 182.14 56.6907 193.551C74.1599 216.151 128.33 206.019 133.951 189.847C137.736 178.957 119.965 164.001 108.762 157.517Z" stroke="black" stroke-width="20" stroke-miterlimit="10" stroke-linecap="round" stroke-dasharray="20 20"/>
<path d="M146.768 436.589C218.664 418.737 300.357 400.563 427.211 403.658C498.155 405.389 514.232 383.365 567.999 355.981C615.923 331.575 639.461 283.042 625.005 255.537C610.41 227.768 565.958 238.824 529.552 197.488C512.973 178.662 515.89 165.467 506.319 144.59C476.007 78.4856 362.398 26.8171 306.376 54.1615C232.363 90.2858 295.637 246.374 212.904 289.012C160.572 315.985 121.018 264.206 69.3454 303.733C43.7424 323.318 12.4289 350.79 10.0072 380.62C10.0072 380.62 6.61647 453.55 146.768 436.589Z" stroke="black" stroke-width="20" stroke-miterlimit="10" stroke-linecap="round" stroke-dasharray="50 50 50 50 50 50"/>
<path d="M543.989 355.363C543.989 355.363 530.966 372.637 517.94 396.338C506.197 417.711 497.266 446.51 495.294 470.554C489.763 470.293 483.688 470.047 477.119 469.814C438.219 468.433 382.06 467.568 319.615 467.568C248.624 467.568 185.758 468.687 147.139 470.409C145.809 470.468 144.508 470.527 143.236 470.588C95.0213 410.804 -2.06862 306.649 87.2805 263.801C87.2805 263.801 93.8261 261.807 103.639 257.523C134.699 243.961 198.524 207.47 191.425 138.666C191.425 138.666 189.006 125.826 189.006 107.961C189.006 66.188 202.226 -3.05577 290.481 0.104518C343.926 2.02105 393.147 29.2284 422.906 72.7771C452.094 115.491 498.765 168.044 536.773 138.041C545.546 131.112 557.147 128.546 567.977 131.592C595.335 139.279 626.414 179.075 543.989 355.363Z" fill="#848484"/>
</g>
<path opacity="0.15" d="M614.958 472.881C614.958 475.708 482.727 478 319.613 478C227.577 478 145.375 477.271 91.2089 476.127C78.7328 475.863 67.7458 475.577 58.4685 475.274C52.3577 475.075 46.9887 474.866 42.4245 474.651C30.6813 474.101 24.2676 473.504 24.2676 472.881C24.2676 472.088 34.6775 471.336 53.2572 470.667C60.8662 470.392 69.8444 470.131 80.0392 469.888C133.682 468.6 221.004 467.762 319.613 467.762C406.351 467.762 484.356 468.41 538.389 469.442C585.966 470.351 614.958 471.558 614.958 472.881Z" fill="#040C2B"/>
<path d="M68.4933 341.806L40.2752 342.381C37.1411 342.445 34.5488 339.955 34.485 336.82L33.9836 312.184C33.9198 309.049 36.4087 306.455 39.5428 306.392L67.7609 305.817C70.8949 305.753 73.4873 308.243 73.551 311.378L74.0524 336.014C74.1163 339.149 71.6273 341.743 68.4933 341.806Z" fill="#C2C2C2"/>
<path d="M66.182 329.949L66.0822 331.791L66.0801 331.828L66.0893 331.831L66.934 332.12C66.7824 332.672 66.5524 333.19 66.2577 333.657C66.2525 333.665 66.2471 333.674 66.2418 333.682L65.9165 333.523L65.3809 333.26L64.2753 334.738L64.6677 335.294C64.2069 335.601 63.6986 335.833 63.1579 335.978L62.9818 335.111L61.2062 335.075L60.9381 336.057C60.3423 335.943 59.7824 335.723 59.2764 335.416L59.7921 334.547L58.5816 333.176L57.5945 333.772L57.5859 333.777C57.5624 333.741 57.5394 333.705 57.5166 333.669C57.1341 333.058 56.8634 332.362 56.7344 331.615L57.6035 331.421L57.7021 329.542L56.8047 329.262C56.963 328.588 57.2366 327.963 57.6018 327.412L58.5231 327.962L59.7664 326.613L59.2739 325.783C59.9091 325.391 60.6275 325.136 61.3924 325.056L61.5885 326.173L63.3623 326.261L63.6416 325.336C63.8018 325.269 64.7703 325.878 65.2406 326.289L64.6693 327.125L65.8573 328.571L66.6219 328.149C66.8522 328.652 67.0124 329.198 67.0896 329.772L66.182 329.949ZM61.9739 327.063C61.3125 327.05 60.676 327.24 60.1287 327.608C59.941 327.734 59.7639 327.881 59.5997 328.048C58.9569 328.701 58.5915 329.578 58.5706 330.52C58.5497 331.461 58.8761 332.353 59.4895 333.031C60.1029 333.709 60.93 334.093 61.8182 334.111C62.7066 334.128 63.5499 333.779 64.1927 333.126C64.8356 332.473 65.2009 331.595 65.2218 330.654C65.2428 329.713 64.9164 328.821 64.303 328.143C64.2405 328.073 64.1758 328.007 64.109 327.945C63.5201 327.39 62.7717 327.08 61.9739 327.063Z" fill="black"/>
<path d="M64.6476 317.875L64.5354 320.037L64.5332 320.08L64.5432 320.083L65.4663 320.421C65.2996 321.07 65.0472 321.677 64.7242 322.225C64.7184 322.235 64.7126 322.245 64.7067 322.255L64.3514 322.069L63.7662 321.762L62.5545 323.497L62.9828 324.149C62.4783 324.51 61.922 324.783 61.3305 324.953L61.1395 323.937L59.198 323.897L58.9031 325.05C58.2518 324.918 57.6401 324.66 57.0874 324.301L57.6528 323.281L56.3315 321.674L55.2511 322.374L55.2417 322.381C55.2161 322.339 55.191 322.297 55.1662 322.254C54.749 321.538 54.4542 320.722 54.3145 319.845L55.2651 319.617L55.3763 317.412L54.3955 317.085C54.5697 316.294 54.8701 315.561 55.2705 314.913L56.277 315.558L57.6389 313.972L57.1018 313C57.797 312.539 58.5831 312.239 59.4195 312.143L59.632 313.453L61.5715 313.554L61.8785 312.467C62.0538 312.389 63.1118 313.102 63.6253 313.583L62.9992 314.565L64.2957 316.26L65.1325 315.763C65.3834 316.353 65.5576 316.993 65.641 317.666L64.6476 317.875ZM60.0513 314.497C59.3281 314.482 58.6317 314.707 58.0325 315.139C57.8271 315.287 57.6331 315.46 57.4533 315.656C56.7492 316.423 56.3482 317.453 56.3238 318.557C56.2993 319.662 56.6546 320.707 57.3242 321.502C57.9937 322.297 58.8975 322.745 59.8686 322.765C60.84 322.785 61.7627 322.373 62.4668 321.606C63.171 320.839 63.5721 319.808 63.5964 318.704C63.6208 317.6 63.2655 316.554 62.5959 315.759C62.5277 315.678 62.4571 315.601 62.3842 315.527C61.7415 314.878 60.9237 314.514 60.0513 314.497Z" fill="black"/>
<path d="M55.1576 325.77L55.0032 328.747L55.0001 328.806L55.0139 328.811L56.2832 329.276C56.0539 330.169 55.7068 331.005 55.2626 331.76C55.2547 331.774 55.2466 331.788 55.2386 331.801L54.75 331.545L53.9454 331.122L52.2794 333.511L52.8681 334.409C52.1744 334.906 51.4097 335.283 50.5962 335.517L50.3336 334.117L47.6639 334.063L47.2584 335.65C46.3628 335.468 45.5217 335.114 44.7618 334.619L45.5393 333.214L43.7227 331.001L42.237 331.966L42.224 331.975C42.1888 331.917 42.1542 331.859 42.1203 331.8C41.5467 330.814 41.1414 329.691 40.9492 328.484L42.2565 328.169L42.4094 325.133L41.0608 324.682C41.3004 323.593 41.7134 322.583 42.264 321.691L43.6478 322.579L45.5205 320.396L44.782 319.057C45.738 318.422 46.8189 318.009 47.9689 317.877L48.2611 319.681L50.9279 319.82L51.3502 318.324C51.5914 318.216 53.046 319.198 53.752 319.86L52.891 321.213L54.6736 323.546L55.8242 322.863C56.1692 323.675 56.4086 324.556 56.5232 325.483L55.1576 325.77ZM48.8377 321.118C47.8432 321.098 46.8857 321.407 46.0618 322.003C45.7793 322.206 45.5126 322.444 45.2654 322.714C44.2973 323.77 43.7457 325.189 43.7121 326.71C43.6785 328.23 44.1669 329.67 45.0875 330.765C46.0081 331.859 47.2508 332.477 48.5862 332.504C49.9217 332.531 51.1906 331.964 52.1586 330.907C53.1267 329.851 53.6784 328.432 53.7119 326.912C53.7455 325.391 53.2571 323.951 52.3365 322.857C52.2427 322.745 52.1455 322.639 52.0452 322.537C51.1616 321.643 50.0371 321.143 48.8377 321.118Z" fill="black"/>
<path d="M524.386 165.115H496.162C493.027 165.115 490.486 162.573 490.486 159.437V134.796C490.486 131.66 493.028 129.118 496.162 129.118H524.386C527.521 129.118 530.062 131.66 530.062 134.796V159.437C530.062 162.573 527.521 165.115 524.386 165.115Z" fill="#C2C2C2"/>
<path d="M524.69 155.64L510.917 146.687C511.33 145.434 511.463 144.057 511.247 142.646C510.54 138.018 506.37 134.79 501.933 135.436C497.496 136.083 494.472 140.359 495.179 144.987C495.886 149.615 500.056 152.843 504.493 152.196C506.362 151.924 507.978 151.006 509.172 149.691L522.851 158.58C523.641 159.124 524.694 158.906 525.202 158.094C525.709 157.283 525.48 156.184 524.69 155.64ZM504.26 150.673C500.636 151.201 497.217 148.555 496.639 144.774C496.062 140.994 498.541 137.488 502.166 136.96C505.79 136.432 509.209 139.078 509.786 142.859C510.364 146.639 507.885 150.145 504.26 150.673Z" fill="black"/>
<path d="M497.878 141.167C497.793 141.72 497.745 142.272 497.726 142.824C497.711 143.375 497.73 143.926 497.796 144.469L497.85 144.877L497.933 145.279C497.954 145.414 497.998 145.544 498.033 145.676C498.073 145.807 498.1 145.943 498.152 146.069L498.292 146.456C498.343 146.584 498.406 146.706 498.463 146.832L498.548 147.021L498.651 147.201C498.721 147.321 498.788 147.443 498.856 147.567C498.766 147.46 498.677 147.352 498.589 147.242C498.544 147.187 498.5 147.132 498.458 147.075L498.347 146.896C498.275 146.775 498.197 146.655 498.131 146.53L497.955 146.144C497.742 145.619 497.59 145.066 497.528 144.502C497.465 143.939 497.458 143.371 497.517 142.81C497.576 142.25 497.684 141.694 497.878 141.167Z" fill="white"/>
<path d="M425.81 87.3818H397.586C394.451 87.3818 391.91 84.8398 391.91 81.7038V57.0628C391.91 53.927 394.451 51.3848 397.586 51.3848H425.81C428.945 51.3848 431.486 53.927 431.486 57.0628V81.7038C431.486 84.8396 428.945 87.3818 425.81 87.3818Z" fill="#C2C2C2"/>
<path d="M413.867 58.5337H409.533V80.2323H413.867V58.5337Z" fill="black"/>
<path d="M400.854 67.2154V71.5508H422.544V67.2154H400.854Z" fill="black"/>
<path d="M603.445 253.338H575.221C572.086 253.338 569.545 250.796 569.545 247.66V223.019C569.545 219.883 572.086 217.341 575.221 217.341H603.445C606.579 217.341 609.121 219.883 609.121 223.019V247.66C609.121 250.796 606.579 253.338 603.445 253.338Z" fill="#C2C2C2"/>
<path d="M599.614 247.35H579.049C577.945 247.35 577.051 246.455 577.051 245.351V226.479C577.051 225.376 577.945 224.481 579.049 224.481H599.614C600.717 224.481 601.612 225.376 601.612 226.479V245.351C601.612 246.455 600.717 247.35 599.614 247.35Z" fill="#848484"/>
<path d="M579.075 225.632C578.778 225.632 578.537 225.391 578.537 225.094V223.867C578.537 223.57 578.778 223.329 579.075 223.329C579.372 223.329 579.613 223.57 579.613 223.867V225.094C579.612 225.391 579.372 225.632 579.075 225.632Z" fill="black"/>
<path d="M581.128 225.632C580.831 225.632 580.59 225.391 580.59 225.094V223.867C580.59 223.57 580.831 223.329 581.128 223.329C581.425 223.329 581.665 223.57 581.665 223.867V225.094C581.665 225.391 581.424 225.632 581.128 225.632Z" fill="black"/>
<path d="M583.178 225.632C582.881 225.632 582.641 225.391 582.641 225.094V223.867C582.641 223.57 582.881 223.329 583.178 223.329C583.475 223.329 583.716 223.57 583.716 223.867V225.094C583.716 225.391 583.475 225.632 583.178 225.632Z" fill="black"/>
<path d="M585.231 225.632C584.934 225.632 584.693 225.391 584.693 225.094V223.867C584.693 223.57 584.934 223.329 585.231 223.329C585.528 223.329 585.769 223.57 585.769 223.867V225.094C585.769 225.391 585.528 225.632 585.231 225.632Z" fill="black"/>
<path d="M587.282 225.632C586.985 225.632 586.744 225.391 586.744 225.094V223.867C586.744 223.57 586.985 223.329 587.282 223.329C587.579 223.329 587.82 223.57 587.82 223.867V225.094C587.82 225.391 587.579 225.632 587.282 225.632Z" fill="black"/>
<path d="M589.333 225.632C589.036 225.632 588.795 225.391 588.795 225.094V223.867C588.795 223.57 589.036 223.329 589.333 223.329C589.63 223.329 589.87 223.57 589.87 223.867V225.094C589.87 225.391 589.63 225.632 589.333 225.632Z" fill="black"/>
<path d="M591.383 225.632C591.086 225.632 590.846 225.391 590.846 225.094V223.867C590.846 223.57 591.086 223.329 591.383 223.329C591.68 223.329 591.921 223.57 591.921 223.867V225.094C591.921 225.391 591.68 225.632 591.383 225.632Z" fill="black"/>
<path d="M593.438 225.632C593.141 225.632 592.9 225.391 592.9 225.094V223.867C592.9 223.57 593.141 223.329 593.438 223.329C593.735 223.329 593.976 223.57 593.976 223.867V225.094C593.976 225.391 593.735 225.632 593.438 225.632Z" fill="black"/>
<path d="M595.489 225.632C595.192 225.632 594.951 225.391 594.951 225.094V223.867C594.951 223.57 595.192 223.329 595.489 223.329C595.786 223.329 596.027 223.57 596.027 223.867V225.094C596.026 225.391 595.786 225.632 595.489 225.632Z" fill="black"/>
<path d="M597.54 225.632C597.243 225.632 597.002 225.391 597.002 225.094V223.867C597.002 223.57 597.243 223.329 597.54 223.329C597.837 223.329 598.077 223.57 598.077 223.867V225.094C598.077 225.391 597.836 225.632 597.54 225.632Z" fill="black"/>
<path d="M599.592 225.632C599.295 225.632 599.055 225.391 599.055 225.094V223.867C599.055 223.57 599.295 223.329 599.592 223.329C599.889 223.329 600.13 223.57 600.13 223.867V225.094C600.13 225.391 599.889 225.632 599.592 225.632Z" fill="black"/>
<path d="M601.61 229.079H577.027V245.521H601.61V229.079Z" fill="black"/>
<path d="M582.282 231.081H579.338V234.026H582.282V231.081Z" fill="#E3E9F7"/>
<path d="M582.282 235.827H579.338V238.772H582.282V235.827Z" fill="#E3E9F7"/>
<path d="M582.282 240.573H579.338V243.518H582.282V240.573Z" fill="#E3E9F7"/>
<path d="M586.534 231.081H583.59V234.026H586.534V231.081Z" fill="#E3E9F7"/>
<path d="M586.534 235.827H583.59V238.772H586.534V235.827Z" fill="#E3E9F7"/>
<path d="M586.534 240.573H583.59V243.518H586.534V240.573Z" fill="#E3E9F7"/>
<path d="M590.79 231.081H587.846V234.026H590.79V231.081Z" fill="#E3E9F7"/>
<path d="M590.79 235.827H587.846V238.772H590.79V235.827Z" fill="#E3E9F7"/>
<path d="M590.79 240.573H587.846V243.518H590.79V240.573Z" fill="#E3E9F7"/>
<path d="M595.044 231.081H592.1V234.026H595.044V231.081Z" fill="#E3E9F7"/>
<path d="M595.044 235.827H592.1V238.772H595.044V235.827Z" fill="#E3E9F7"/>
<path d="M595.044 240.573H592.1V243.518H595.044V240.573Z" fill="#E3E9F7"/>
<path d="M599.296 231.081H596.352V234.026H599.296V231.081Z" fill="#E3E9F7"/>
<path d="M599.296 235.827H596.352V238.772H599.296V235.827Z" fill="#E3E9F7"/>
<path d="M599.296 240.573H596.352V243.518H599.296V240.573Z" fill="#E3E9F7"/>
<path d="M178.822 288.676L188.442 301.244L182.33 308.49L172.145 298.3L178.822 288.676Z" fill="#DE995F"/>
<path d="M167.749 275.49C169.206 274.166 170.206 273.105 170.015 270.955C169.913 269.808 167.235 265.908 166.729 265.087C165.778 263.544 164.446 260.56 165.02 256.535C165.165 255.527 165.076 254.507 165.045 253.49C164.789 245.086 161.356 230.151 152.642 231.219C152.642 231.219 147.759 229.229 143.723 234.55C141.135 254.031 141.55 260.218 142.607 261.164C143.066 260.924 149.85 252.332 150.152 238.338C150.152 238.338 155.791 235.654 158.451 243.048C159.593 246.221 157.035 250.825 155.961 254.031C154.648 257.952 154.26 265.639 155.201 270.968C155.391 272.045 155.44 273.146 155.361 274.241C155.361 274.241 156.982 285.268 167.749 275.49Z" fill="black"/>
<path d="M113.345 406.73C113.345 406.73 106.497 418.96 102.917 432.103C102.917 432.103 100.193 435.845 98.7928 435.48L96.7695 451.908L103.929 455.011C103.929 455.011 107.353 436.757 112.022 428.726L121.515 411.385L113.345 406.73Z" fill="#DE995F"/>
<path d="M101.126 447.892C101.126 447.892 106.418 448.075 105.795 452.821C105.795 452.821 103.149 458.479 104.706 463.225C104.706 463.225 106.674 470.558 101.623 471.052C99.87 471.223 98.1417 470.466 96.858 469.056C95.008 467.023 92.4182 463.143 92.7217 457.567C92.7217 457.567 94.5893 444.424 94.5893 441.503C94.5893 441.503 94.278 434.749 98.1689 434.019C98.1689 434.019 102.527 432.559 102.838 432.011C102.838 432.011 96.9238 441.868 101.126 447.892Z" fill="#040C2B"/>
<path d="M147.505 411.019C147.505 411.019 146.415 421.059 146.727 436.027C146.727 436.027 145.948 446.797 143.77 452.456L154.197 459.027L157.932 455.011C157.932 455.011 152.329 452.821 153.886 441.868L160.578 410.107L147.505 411.019Z" fill="#DE995F"/>
<path d="M154.04 452.273C154.04 452.273 148.861 458.601 145.225 447.132C145.225 447.132 139.473 452.255 142.013 458.584C142.356 459.44 142.937 460.134 143.652 460.572C144.914 461.345 147.243 462.617 149.68 463.159C149.897 463.208 150.111 463.268 150.32 463.351C151.541 463.829 155.908 465.629 158.511 467.84C158.786 468.074 159.081 468.269 159.394 468.422C161.473 469.437 169.052 472.765 170.828 468.303C171.16 467.468 171.195 466.516 170.994 465.626C170.575 463.762 169.097 460.25 163.891 458.169C162.751 457.713 161.722 456.944 160.914 455.896C158.945 453.343 155.173 449.084 154.04 452.273Z" fill="#040C2B"/>
<path d="M138.322 306.242C138.322 306.242 128.829 324.131 125.716 349.869C125.716 349.869 120.736 381.63 109.219 412.844C109.219 412.844 147.349 442.963 171.317 412.844L169.138 359.543C169.138 359.543 167.426 318.472 158.088 306.242L138.322 306.242Z" fill="#040C2B"/>
<path d="M211.787 311.633C211.231 311.437 210.633 311.383 210.031 311.492C208.973 311.68 190.619 310.412 182.33 308.49L187.763 300.338C187.763 300.338 211.821 304.74 212.087 304.622C221.815 300.322 224.163 307.346 224.163 307.346C224.839 313.423 213.878 312.367 211.787 311.633Z" fill="#DE995F"/>
<path d="M162.412 290.601C162.412 290.601 166.463 297.484 167.958 298.979C168.976 299.998 174.862 307.697 176.899 306.339C182.019 302.924 187.311 297.734 187.311 297.734C169.995 270.9 164.531 269.632 164.531 269.632L162.412 290.601Z" fill="white"/>
<path opacity="0.1" d="M154.488 284.6C154.488 284.6 166.146 298.413 170.673 302.036C171.668 289.719 166.938 274.071 166.938 274.071L162.184 278.6L154.488 284.6Z" fill="black"/>
<path d="M141.121 269.369L148.592 280.869L159.019 272.472C159.019 272.472 156.385 266.339 155.957 264.107C155.335 260.863 154.817 250.568 154.817 250.568L145.323 247.464C145.323 247.464 144.176 254.642 142.556 262.666C142.109 264.88 141.625 267.159 141.121 269.369Z" fill="#D18B4F"/>
<path opacity="0.15" d="M142.559 262.666C148.228 266.764 153.265 266.01 157.31 263.544L154.82 250.568L145.326 247.464C145.326 247.464 144.179 254.642 142.559 262.666Z" fill="black"/>
<path d="M165.373 308.04C164.924 309.034 164.502 309.808 164.163 310.372C163.972 310.69 163.745 310.975 163.489 311.218C163.156 311.535 162.775 311.782 162.363 311.94C147.558 317.671 139.098 313.494 135.158 310.169C133.257 308.562 132.409 307.155 132.409 307.155L131.803 290.957L131.236 275.822L131.115 272.599L131.008 269.735C132.876 264.989 142.059 266.631 142.059 266.631C152.452 275.656 156.64 266.372 156.64 266.372L164.799 269.662C165.755 270.047 166.44 270.903 166.606 271.919L167.893 279.774C170.038 294.392 167.424 303.504 165.373 308.04Z" fill="white"/>
<path opacity="0.1" d="M158.845 313.798C156.091 313.906 151.741 313.719 145.229 313.1C143.83 312.968 137.891 305.451 137.891 305.451L134.482 305.14C133.308 305.033 132.33 304.196 132.041 303.051L130.385 289.207L131.99 274.147C135.605 273.762 139.641 275.808 143.037 283.715C143.037 283.715 148.721 298.678 150.329 306.533C151.011 306.742 157.883 308.98 161.164 310.923C163.552 312.337 164.038 313.594 158.845 313.798Z" fill="black"/>
<path d="M145.74 252.043C145.937 253.636 146.039 255.244 146.005 256.853C145.633 274.818 133.811 268.457 133.811 268.457C133.111 268.183 132.314 268.519 131.512 269.179C130.005 270.417 128.481 272.795 127.551 274.399C126.998 275.357 126.655 276.04 126.655 276.04C125.577 272.181 128.618 268.53 130.58 266.658C131.292 265.978 132.1 265.458 132.949 265.043C138.105 262.523 138.946 249.838 138.946 249.838C139.794 241.959 141.646 237.287 143.723 234.55C145.978 236.482 147.522 237.832 148.579 238.777C144.774 240.767 145.331 248.738 145.74 252.043Z" fill="black"/>
<path d="M147.038 237.79C147.038 237.79 136.789 244.391 146.905 258.446C146.905 258.446 152.935 267.128 158.181 258.3C159.374 256.293 160.092 254.041 160.344 251.719C161.018 245.491 161.053 231.787 147.038 237.79Z" fill="#DE995F"/>
<path opacity="0.1" d="M188.837 312.314C188.446 312.953 188.072 313.334 188.072 313.334C186.627 314.342 184.664 314.523 182.652 314.3C178.263 313.81 173.638 311.388 173.638 311.388C171.001 311.764 168.29 312.015 165.628 312.171L164.324 306.587C164.161 305.885 164.149 305.187 164.261 304.532L169.601 304.416C171.311 303.733 172.943 303.298 174.467 303.042C181.479 301.867 186.246 304.511 186.246 304.511C186.316 304.554 186.384 304.597 186.451 304.641C190.889 307.506 189.812 310.715 188.837 312.314Z" fill="black"/>
<path d="M169.042 304.805C178.621 300.981 173.079 311.777 173.079 311.777C163.356 313.165 152.605 312.828 147.14 312.511C144.937 312.383 142.81 310.933 141.647 308.767L135.713 300.698L145.575 297.829L149.589 304.711L156.981 305.064L169.042 304.805Z" fill="#DE995F"/>
<path d="M148.693 303.005C144.173 301.194 142.697 302.199 138.113 303.909C135.101 305.032 133.125 303.759 133.125 303.759L129.608 287.5C128.907 283.296 128.473 279.672 128.358 276.791C128.234 273.654 129.448 270.592 131.75 268.46C132.155 268.085 132.57 267.756 132.987 267.504C139.945 273.428 148.693 303.005 148.693 303.005Z" fill="white"/>
<path d="M152.644 231.219C152.644 231.219 147.76 229.229 143.724 234.55C137.515 249.162 141.551 260.218 142.608 261.164C143.044 260.936 144.492 242.42 152.41 239.422C153.234 239.111 154.151 239.18 154.916 239.617C157.029 240.827 161.109 244.564 160.603 255.276C160.444 258.645 167.733 238.746 152.644 231.219Z" fill="black"/>
<path d="M143.286 250.861C143.483 252.453 144.678 255.479 144.644 257.088C144.272 275.053 133.811 268.457 133.811 268.457C133.111 268.183 132.314 268.519 131.512 269.179C130.005 270.417 128.481 272.795 127.551 274.399C126.998 275.357 126.655 276.04 126.655 276.04C125.577 272.181 128.618 268.53 130.58 266.658C131.292 265.978 132.1 265.458 132.949 265.043C138.105 262.523 138.946 249.838 138.946 249.838C139.794 241.959 141.646 237.287 143.723 234.55C145.978 236.482 147.522 237.832 148.579 238.777C144.774 240.767 142.877 247.556 143.286 250.861Z" fill="black"/>
<path d="M145.98 251.947C146.326 253.279 146.019 254.51 145.294 254.699C144.57 254.887 143.702 253.96 143.357 252.629C143.011 251.297 143.318 250.065 144.043 249.877C144.767 249.689 145.635 250.615 145.98 251.947Z" fill="#DE995F"/>
<path opacity="0.1" d="M176.602 282.229C176.602 282.229 176.777 307.69 176.636 307.832C176.495 307.973 180.82 311.291 180.82 311.291L183.417 286.773L176.602 282.229Z" fill="black"/>
<path d="M493.442 236.696H180.822V471.076H493.442V236.696Z" fill="#BDC9F9"/>
<path d="M493.437 208.322H180.922V236.63H493.437V208.322Z" fill="#587EE8"/>
<path d="M490.12 236.696H177.5V471.076H490.12V236.696Z" fill="#E3E9F7"/>
<path d="M481.102 244.384H186.527V463.388H481.102V244.384Z" fill="white"/>
<path d="M490.115 208.322H177.6V236.63H490.115V208.322Z" fill="black"/>
<path d="M191.947 227.006C194.577 227.006 196.708 224.978 196.708 222.476C196.708 219.975 194.577 217.947 191.947 217.947C189.317 217.947 187.186 219.975 187.186 222.476C187.186 224.978 189.317 227.006 191.947 227.006Z" fill="#E3E9F7"/>
<path d="M205.832 227.006C208.461 227.006 210.593 224.978 210.593 222.476C210.593 219.975 208.461 217.947 205.832 217.947C203.202 217.947 201.07 219.975 201.07 222.476C201.07 224.978 203.202 227.006 205.832 227.006Z" fill="#E3E9F7"/>
<path d="M219.72 227.006C222.35 227.006 224.482 224.978 224.482 222.476C224.482 219.975 222.35 217.947 219.72 217.947C217.091 217.947 214.959 219.975 214.959 222.476C214.959 224.978 217.091 227.006 219.72 227.006Z" fill="#E3E9F7"/>
<path d="M191.256 273.167L186.935 260.076H190.304L192.355 266.942L192.959 269.249H192.996C193.215 268.358 193.417 267.589 193.6 266.942L195.632 260.076H198.91L194.607 273.167H191.256ZM199.612 273.167V263.793H202.597V273.167H199.612ZM199.612 262.493V260.076H202.597V262.493H199.612ZM208.021 273.46C206.653 273.46 205.561 273.167 204.743 272.581C203.937 271.983 203.51 271.165 203.461 270.128H206.281C206.391 271.055 206.965 271.519 208.002 271.519C208.454 271.519 208.808 271.44 209.064 271.281C209.333 271.11 209.467 270.878 209.467 270.586C209.467 270.488 209.455 270.402 209.43 270.329C209.406 270.256 209.363 270.189 209.302 270.128C209.241 270.067 209.18 270.012 209.119 269.963C209.07 269.914 208.991 269.871 208.881 269.835C208.771 269.786 208.674 269.749 208.588 269.725C208.515 269.701 208.399 269.676 208.24 269.652C208.094 269.615 207.978 269.591 207.892 269.578C207.807 269.554 207.673 269.53 207.49 269.505C207.306 269.469 207.172 269.444 207.087 269.432C206.696 269.371 206.367 269.31 206.098 269.249C205.829 269.176 205.53 269.066 205.201 268.919C204.883 268.773 204.621 268.608 204.413 268.425C204.218 268.23 204.053 267.973 203.919 267.656C203.785 267.326 203.718 266.948 203.718 266.521C203.718 265.569 204.102 264.83 204.871 264.305C205.64 263.78 206.605 263.518 207.764 263.518C209.07 263.518 210.083 263.786 210.804 264.324C211.524 264.848 211.921 265.581 211.994 266.521H209.247C209.15 265.788 208.649 265.422 207.746 265.422C207.355 265.422 207.038 265.495 206.794 265.642C206.562 265.788 206.446 266.002 206.446 266.283C206.446 266.356 206.458 266.423 206.483 266.484C206.507 266.545 206.544 266.6 206.592 266.649C206.653 266.698 206.708 266.74 206.757 266.777C206.818 266.814 206.898 266.85 206.995 266.887C207.093 266.924 207.178 266.954 207.252 266.978C207.337 267.003 207.447 267.027 207.581 267.052C207.728 267.076 207.844 267.101 207.929 267.125C208.027 267.137 208.155 267.162 208.314 267.198C208.472 267.223 208.6 267.241 208.698 267.253C209.113 267.326 209.455 267.393 209.723 267.455C209.992 267.516 210.303 267.625 210.657 267.784C211.023 267.931 211.31 268.108 211.518 268.315C211.725 268.51 211.902 268.785 212.049 269.139C212.207 269.481 212.287 269.884 212.287 270.347C212.287 271.348 211.89 272.117 211.097 272.655C210.315 273.192 209.29 273.46 208.021 273.46ZM213.256 273.167V263.793H216.24V273.167H213.256ZM213.256 262.493V260.076H216.24V262.493H213.256ZM221.389 273.277C220.437 273.277 219.698 273.088 219.173 272.709C218.661 272.319 218.404 271.648 218.404 270.695V265.66H217.159V263.793H218.404V260.826H221.316V263.793H223.019V265.66H221.316V270.055C221.316 270.396 221.401 270.634 221.572 270.769C221.755 270.903 222.018 270.97 222.359 270.97C222.457 270.97 222.585 270.97 222.744 270.97C222.903 270.958 222.994 270.952 223.019 270.952V273.131C222.677 273.228 222.134 273.277 221.389 273.277ZM227.117 273.167V260.076H230.358V270.421H236.236V273.167H227.117ZM237.466 273.167V263.793H240.451V273.167H237.466ZM237.466 262.493V260.076H240.451V262.493H237.466ZM241.883 273.167V263.793H244.757V265.074H244.812C245.533 264.037 246.497 263.518 247.705 263.518C248.719 263.518 249.512 263.847 250.086 264.507C250.672 265.154 250.965 266.008 250.965 267.07V273.167H247.98V267.674C247.98 267.162 247.852 266.759 247.595 266.466C247.351 266.161 246.991 266.008 246.515 266.008C246.027 266.008 245.63 266.191 245.325 266.557C245.02 266.924 244.867 267.4 244.867 267.986V273.167H241.883ZM252.325 273.167V260.076H255.273V266.96L258.056 263.793H261.498L258.203 267.308L261.883 273.167H258.422L256.17 269.34L255.273 270.293V273.167H252.325Z" fill="black"/>
<path d="M463.619 258.657H455.221V259.797H463.619V258.657Z" fill="black"/>
<path d="M463.619 261.345H455.221V262.486H463.619V261.345Z" fill="black"/>
<path d="M463.619 264.034H455.221V265.175H463.619V264.034Z" fill="black"/>
<path d="M474.114 291.438H193.512V325.767H474.114V291.438Z" fill="#F2F4FE"/>
<path d="M474.149 332.72H193.473V367.049H474.149V332.72Z" fill="#DEE4FC"/>
<path d="M474.149 374.002H193.473V408.331H474.149V374.002Z" fill="#F2F4FE"/>
<path d="M474.149 415.336H193.473V449.665H474.149V415.336Z" fill="#DEE4FC"/>
<path d="M228.531 339.779H364.933" stroke="black" stroke-width="13" stroke-miterlimit="10" stroke-linecap="round"/>
<path d="M228.531 359.779H319.889" stroke="black" stroke-width="13" stroke-miterlimit="10" stroke-linecap="round"/>
<path d="M228.531 381.525H364.933" stroke="black" stroke-width="13" stroke-miterlimit="10" stroke-linecap="round"/>
<path d="M228.531 401.525H319.889" stroke="black" stroke-width="13" stroke-miterlimit="10" stroke-linecap="round"/>
<path d="M228.531 426.313H364.933" stroke="black" stroke-width="13" stroke-miterlimit="10" stroke-linecap="round"/>
<path d="M228.531 446.313H319.889" stroke="black" stroke-width="13" stroke-miterlimit="10" stroke-linecap="round"/>
<path d="M463.619 345.466H432.977V354.302H463.619V345.466Z" fill="black" stroke="black" stroke-width="5" stroke-miterlimit="10"/>
<path d="M463.619 386.748H432.977V395.583H463.619V386.748Z" fill="black" stroke="black" stroke-width="5" stroke-miterlimit="10"/>
<path d="M463.619 428.03H432.977V436.865H463.619V428.03Z" fill="black" stroke="black" stroke-width="5" stroke-miterlimit="10"/>
<path d="M429.627 345.466H398.984V354.302H429.627V345.466Z" stroke="black" stroke-width="5" stroke-miterlimit="10"/>
<path d="M429.627 386.748H398.984V395.583H429.627V386.748Z" stroke="black" stroke-width="5" stroke-miterlimit="10"/>
<path d="M429.627 428.03H398.984V436.865H429.627V428.03Z" stroke="black" stroke-width="5" stroke-miterlimit="10"/>
<path d="M414.306 345.466H398.984V354.302H414.306V345.466Z" fill="black"/>
<path d="M405.663 386.748H398.984V395.583H405.663V386.748Z" fill="black"/>
<path d="M422.132 428.03H398.984V436.865H422.132V428.03Z" fill="black"/>
<path d="M441.873 348.662C441.585 348.662 441.361 348.771 441.203 348.988C441.044 349.205 440.965 349.508 440.965 349.895C440.965 350.702 441.268 351.106 441.873 351.106C442.127 351.106 442.435 351.042 442.796 350.915V351.559C442.499 351.683 442.168 351.744 441.802 351.744C441.275 351.744 440.873 351.585 440.594 351.265C440.315 350.946 440.176 350.488 440.176 349.89C440.176 349.514 440.244 349.184 440.381 348.901C440.518 348.619 440.715 348.401 440.971 348.25C441.228 348.099 441.528 348.024 441.873 348.024C442.225 348.024 442.578 348.109 442.932 348.279L442.685 348.903C442.55 348.838 442.414 348.782 442.277 348.734C442.14 348.686 442.005 348.662 441.873 348.662Z" fill="white"/>
<path d="M446.531 351.695H445.766V350.133H444.334V351.695H443.566V348.076H444.334V349.494H445.766V348.076H446.531V351.695Z" fill="white"/>
<path d="M449.527 351.695H447.443V348.076H449.527V348.705H448.21V349.499H449.435V350.128H448.21V351.061H449.527V351.695Z" fill="white"/>
<path d="M451.819 348.662C451.53 348.662 451.306 348.771 451.148 348.988C450.99 349.205 450.911 349.508 450.911 349.895C450.911 350.702 451.213 351.106 451.819 351.106C452.073 351.106 452.38 351.042 452.742 350.915V351.559C452.445 351.683 452.113 351.744 451.747 351.744C451.221 351.744 450.818 351.585 450.539 351.265C450.26 350.946 450.121 350.488 450.121 349.89C450.121 349.514 450.189 349.184 450.326 348.901C450.463 348.619 450.66 348.401 450.917 348.25C451.173 348.099 451.474 348.024 451.819 348.024C452.17 348.024 452.523 348.109 452.878 348.279L452.63 348.903C452.495 348.838 452.359 348.782 452.222 348.734C452.085 348.686 451.951 348.662 451.819 348.662Z" fill="white"/>
<path d="M456.422 351.695H455.551L454.603 350.17L454.279 350.403V351.695H453.512V348.076H454.279V349.732L454.581 349.306L455.561 348.076H456.412L455.15 349.678L456.422 351.695Z" fill="white"/>
<path d="M441.873 389.944C441.585 389.944 441.361 390.053 441.203 390.27C441.044 390.487 440.965 390.789 440.965 391.177C440.965 391.984 441.268 392.387 441.873 392.387C442.127 392.387 442.435 392.324 442.796 392.197V392.84C442.499 392.964 442.168 393.026 441.802 393.026C441.275 393.026 440.873 392.866 440.594 392.547C440.315 392.228 440.176 391.769 440.176 391.172C440.176 390.796 440.244 390.466 440.381 390.183C440.518 389.9 440.715 389.683 440.971 389.532C441.228 389.381 441.528 389.305 441.873 389.305C442.225 389.305 442.578 389.391 442.932 389.56L442.685 390.184C442.55 390.12 442.414 390.064 442.277 390.016C442.14 389.968 442.005 389.944 441.873 389.944Z" fill="white"/>
<path d="M446.531 392.976H445.766V391.415H444.334V392.976H443.566V389.357H444.334V390.776H445.766V389.357H446.531V392.976Z" fill="white"/>
<path d="M449.527 392.976H447.443V389.357H449.527V389.986H448.21V390.781H449.435V391.41H448.21V392.343H449.527V392.976Z" fill="white"/>
<path d="M451.819 389.944C451.53 389.944 451.306 390.053 451.148 390.27C450.99 390.487 450.911 390.789 450.911 391.177C450.911 391.984 451.213 392.387 451.819 392.387C452.073 392.387 452.38 392.324 452.742 392.197V392.84C452.445 392.964 452.113 393.026 451.747 393.026C451.221 393.026 450.818 392.866 450.539 392.547C450.26 392.228 450.121 391.769 450.121 391.172C450.121 390.796 450.189 390.466 450.326 390.183C450.463 389.9 450.66 389.683 450.917 389.532C451.173 389.381 451.474 389.305 451.819 389.305C452.17 389.305 452.523 389.391 452.878 389.56L452.63 390.184C452.495 390.12 452.359 390.064 452.222 390.016C452.085 389.968 451.951 389.944 451.819 389.944Z" fill="white"/>
<path d="M456.422 392.977H455.551L454.603 391.452L454.279 391.684V392.976H453.512V389.357H454.279V391.013L454.581 390.588L455.561 389.357H456.412L455.15 390.959L456.422 392.977Z" fill="white"/>
<path d="M441.873 431.226C441.585 431.226 441.361 431.334 441.203 431.551C441.044 431.768 440.965 432.071 440.965 432.459C440.965 433.265 441.268 433.669 441.873 433.669C442.127 433.669 442.435 433.606 442.796 433.478V434.122C442.499 434.246 442.168 434.308 441.802 434.308C441.275 434.308 440.873 434.148 440.594 433.829C440.315 433.509 440.176 433.051 440.176 432.454C440.176 432.077 440.244 431.748 440.381 431.465C440.518 431.182 440.715 430.965 440.971 430.814C441.228 430.662 441.528 430.587 441.873 430.587C442.225 430.587 442.578 430.672 442.932 430.842L442.685 431.466C442.55 431.402 442.414 431.345 442.277 431.298C442.14 431.25 442.005 431.226 441.873 431.226Z" fill="white"/>
<path d="M446.531 434.258H445.766V432.696H444.334V434.258H443.566V430.639H444.334V432.057H445.766V430.639H446.531V434.258Z" fill="white"/>
<path d="M449.527 434.258H447.443V430.639H449.527V431.268H448.21V432.063H449.435V432.691H448.21V433.625H449.527V434.258Z" fill="white"/>
<path d="M451.819 431.226C451.53 431.226 451.306 431.334 451.148 431.551C450.99 431.768 450.911 432.071 450.911 432.459C450.911 433.265 451.213 433.669 451.819 433.669C452.073 433.669 452.38 433.606 452.742 433.478V434.122C452.445 434.246 452.113 434.308 451.747 434.308C451.221 434.308 450.818 434.148 450.539 433.829C450.26 433.509 450.121 433.051 450.121 432.454C450.121 432.077 450.189 431.748 450.326 431.465C450.463 431.182 450.66 430.965 450.917 430.814C451.173 430.662 451.474 430.587 451.819 430.587C452.17 430.587 452.523 430.672 452.878 430.842L452.63 431.466C452.495 431.402 452.359 431.345 452.222 431.298C452.085 431.25 451.951 431.226 451.819 431.226Z" fill="white"/>
<path d="M456.422 434.258H455.551L454.603 432.733L454.279 432.966V434.258H453.512V430.639H454.279V432.295L454.581 431.869L455.561 430.639H456.412L455.15 432.241L456.422 434.258Z" fill="white"/>
<path opacity="0.15" d="M276.096 319.053H206.33C205.044 319.053 204.002 318.011 204.002 316.724V301.671C204.002 300.385 205.044 299.342 206.33 299.342H276.096C277.382 299.342 278.424 300.385 278.424 301.671V316.724C278.425 318.011 277.382 319.053 276.096 319.053Z" fill="black"/>
<path d="M275.349 317.466H207.082C205.796 317.466 204.754 316.423 204.754 315.137V300.481C204.754 299.194 205.796 298.152 207.082 298.152H275.349C276.635 298.152 277.678 299.195 277.678 300.481V315.137C277.678 316.423 276.635 317.466 275.349 317.466Z" fill="black"/>
<path d="M221.094 306.448H219.58V314.027H221.094V306.448Z" fill="white"/>
<path d="M216.549 309.481V310.995H224.125V309.481H216.549Z" fill="white"/>
<path d="M228.107 313.372C227.09 313.372 226.32 313.135 225.798 312.661C225.276 312.186 225.014 311.513 225.014 310.64V305.866H226.839V310.702C226.839 311.506 227.262 311.908 228.107 311.908C228.513 311.908 228.822 311.798 229.035 311.578C229.248 311.351 229.355 311.049 229.355 310.671V305.866H231.18V310.64C231.18 311.506 230.919 312.18 230.396 312.661C229.881 313.135 229.118 313.372 228.107 313.372ZM232.031 314.98V307.959H233.639V308.599H233.67C234.076 308.069 234.608 307.805 235.268 307.805C235.955 307.805 236.502 308.069 236.907 308.599C237.32 309.121 237.526 309.788 237.526 310.599C237.526 311.451 237.316 312.131 236.897 312.64C236.478 313.149 235.921 313.403 235.227 313.403C234.581 313.403 234.082 313.166 233.732 312.692H233.711V314.98H232.031ZM234.794 312.104C235.117 312.104 235.368 311.977 235.546 311.722C235.732 311.461 235.825 311.107 235.825 310.661C235.825 310.193 235.735 309.825 235.557 309.557C235.378 309.289 235.113 309.155 234.763 309.155C234.412 309.155 234.141 309.296 233.948 309.578C233.756 309.853 233.66 310.214 233.66 310.661C233.66 311.094 233.759 311.444 233.959 311.712C234.158 311.973 234.436 312.104 234.794 312.104ZM238.102 313.238V305.866H239.803V313.238H238.102ZM242.372 311.774C242.564 312.063 242.839 312.207 243.197 312.207C243.554 312.207 243.829 312.063 244.021 311.774C244.221 311.485 244.32 311.097 244.32 310.609C244.32 310.121 244.221 309.733 244.021 309.444C243.829 309.148 243.554 309.001 243.197 309.001C242.839 309.001 242.564 309.145 242.372 309.434C242.179 309.722 242.083 310.114 242.083 310.609C242.083 311.097 242.179 311.485 242.372 311.774ZM245.238 312.609C244.722 313.138 244.045 313.403 243.207 313.403C242.368 313.403 241.688 313.138 241.166 312.609C240.643 312.08 240.382 311.413 240.382 310.609C240.382 309.805 240.643 309.138 241.166 308.609C241.688 308.08 242.368 307.815 243.207 307.815C244.045 307.815 244.722 308.08 245.238 308.609C245.76 309.138 246.022 309.805 246.022 310.609C246.022 311.413 245.76 312.08 245.238 312.609ZM248.146 313.372C247.603 313.372 247.167 313.231 246.837 312.949C246.507 312.668 246.342 312.272 246.342 311.764C246.342 311.228 246.521 310.839 246.878 310.599C247.236 310.351 247.731 310.186 248.363 310.104C248.878 310.042 249.229 309.973 249.415 309.898C249.607 309.815 249.703 309.688 249.703 309.516C249.703 309.138 249.463 308.949 248.982 308.949C248.466 308.949 248.181 309.176 248.126 309.63H246.579C246.6 309.107 246.813 308.674 247.219 308.33C247.631 307.987 248.215 307.815 248.971 307.815C249.727 307.815 250.298 307.959 250.683 308.248C251.129 308.571 251.353 309.073 251.353 309.753V312.413C251.353 312.833 251.415 313.083 251.538 313.166V313.238H249.909C249.841 313.142 249.782 312.946 249.734 312.65H249.714C249.377 313.132 248.854 313.372 248.146 313.372ZM248.683 312.3C248.999 312.3 249.253 312.214 249.445 312.042C249.645 311.863 249.744 311.633 249.744 311.351V310.722C249.58 310.805 249.291 310.898 248.878 311.001C248.542 311.076 248.305 311.166 248.167 311.269C248.03 311.372 247.961 311.52 247.961 311.712C247.961 312.104 248.201 312.3 248.683 312.3ZM254.24 313.403C253.552 313.403 252.996 313.152 252.57 312.65C252.143 312.149 251.93 311.465 251.93 310.599C251.93 309.774 252.143 309.104 252.57 308.588C253.003 308.066 253.559 307.805 254.24 307.805C254.872 307.805 255.364 308.056 255.714 308.557H255.745V305.866H257.426V313.238H255.817V312.527H255.797C255.453 313.111 254.934 313.403 254.24 313.403ZM254.673 312.073C255.016 312.073 255.288 311.939 255.487 311.671C255.687 311.396 255.786 311.039 255.786 310.599C255.786 310.138 255.694 309.77 255.508 309.496C255.322 309.214 255.051 309.073 254.693 309.073C254.364 309.073 254.102 309.21 253.91 309.485C253.724 309.76 253.632 310.124 253.632 310.578C253.632 311.039 253.724 311.403 253.91 311.671C254.095 311.939 254.35 312.073 254.673 312.073ZM261.922 313.3C261.386 313.3 260.97 313.193 260.675 312.98C260.386 312.76 260.242 312.382 260.242 311.846V309.011H259.541V307.959H260.242V306.289H261.881V307.959H262.84V309.011H261.881V311.485C261.881 311.678 261.929 311.812 262.026 311.887C262.129 311.963 262.276 312.001 262.469 312.001C262.524 312.001 262.596 312.001 262.685 312.001C262.775 311.994 262.826 311.991 262.84 311.991V313.217C262.648 313.272 262.342 313.3 261.922 313.3ZM265.102 313.372C264.559 313.372 264.122 313.231 263.792 312.949C263.462 312.668 263.297 312.272 263.297 311.764C263.297 311.228 263.476 310.839 263.833 310.599C264.191 310.351 264.686 310.186 265.318 310.104C265.834 310.042 266.184 309.973 266.37 309.898C266.562 309.815 266.658 309.688 266.658 309.516C266.658 309.138 266.418 308.949 265.937 308.949C265.421 308.949 265.136 309.176 265.081 309.63H263.534C263.555 309.107 263.768 308.674 264.174 308.33C264.586 307.987 265.17 307.815 265.926 307.815C266.682 307.815 267.253 307.959 267.638 308.248C268.085 308.571 268.308 309.073 268.308 309.753V312.413C268.308 312.833 268.37 313.083 268.494 313.166V313.238H266.865C266.796 313.142 266.737 312.946 266.689 312.65H266.669C266.332 313.132 265.81 313.372 265.102 313.372ZM265.638 312.3C265.954 312.3 266.208 312.214 266.401 312.042C266.6 311.863 266.7 311.633 266.7 311.351V310.722C266.535 310.805 266.246 310.898 265.834 311.001C265.497 311.076 265.26 311.166 265.122 311.269C264.985 311.372 264.916 311.52 264.916 311.712C264.916 312.104 265.157 312.3 265.638 312.3ZM271.115 313.3C270.579 313.3 270.163 313.193 269.867 312.98C269.579 312.76 269.434 312.382 269.434 311.846V309.011H268.733V307.959H269.434V306.289H271.074V307.959H272.032V309.011H271.074V311.485C271.074 311.678 271.122 311.812 271.218 311.887C271.321 311.963 271.469 312.001 271.661 312.001C271.716 312.001 271.788 312.001 271.878 312.001C271.967 311.994 272.019 311.991 272.032 311.991V313.217C271.84 313.272 271.534 313.3 271.115 313.3ZM274.679 313.3C274.143 313.3 273.727 313.193 273.432 312.98C273.143 312.76 272.999 312.382 272.999 311.846V309.011H272.297V307.959H272.999V306.289H274.638V307.959H275.597V309.011H274.638V311.485C274.638 311.678 274.686 311.812 274.782 311.887C274.885 311.963 275.033 312.001 275.225 312.001C275.28 312.001 275.353 312.001 275.442 312.001C275.531 311.994 275.583 311.991 275.597 311.991V313.217C275.404 313.272 275.098 313.3 274.679 313.3ZM277.903 311.774C278.095 312.063 278.37 312.207 278.728 312.207C279.085 312.207 279.36 312.063 279.553 311.774C279.752 311.485 279.852 311.097 279.852 310.609C279.852 310.121 279.752 309.733 279.553 309.444C279.36 309.148 279.085 309.001 278.728 309.001C278.37 309.001 278.095 309.145 277.903 309.434C277.711 309.722 277.614 310.114 277.614 310.609C277.614 311.097 277.711 311.485 277.903 311.774ZM280.769 312.609C280.254 313.138 279.577 313.403 278.738 313.403C277.9 313.403 277.219 313.138 276.697 312.609C276.174 312.08 275.913 311.413 275.913 310.609C275.913 309.805 276.174 309.138 276.697 308.609C277.219 308.08 277.9 307.815 278.738 307.815C279.577 307.815 280.254 308.08 280.769 308.609C281.292 309.138 281.553 309.805 281.553 310.609C281.553 311.413 281.292 312.08 280.769 312.609ZM283.874 311.774C284.066 312.063 284.341 312.207 284.698 312.207C285.056 312.207 285.331 312.063 285.523 311.774C285.722 311.485 285.822 311.097 285.822 310.609C285.822 310.121 285.722 309.733 285.523 309.444C285.331 309.148 285.056 309.001 284.698 309.001C284.341 309.001 284.066 309.145 283.874 309.434C283.681 309.722 283.585 310.114 283.585 310.609C283.585 311.097 283.681 311.485 283.874 311.774ZM286.74 312.609C286.224 313.138 285.547 313.403 284.709 313.403C283.87 313.403 283.19 313.138 282.667 312.609C282.145 312.08 281.884 311.413 281.884 310.609C281.884 309.805 282.145 309.138 282.667 308.609C283.19 308.08 283.87 307.815 284.709 307.815C285.547 307.815 286.224 308.08 286.74 308.609C287.262 309.138 287.523 309.805 287.523 310.609C287.523 311.413 287.262 312.08 286.74 312.609Z" fill="white"/>
<path d="M212.836 345.467H204.004V354.302H212.836V345.467Z" stroke="black" stroke-width="5" stroke-miterlimit="10"/>
<path d="M212.838 386.748H204.006V395.584H212.838V386.748Z" stroke="black" stroke-width="5" stroke-miterlimit="10"/>
<path d="M212.84 428.082H204.008V436.918H212.84V428.082Z" stroke="black" stroke-width="5" stroke-miterlimit="10"/>
<path opacity="0.1" d="M187.094 310.658C186.911 310.786 186.721 310.906 186.526 311.017C183.915 312.52 180.253 312.722 177.502 312.603V302.889C179.924 302.431 181.848 302.321 183.173 302.328C184.382 302.334 185.556 302.707 186.526 303.399C186.819 303.608 187.094 303.847 187.344 304.114C190.579 307.56 187.094 310.658 187.094 310.658Z" fill="black"/>
<path d="M169.043 304.805C175.299 302.308 180.057 301.892 182.605 301.904C184.18 301.911 185.698 302.543 186.776 303.691C190.012 307.137 186.526 310.235 186.526 310.235C181.925 313.439 173.081 311.777 173.081 311.777C163.357 313.166 152.606 312.828 147.141 312.511C144.938 312.383 149.59 304.711 149.59 304.711L156.982 305.064L169.043 304.805Z" fill="#DE995F"/>
<path d="M507.089 454.269C506.585 454.247 506.192 453.954 506.212 453.615C506.541 447.012 507.516 440.463 508.89 434.023C510.265 427.579 512.032 421.238 513.95 414.961C515.868 408.682 517.938 402.463 519.938 396.233C521.938 390.004 523.871 383.76 525.511 377.448C525.597 377.124 526.062 376.962 526.55 377.088C527.038 377.213 527.364 377.58 527.278 377.907C525.624 384.274 523.68 390.55 521.676 396.792C519.672 403.034 517.605 409.245 515.696 415.494C513.787 421.743 512.034 428.033 510.676 434.404C509.317 440.77 508.358 447.221 508.035 453.706C508.016 454.039 507.592 454.291 507.089 454.269Z" fill="#FBB5A5"/>
<path d="M509.592 463.122C509.09 463.165 508.665 462.951 508.643 462.643C508.435 459.663 508.565 456.693 508.799 453.763C508.916 452.297 509.06 450.838 509.206 449.386C509.278 448.66 509.353 447.935 509.42 447.211L509.622 445.038C509.655 444.675 509.692 444.313 509.721 443.951L509.811 442.863L509.991 440.688L510.148 438.511L510.227 437.422C510.253 437.059 510.273 436.696 510.296 436.333L510.431 434.154C510.477 433.428 510.508 432.701 510.548 431.975L510.604 430.885C510.623 430.522 510.641 430.158 510.655 429.795L510.745 427.614C510.778 426.887 510.798 426.16 510.821 425.433L510.887 423.251L510.933 421.069L510.955 419.978L510.968 418.886L510.99 416.704C510.996 415.976 510.992 415.248 510.994 414.521C511 413.066 510.98 411.611 510.966 410.156C510.962 409.428 510.942 408.701 510.928 407.973L510.882 405.791L510.815 403.609L510.781 402.518L510.736 401.428L510.647 399.247L510.537 397.067C510.47 395.613 510.371 394.161 510.284 392.709C510.266 392.41 510.659 392.141 511.162 392.107C511.664 392.073 512.087 392.29 512.106 392.59C512.194 394.051 512.292 395.51 512.36 396.972L512.471 399.164L512.561 401.356L512.605 402.453L512.639 403.549L512.706 405.743L512.754 407.937C512.767 408.668 512.787 409.4 512.791 410.131C512.805 411.594 512.826 413.057 512.819 414.52C512.818 415.252 512.822 415.983 512.816 416.715L512.793 418.909L512.781 420.006L512.758 421.103L512.712 423.297L512.645 425.491C512.622 426.222 512.603 426.953 512.569 427.684L512.479 429.877C512.465 430.242 512.447 430.608 512.427 430.973L512.371 432.069C512.331 432.799 512.3 433.53 512.254 434.26L512.118 436.451C512.095 436.816 512.075 437.181 512.048 437.546L511.969 438.64L511.811 440.829L511.631 443.016L511.54 444.11C511.51 444.474 511.474 444.838 511.441 445.202L511.238 447.388C511.17 448.116 511.095 448.843 511.023 449.569C510.877 451.02 510.734 452.466 510.619 453.909C510.388 456.793 510.266 459.673 510.465 462.518C510.485 462.809 510.094 463.08 509.592 463.122Z" fill="#FBB5A5"/>
<path d="M506.462 462.286C505.96 462.241 505.574 461.935 505.6 461.604L505.693 460.393L505.762 459.18C505.788 458.776 505.8 458.371 505.815 457.966C505.827 457.561 505.848 457.156 505.854 456.751L505.873 455.536L505.878 455.232L505.877 454.928L505.875 454.32C505.879 453.509 505.853 452.698 505.837 451.887C505.734 448.644 505.484 445.402 505.092 442.175C504.71 438.945 504.189 435.73 503.59 432.528C502.983 429.327 502.293 426.139 501.539 422.962C500.789 419.785 499.977 416.619 499.145 413.457L497.88 408.714C497.453 407.134 497.029 405.552 496.594 403.98C496.158 402.408 495.705 400.845 495.216 399.299C494.726 397.753 494.203 396.221 493.608 394.723C492.424 391.729 491.003 388.833 489.158 386.236C488.972 385.969 489.149 385.51 489.555 385.21C489.96 384.911 490.451 384.899 490.65 385.184C491.619 386.56 492.492 388.001 493.253 389.492C494.018 390.98 494.696 392.507 495.307 394.055C495.92 395.601 496.456 397.171 496.956 398.747C497.454 400.324 497.913 401.907 498.353 403.492C498.791 405.076 499.215 406.658 499.642 408.24L500.91 412.991C501.745 416.163 502.561 419.343 503.315 422.542C504.074 425.739 504.77 428.955 505.384 432.19C505.989 435.426 506.517 438.681 506.905 441.958C507.302 445.233 507.557 448.529 507.662 451.833C507.678 452.66 507.704 453.486 507.7 454.313L507.702 454.933L507.703 455.243L507.699 455.554L507.679 456.794C507.673 457.208 507.651 457.621 507.639 458.035C507.624 458.448 507.611 458.862 507.584 459.275L507.514 460.514L507.419 461.753C507.393 462.092 506.964 462.331 506.462 462.286Z" fill="#FBB5A5"/>
<path d="M507.761 469.317C507.259 469.363 506.835 469.165 506.813 468.876C504.975 446.393 514.582 423.367 531.853 408.863C532.073 408.675 532.512 408.838 532.832 409.227C533.153 409.616 533.239 410.08 533.026 410.262C528.832 413.78 525.089 417.834 521.873 422.269C518.656 426.705 515.964 431.522 513.852 436.581C511.742 441.64 510.212 446.943 509.322 452.35C508.432 457.757 508.183 463.27 508.633 468.726C508.653 469.006 508.263 469.271 507.761 469.317Z" fill="#FBB5A5"/>
<path d="M512.292 465.833C511.788 465.832 511.378 465.654 511.376 465.434C511.351 461.149 510.939 456.869 510.232 452.627C509.883 450.505 509.467 448.391 509.008 446.284C508.895 445.757 508.773 445.231 508.655 444.704L508.289 443.127L507.927 441.524C507.864 441.257 507.812 440.988 507.757 440.72L507.593 439.915C506.742 435.616 506.181 431.268 505.857 426.912C505.529 422.556 505.405 418.192 505.406 413.838C505.406 413.614 505.814 413.433 506.318 413.434C506.822 413.434 507.231 413.615 507.232 413.837C507.23 418.16 507.354 422.476 507.677 426.773C507.997 431.07 508.549 435.344 509.383 439.558L509.544 440.347C509.598 440.61 509.649 440.874 509.71 441.135L510.065 442.706L510.435 444.298C510.553 444.83 510.677 445.361 510.791 445.894C511.256 448.026 511.678 450.171 512.034 452.33C512.752 456.646 513.176 461.03 513.201 465.424C513.203 465.65 512.797 465.834 512.292 465.833Z" fill="#FBB5A5"/>
<path d="M520.146 470.274C518.89 470.431 517.71 470.561 516.602 470.667C515.695 470.754 514.836 470.825 514.023 470.882C504.309 471.562 501.269 470.233 501.269 470.233C495.626 452.884 497.867 441.843 497.867 441.843C502.086 442.18 511.102 442.113 517.286 442.014C521.014 441.955 523.714 441.885 523.714 441.885C523.715 441.904 523.716 441.923 523.717 441.942C524.534 458.928 520.146 470.274 520.146 470.274Z" fill="#CDD7FB"/>
<path opacity="0.15" d="M520.145 470.274C518.889 470.431 517.709 470.56 516.602 470.667C520.882 460.388 520.39 448.109 519.775 442.014C521.299 441.99 522.651 441.964 523.716 441.942C524.533 458.927 520.145 470.274 520.145 470.274Z" fill="black"/>
<path d="M501.184 385.71C499.27 377.897 492.479 383.456 492.479 383.456C491.776 384.769 491.381 384.513 491.381 384.513C491.333 384.537 491.289 384.558 491.249 384.573C491.205 384.591 491.165 384.603 491.13 384.611C490.952 384.652 490.884 384.583 490.859 384.503C490.845 384.454 490.846 384.402 490.85 384.367C490.853 384.34 490.857 384.323 490.857 384.323C483.407 377.419 478.759 387.916 478.759 387.916C474.377 393.056 477.846 399.873 477.846 399.873C478.584 401.757 478.005 402.482 478.005 402.482C477.811 403.705 477.937 404.421 478.181 404.834C478.218 404.897 478.257 404.953 478.299 405.002C478.312 405.018 478.326 405.033 478.338 405.047C478.339 405.047 478.339 405.048 478.34 405.049C478.382 405.092 478.425 405.131 478.469 405.166C478.493 405.183 478.517 405.2 478.542 405.214C478.974 405.488 479.472 405.338 479.472 405.338C478.708 404.665 478.979 404.166 479.6 403.807C479.601 403.807 479.601 403.807 479.601 403.807C480.586 403.238 482.449 403.02 482.449 403.02C490.464 401.953 491.541 399.004 491.541 399.004C494.612 399.361 496.213 396.667 496.213 396.667C496.208 396.145 497.112 395.286 497.112 395.286C502.226 391.509 501.184 385.71 501.184 385.71ZM479.705 396.713C479.189 397.677 478.949 398.384 478.921 398.469C479.084 397.86 479.358 397.271 479.705 396.713Z" fill="#FDDAD2"/>
<path d="M478.92 398.469C479.083 397.86 479.357 397.271 479.704 396.712C479.188 397.677 478.948 398.384 478.92 398.469Z" fill="#FDDAD2"/>
<path opacity="0.1" d="M485.12 383.789C485.212 383.764 488.276 382.95 490.65 384.769C490.621 384.806 490.592 384.842 490.562 384.88C490.381 385.111 490.18 385.37 489.962 385.652C489.962 385.652 488.216 385.122 486.242 385.122C484.929 385.122 483.515 385.356 482.446 386.137C482.576 386.075 485.648 384.611 489.664 386.036C489.174 386.67 488.614 387.405 488.012 388.21L488.031 388.183C488.031 388.183 482.64 387.314 479.246 391.23C479.34 391.137 482.693 387.851 487.752 388.557C487.599 388.762 487.444 388.971 487.286 389.185L487.268 389.209C487.182 389.326 487.095 389.444 487.007 389.564L486.997 389.577C486.666 390.028 486.326 390.493 485.984 390.97C482.624 392.178 480.675 394.901 479.705 396.713C479.358 397.271 479.084 397.86 478.92 398.469C478.949 398.385 479.188 397.677 479.705 396.713C481.584 393.684 485.589 391.522 485.589 391.522C482.251 396.21 478.674 401.798 478.181 404.834C477.937 404.421 477.811 403.705 478.005 402.482C478.005 402.482 478.585 401.757 477.846 399.873C477.846 399.873 474.377 393.056 478.759 387.916C478.759 387.916 483.407 377.42 490.857 384.323C490.857 384.323 490.853 384.34 490.85 384.367C490.846 384.402 490.845 384.455 490.859 384.503C490.854 384.511 490.846 384.52 490.84 384.528C490.197 384.084 487.61 382.487 485.12 383.789Z" fill="black"/>
<path d="M479.343 405.233C479.343 405.233 478.786 405.395 478.342 405.049C478.526 404.129 479.063 403.809 479.488 403.704C478.863 404.056 478.586 404.552 479.343 405.233Z" fill="#FA9178"/>
<path d="M495.996 385.254C497.352 385.672 498.036 386.139 498.036 386.139C497.623 385.725 496.87 385.444 495.996 385.254Z" fill="#FBB5A5"/>
<path d="M496.861 389.792C496.054 385.937 491.749 385.431 490.743 385.366C490.872 385.201 491.003 385.035 491.134 384.868C492.145 384.856 494.299 384.885 495.996 385.254C494.889 384.913 493.334 384.606 491.335 384.61C491.339 384.607 491.341 384.603 491.345 384.6C491.333 384.604 491.322 384.607 491.311 384.61C491.251 384.611 491.189 384.611 491.129 384.611C491.092 384.612 491.053 384.612 491.015 384.613C490.941 384.558 490.942 384.449 490.95 384.388C490.921 384.424 490.89 384.463 490.858 384.503C490.853 384.511 490.845 384.52 490.838 384.528C490.196 384.083 487.609 382.487 485.119 383.789C485.211 383.764 488.275 382.95 490.649 384.769C490.62 384.806 490.591 384.842 490.561 384.88C490.38 385.111 490.179 385.37 489.961 385.651C489.961 385.651 488.215 385.122 486.241 385.122C484.928 385.122 483.514 385.356 482.445 386.137C482.575 386.075 485.647 384.61 489.663 386.036C489.173 386.67 488.613 387.405 488.011 388.21L488.03 388.183C488.03 388.183 482.639 387.314 479.245 391.23C479.339 391.137 482.692 387.851 487.751 388.557C487.598 388.762 487.443 388.971 487.285 389.184L487.267 389.208C487.181 389.325 487.094 389.444 487.006 389.564L486.996 389.577C486.665 390.028 486.325 390.493 485.983 390.97C482.623 392.178 480.675 394.9 479.704 396.713C481.583 393.684 485.588 391.522 485.588 391.522C482.25 396.21 478.673 401.798 478.18 404.834C478.177 404.851 478.174 404.868 478.172 404.884C478.224 404.949 478.279 405.002 478.337 405.047C478.338 405.047 478.338 405.048 478.339 405.048C478.34 405.048 478.34 405.048 478.34 405.049C478.364 405.068 478.388 405.085 478.412 405.1C478.6 403.856 479.64 400.847 484.263 394.123C486.2 396.712 484.662 399.308 484.537 399.509C486.544 396.772 484.538 393.731 484.535 393.727C485.336 392.573 486.239 391.312 487.258 389.936C487.985 390.996 489.878 394.25 488.381 397.625C488.45 397.502 490.333 394.099 487.531 389.568C487.928 389.035 488.342 388.484 488.775 387.916C488.787 387.921 493.86 389.801 493.599 395.082C493.599 395.082 494.688 390.723 489.117 387.468C489.628 386.799 490.163 386.107 490.723 385.392C495.386 385.69 496.817 389.668 496.861 389.792ZM484.537 399.509C484.531 399.518 484.529 399.522 484.529 399.522C484.532 399.517 484.535 399.513 484.537 399.509Z" fill="#FBB5A5"/>
<path d="M479.702 396.713C479.186 397.677 478.946 398.385 478.918 398.469C479.081 397.86 479.355 397.271 479.702 396.713Z" fill="#FBB5A5"/>
<path d="M544.248 422.846C544.221 422.764 543.991 422.087 543.496 421.162C543.829 421.697 544.092 422.262 544.248 422.846Z" fill="#FDDAD2"/>
<path d="M544.403 412.724C544.403 412.724 539.944 402.656 532.799 409.277C532.799 409.277 532.803 409.294 532.805 409.32C532.809 409.354 532.811 409.403 532.796 409.45C532.774 409.526 532.709 409.593 532.542 409.555C532.541 409.555 532.54 409.555 532.539 409.555C532.505 409.547 532.467 409.535 532.424 409.518C532.385 409.503 532.343 409.483 532.296 409.46C532.296 409.46 531.918 409.706 531.243 408.446C531.243 408.446 524.729 403.114 522.895 410.609C522.895 410.609 521.894 416.17 526.799 419.794C526.799 419.794 527.667 420.617 527.661 421.118C527.661 421.118 529.198 423.702 532.143 423.359C532.143 423.359 533.176 426.188 540.863 427.212C540.863 427.212 542.65 427.42 543.595 427.966C543.595 427.966 543.595 427.966 543.596 427.966C544.191 428.311 544.451 428.79 543.719 429.435C543.719 429.435 544.196 429.579 544.611 429.317C544.635 429.303 544.658 429.286 544.68 429.269C544.722 429.237 544.763 429.201 544.803 429.158C544.804 429.158 544.804 429.158 544.805 429.157C544.818 429.143 544.83 429.128 544.844 429.113C544.884 429.065 544.922 429.011 544.957 428.952C545.191 428.554 545.312 427.868 545.126 426.696C545.126 426.696 544.57 426.001 545.279 424.193C545.279 424.193 548.605 417.654 544.403 412.724ZM544.247 422.845C544.221 422.764 543.991 422.087 543.495 421.162C543.828 421.697 544.091 422.262 544.247 422.845Z" fill="#FDDAD2"/>
<path opacity="0.1" d="M545.279 424.193C544.571 426.001 545.127 426.696 545.127 426.696C545.312 427.868 545.192 428.554 544.957 428.952C544.483 426.03 541.033 420.647 537.823 416.143L537.852 416.182C537.852 416.182 541.694 418.257 543.496 421.162C543.992 422.087 544.221 422.764 544.248 422.846C544.092 422.262 543.829 421.697 543.496 421.162C542.565 419.423 540.697 416.812 537.473 415.653C537.145 415.196 536.82 414.75 536.502 414.318L536.493 414.305C536.408 414.19 536.324 414.076 536.241 413.963L536.225 413.941C536.074 413.737 535.924 413.536 535.778 413.339C540.629 412.662 543.846 415.813 543.936 415.902C540.682 412.147 535.51 412.98 535.51 412.98C534.939 412.218 534.408 411.523 533.944 410.92C537.827 409.542 540.791 410.981 540.869 411.019C539.843 410.269 538.486 410.044 537.225 410.044C535.332 410.044 533.658 410.551 533.658 410.551C533.449 410.282 533.256 410.033 533.082 409.812C533.053 409.776 533.025 409.74 532.998 409.706C535.275 407.961 538.215 408.741 538.303 408.765C535.914 407.517 533.432 409.048 532.817 409.475C532.81 409.466 532.804 409.458 532.797 409.45C532.811 409.403 532.809 409.354 532.805 409.32C532.803 409.294 532.799 409.277 532.799 409.277C539.945 402.655 544.404 412.724 544.404 412.724C548.606 417.654 545.279 424.193 545.279 424.193Z" fill="black"/>
<path d="M543.846 429.334C543.846 429.334 544.38 429.489 544.806 429.158C544.629 428.275 544.114 427.968 543.707 427.867C544.306 428.205 544.572 428.681 543.846 429.334Z" fill="#FA9178"/>
<path d="M527.867 410.171C526.567 410.572 525.91 411.02 525.91 411.02C526.307 410.623 527.029 410.354 527.867 410.171Z" fill="#FBB5A5"/>
<path d="M544.955 428.951C544.48 426.029 541.03 420.647 537.82 416.143L537.849 416.182C537.849 416.182 541.691 418.257 543.493 421.162C542.562 419.423 540.694 416.812 537.47 415.653C537.142 415.196 536.817 414.75 536.499 414.318L536.49 414.304C536.405 414.19 536.322 414.076 536.238 413.963L536.222 413.941C536.071 413.736 535.922 413.535 535.776 413.339C540.626 412.662 543.843 415.812 543.933 415.902C540.679 412.147 535.508 412.98 535.508 412.98C534.936 412.218 534.405 411.522 533.941 410.92C537.824 409.542 540.788 410.98 540.866 411.019C539.841 410.269 538.483 410.043 537.223 410.043C535.329 410.043 533.655 410.551 533.655 410.551C533.446 410.281 533.253 410.033 533.079 409.812C533.05 409.776 533.022 409.74 532.995 409.705C535.272 407.96 538.212 408.741 538.3 408.765C535.912 407.517 533.429 409.048 532.814 409.474C532.807 409.466 532.801 409.458 532.794 409.45C532.764 409.412 532.735 409.376 532.707 409.34C532.715 409.398 532.715 409.503 532.644 409.556C532.609 409.555 532.573 409.555 532.539 409.555C532.538 409.554 532.538 409.554 532.537 409.554C532.477 409.554 532.419 409.554 532.36 409.553C532.349 409.55 532.339 409.547 532.328 409.543C532.33 409.546 532.333 409.55 532.336 409.553C530.42 409.548 528.928 409.843 527.866 410.171C529.495 409.816 531.561 409.789 532.53 409.8C532.656 409.96 532.782 410.12 532.905 410.278C531.94 410.34 527.81 410.826 527.037 414.523C527.079 414.404 528.453 410.589 532.924 410.302C533.461 410.99 533.975 411.653 534.464 412.294C529.121 415.416 530.165 419.598 530.165 419.598C529.916 414.532 534.781 412.729 534.793 412.725C535.207 413.269 535.605 413.797 535.985 414.308C533.298 418.656 535.103 421.919 535.171 422.036C533.735 418.8 535.55 415.678 536.248 414.661C537.225 415.981 538.091 417.19 538.859 418.298C538.856 418.301 536.926 421.227 538.866 423.855C538.866 423.855 537.186 421.263 539.121 418.677C543.555 425.127 544.552 428.013 544.732 429.206C544.755 429.191 544.779 429.175 544.801 429.158C544.802 429.157 544.802 429.157 544.803 429.156C544.858 429.113 544.913 429.061 544.963 428.999C544.96 428.984 544.958 428.967 544.955 428.951Z" fill="#FBB5A5"/>
<path d="M544.244 422.845C544.217 422.764 543.988 422.086 543.492 421.162C543.825 421.697 544.088 422.262 544.244 422.845Z" fill="#FBB5A5"/>
<path d="M515.993 414.51C514.158 407.016 507.644 412.348 507.644 412.348C506.97 413.607 506.591 413.361 506.591 413.361C506.545 413.385 506.502 413.404 506.463 413.419C506.42 413.437 506.382 413.448 506.348 413.456C506.347 413.456 506.346 413.456 506.346 413.457C506.179 413.494 506.114 413.429 506.091 413.351C506.078 413.306 506.078 413.255 506.083 413.221C506.084 413.195 506.088 413.179 506.088 413.179C498.943 406.557 494.485 416.625 494.485 416.625C490.282 421.555 493.609 428.094 493.609 428.094C494.317 429.902 493.762 430.597 493.762 430.597C493.575 431.769 493.696 432.455 493.931 432.853C493.965 432.913 494.004 432.967 494.043 433.014C494.057 433.029 494.069 433.044 494.082 433.058C494.083 433.059 494.083 433.059 494.084 433.06C494.124 433.102 494.165 433.139 494.207 433.17C494.229 433.187 494.253 433.204 494.277 433.218C494.691 433.481 495.169 433.336 495.169 433.336C494.436 432.691 494.696 432.212 495.291 431.868C495.292 431.868 495.292 431.868 495.292 431.868C496.237 431.321 498.024 431.113 498.024 431.113C505.712 430.089 506.744 427.26 506.744 427.26C509.69 427.603 511.226 425.019 511.226 425.019C511.221 424.518 512.088 423.695 512.088 423.695C516.993 420.072 515.993 414.51 515.993 414.51ZM495.392 425.063C494.897 425.988 494.667 426.666 494.64 426.747C494.796 426.163 495.06 425.599 495.392 425.063Z" fill="#FDDAD2"/>
<path opacity="0.1" d="M500.585 412.666C500.673 412.642 503.613 411.862 505.89 413.607C505.863 413.642 505.834 413.677 505.806 413.713C505.632 413.935 505.439 414.183 505.23 414.453C505.23 414.453 503.556 413.945 501.662 413.945C500.402 413.945 499.045 414.171 498.019 414.92C498.097 414.882 501.061 413.443 504.944 414.821C504.48 415.424 503.949 416.12 503.378 416.882C503.378 416.882 498.206 416.048 494.952 419.804C495.042 419.714 498.259 416.564 503.11 417.24C502.963 417.437 502.814 417.638 502.664 417.842C502.663 417.842 502.663 417.842 502.663 417.842L502.646 417.864C502.564 417.977 502.48 418.091 502.396 418.206L502.386 418.219C502.069 418.651 501.744 419.097 501.415 419.555C498.191 420.713 496.323 423.324 495.392 425.063C495.06 425.599 494.796 426.163 494.64 426.747C494.667 426.665 494.897 425.988 495.392 425.063C497.194 422.159 501.037 420.083 501.037 420.083C497.835 424.579 494.403 429.94 493.931 432.853C493.696 432.455 493.575 431.769 493.762 430.597C493.762 430.597 494.317 429.902 493.609 428.094C493.609 428.094 490.282 421.555 494.485 416.625C494.485 416.625 498.943 406.557 506.088 413.179C506.088 413.179 506.084 413.195 506.083 413.221C506.078 413.255 506.078 413.306 506.091 413.351C506.085 413.36 506.078 413.368 506.072 413.376C505.456 412.949 502.974 411.419 500.585 412.666Z" fill="black"/>
<path d="M494.639 426.747C494.795 426.163 495.059 425.599 495.39 425.063C494.896 425.988 494.666 426.666 494.639 426.747Z" fill="#FDDAD2"/>
<path d="M495.042 433.236C495.042 433.236 494.508 433.391 494.082 433.059C494.259 432.177 494.774 431.87 495.181 431.769C494.582 432.106 494.316 432.582 495.042 433.236Z" fill="#FA9178"/>
<path d="M511.021 414.072C512.322 414.473 512.979 414.921 512.979 414.921C512.582 414.525 511.86 414.255 511.021 414.072Z" fill="#FBB5A5"/>
<path d="M511.851 418.425C511.076 414.728 506.947 414.242 505.982 414.18C506.105 414.021 506.23 413.862 506.357 413.702C507.326 413.691 509.392 413.718 511.021 414.073C509.959 413.745 508.467 413.45 506.551 413.455C506.553 413.452 506.556 413.448 506.559 413.444C506.547 413.449 506.537 413.452 506.527 413.455C506.468 413.456 506.41 413.456 506.35 413.456C506.349 413.456 506.348 413.456 506.347 413.457C506.313 413.457 506.278 413.457 506.243 413.458C506.172 413.405 506.172 413.3 506.18 413.242C506.152 413.278 506.123 413.314 506.093 413.351C506.087 413.36 506.08 413.368 506.074 413.376C505.458 412.95 502.975 411.419 500.586 412.667C500.675 412.642 503.615 411.862 505.892 413.607C505.864 413.642 505.836 413.678 505.808 413.713C505.634 413.935 505.44 414.183 505.231 414.453C505.231 414.453 503.558 413.945 501.664 413.945C500.404 413.945 499.046 414.171 498.021 414.92C498.099 414.882 501.062 413.444 504.946 414.821C504.481 415.424 503.951 416.12 503.38 416.882C503.38 416.882 498.208 416.048 494.954 419.804C495.044 419.714 498.26 416.564 503.112 417.24C502.965 417.437 502.816 417.638 502.666 417.842C502.665 417.842 502.665 417.842 502.665 417.842L502.648 417.865C502.565 417.978 502.481 418.091 502.397 418.206L502.388 418.219C502.071 418.652 501.745 419.097 501.417 419.555C498.193 420.714 496.324 423.324 495.393 425.063C497.196 422.159 501.038 420.084 501.038 420.084C497.836 424.579 494.405 429.94 493.932 432.853C493.929 432.869 493.926 432.885 493.924 432.901C493.974 432.963 494.028 433.015 494.084 433.058C494.085 433.059 494.085 433.059 494.086 433.06C494.108 433.077 494.131 433.093 494.155 433.108C494.335 431.915 495.332 429.029 499.766 422.579C501.701 425.165 500.022 427.757 500.022 427.757C501.96 425.129 500.03 422.203 500.028 422.2C500.795 421.092 501.662 419.883 502.639 418.563C503.337 419.58 505.152 422.702 503.716 425.938C503.784 425.821 505.589 422.557 502.901 418.21C503.282 417.699 503.68 417.171 504.094 416.626C504.105 416.63 508.971 418.434 508.721 423.5C508.721 423.5 509.765 419.318 504.422 416.195C504.913 415.555 505.426 414.891 505.963 414.204C510.434 414.49 511.808 418.306 511.851 418.425Z" fill="#FBB5A5"/>
<path d="M495.392 425.063C494.898 425.988 494.668 426.665 494.641 426.747C494.797 426.163 495.06 425.599 495.392 425.063Z" fill="#FBB5A5"/>
<path d="M518.696 393.035C517.134 386.656 511.591 391.194 511.591 391.194C511.017 392.266 510.695 392.057 510.695 392.057C510.655 392.077 510.618 392.093 510.586 392.106C510.549 392.12 510.516 392.131 510.487 392.137C510.486 392.137 510.486 392.137 510.485 392.138C510.343 392.17 510.287 392.113 510.268 392.049V392.048C510.256 392.009 510.257 391.966 510.261 391.937C510.263 391.916 510.266 391.902 510.266 391.902C504.184 386.265 500.389 394.834 500.389 394.834C496.812 399.031 499.644 404.596 499.644 404.596C500.247 406.135 499.774 406.727 499.774 406.727C499.615 407.726 499.718 408.31 499.917 408.648C499.948 408.699 499.98 408.744 500.014 408.784C500.024 408.797 500.035 408.809 500.045 408.821C500.046 408.821 500.046 408.822 500.047 408.822C500.081 408.859 500.116 408.89 500.153 408.918C500.172 408.932 500.192 408.946 500.212 408.958C500.565 409.182 500.971 409.059 500.971 409.059C500.347 408.509 500.57 408.102 501.076 407.809C501.077 407.809 501.077 407.809 501.077 407.809C501.881 407.344 503.402 407.166 503.402 407.166C509.945 406.295 510.824 403.887 510.824 403.887C513.332 404.18 514.639 401.98 514.639 401.98C514.634 401.553 515.373 400.853 515.373 400.853C519.547 397.769 518.696 393.035 518.696 393.035ZM501.161 402.017C500.754 402.778 500.557 403.343 500.524 403.442C500.658 402.947 500.881 402.47 501.161 402.017Z" fill="#FDDAD2"/>
<path d="M500.518 403.457C500.519 403.455 500.519 403.45 500.522 403.442C500.52 403.447 500.519 403.452 500.518 403.457Z" fill="#FDDAD2"/>
<path d="M500.523 403.442C500.657 402.947 500.88 402.47 501.161 402.018C500.753 402.778 500.557 403.343 500.523 403.442Z" fill="#FDDAD2"/>
<path opacity="0.1" d="M510.268 392.048V392.049C510.263 392.056 510.257 392.063 510.251 392.07C509.728 391.706 507.614 390.404 505.581 391.465C505.657 391.445 508.16 390.781 510.097 392.266C510.074 392.296 510.05 392.326 510.026 392.357C509.878 392.545 509.713 392.757 509.535 392.986C509.535 392.986 508.11 392.554 506.498 392.554C505.426 392.554 504.271 392.745 503.399 393.383C503.505 393.331 506.014 392.137 509.292 393.3C508.896 393.813 508.445 394.406 507.959 395.054C507.959 395.054 503.562 394.345 500.792 397.535C500.942 397.388 503.661 394.791 507.731 395.358C507.606 395.526 507.48 395.697 507.351 395.871L507.336 395.891C507.266 395.986 507.195 396.083 507.122 396.18L507.114 396.192C506.844 396.56 506.567 396.94 506.288 397.329H506.287C503.544 398.316 501.954 400.537 501.161 402.018C500.881 402.47 500.658 402.947 500.524 403.442C500.557 403.343 500.754 402.778 501.161 402.018C502.696 399.545 505.966 397.779 505.966 397.779C503.24 401.607 500.32 406.17 499.917 408.648C499.718 408.311 499.615 407.726 499.774 406.727C499.774 406.727 500.247 406.136 499.644 404.597C499.644 404.597 496.812 399.032 500.389 394.835C500.389 394.835 504.184 386.266 510.266 391.902C510.266 391.902 510.263 391.916 510.261 391.938C510.257 391.967 510.256 392.009 510.268 392.048Z" fill="black"/>
<path d="M500.866 408.974C500.866 408.974 500.411 409.106 500.049 408.823C500.2 408.072 500.638 407.811 500.984 407.725C500.475 408.012 500.248 408.417 500.866 408.974Z" fill="#FA9178"/>
<path d="M514.463 392.662C515.57 393.004 516.129 393.385 516.129 393.385C515.791 393.047 515.176 392.818 514.463 392.662Z" fill="#FBB5A5"/>
<path d="M515.17 396.367C514.512 393.22 510.997 392.807 510.175 392.754C510.28 392.619 510.388 392.483 510.494 392.347C511.319 392.338 513.078 392.36 514.464 392.662C513.56 392.384 512.29 392.133 510.659 392.137C510.662 392.134 510.664 392.131 510.666 392.128C510.657 392.131 510.649 392.134 510.64 392.137C510.589 392.138 510.539 392.138 510.489 392.138C510.488 392.138 510.487 392.138 510.486 392.139C510.457 392.139 510.427 392.139 510.397 392.139C510.337 392.094 510.338 392.005 510.343 391.955C510.319 391.985 510.295 392.017 510.269 392.048V392.049C510.264 392.056 510.259 392.063 510.253 392.07C509.729 391.706 507.616 390.404 505.583 391.465C505.658 391.446 508.161 390.781 510.098 392.267C510.075 392.296 510.051 392.326 510.027 392.357C509.88 392.545 509.714 392.757 509.536 392.986C509.536 392.986 508.111 392.554 506.5 392.554C505.428 392.554 504.273 392.745 503.4 393.383C503.506 393.332 506.015 392.137 509.294 393.3C508.898 393.813 508.446 394.406 507.96 395.054C507.96 395.054 503.563 394.345 500.793 397.535C500.944 397.388 503.662 394.791 507.732 395.359C507.608 395.526 507.481 395.697 507.352 395.871L507.338 395.891C507.267 395.986 507.196 396.083 507.124 396.18L507.115 396.192C506.845 396.56 506.569 396.94 506.289 397.329H506.288C503.546 398.316 501.955 400.538 501.163 402.018C502.697 399.545 505.967 397.779 505.967 397.779C503.241 401.607 500.321 406.17 499.919 408.648C499.916 408.662 499.914 408.675 499.912 408.688C499.954 408.741 499.999 408.784 500.046 408.821C500.047 408.821 500.047 408.822 500.048 408.823C500.049 408.823 500.049 408.823 500.05 408.824C500.069 408.839 500.088 408.852 500.108 408.864C500.261 407.849 501.11 405.393 504.884 399.903C506.466 402.017 505.211 404.135 505.109 404.3C506.747 402.066 505.11 399.583 505.107 399.58C505.761 398.637 506.498 397.608 507.33 396.485C507.923 397.35 509.469 400.008 508.246 402.762C508.304 402.662 509.84 399.883 507.553 396.184C507.877 395.749 508.216 395.299 508.568 394.835C508.578 394.84 512.72 396.374 512.507 400.686C512.507 400.686 513.395 397.127 508.848 394.469C509.264 393.923 509.702 393.359 510.159 392.774C513.965 393.018 515.135 396.266 515.17 396.367Z" fill="#FBB5A5"/>
<path d="M500.521 403.458C500.522 403.455 500.523 403.451 500.526 403.442C500.524 403.448 500.522 403.452 500.521 403.458Z" fill="#FBB5A5"/>
<path d="M501.163 402.018C500.755 402.778 500.558 403.344 500.525 403.443C500.659 402.948 500.882 402.47 501.163 402.018Z" fill="#FBB5A5"/>
<path d="M537.003 385.105C537.003 385.105 536.635 374.055 527.494 377.533C527.494 377.533 527.491 377.55 527.484 377.575C527.475 377.608 527.457 377.656 527.427 377.693C527.376 377.756 527.291 377.793 527.149 377.694C527.12 377.674 527.088 377.648 527.054 377.616C527.023 377.588 526.992 377.554 526.957 377.514C526.957 377.514 526.512 377.601 526.358 376.174C526.358 376.174 522.296 368.761 517.772 375.049C517.772 375.049 514.751 379.851 517.956 385.069C517.956 385.069 518.455 386.161 518.262 386.626C518.262 386.626 518.721 389.609 521.593 390.397C521.593 390.397 521.491 393.42 528.264 397.264C528.264 397.264 529.85 398.13 530.523 398.994C530.523 398.994 530.523 398.994 530.524 398.994C530.949 399.538 531.012 400.082 530.087 400.408C530.087 400.408 530.477 400.721 530.962 400.632C530.99 400.628 531.017 400.622 531.045 400.614C531.097 400.6 531.15 400.582 531.203 400.557C531.204 400.556 531.205 400.556 531.206 400.555C531.222 400.548 531.24 400.539 531.256 400.53C531.311 400.501 531.366 400.466 531.422 400.422C531.789 400.14 532.16 399.547 532.426 398.385C532.426 398.385 532.171 397.53 533.509 396.113C533.509 396.113 539.063 391.276 537.003 385.105ZM533.054 394.48C533.054 394.48 533.109 393.738 532.988 392.62C533.097 393.247 533.13 393.874 533.054 394.48Z" fill="#FDDAD2"/>
<path d="M532.988 392.62C533.097 393.247 533.13 393.874 533.055 394.48C533.055 394.48 533.109 393.738 532.988 392.62Z" fill="#FDDAD2"/>
<path opacity="0.1" d="M533.508 396.112C532.169 397.529 532.425 398.385 532.425 398.385C532.159 399.547 531.788 400.14 531.421 400.422C532.075 397.532 530.894 391.251 529.602 385.862C529.602 385.862 532.4 389.238 532.987 392.62C533.108 393.738 533.053 394.48 533.053 394.48C533.129 393.874 533.096 393.247 532.987 392.62C532.773 390.652 532.014 387.518 529.449 385.227C529.315 384.678 529.18 384.14 529.047 383.619L529.043 383.602C529.007 383.464 528.972 383.327 528.937 383.191L528.93 383.163C528.865 382.916 528.802 382.673 528.74 382.435C533.429 383.608 535.258 387.629 535.368 387.879C533.746 383.167 528.626 382 528.626 382L528.633 382.031C528.385 381.094 528.149 380.237 527.941 379.493C532.064 379.671 534.284 382.113 534.352 382.189C533.51 380.833 531.876 380.047 530.453 379.599C529.028 379.152 527.814 379.043 527.814 379.043C527.72 378.713 527.633 378.409 527.555 378.137C527.542 378.093 527.529 378.049 527.517 378.007C530.298 377.237 532.747 379.078 532.81 379.126C531.055 377.065 528.168 377.557 527.435 377.724C527.432 377.713 527.429 377.703 527.426 377.693C527.456 377.656 527.474 377.608 527.483 377.575C527.49 377.551 527.493 377.533 527.493 377.533C536.634 374.055 537.002 385.105 537.002 385.105C539.062 391.276 533.508 396.112 533.508 396.112Z" fill="black"/>
<path d="M530.242 400.36C530.242 400.36 530.681 400.706 531.202 400.557C531.369 399.668 531.006 399.189 530.664 398.942C531.095 399.482 531.164 400.025 530.242 400.36Z" fill="#FA9178"/>
<path d="M522.567 376.511C521.205 376.396 520.426 376.566 520.426 376.566C520.944 376.346 521.718 376.366 522.567 376.511Z" fill="#FBB5A5"/>
<path d="M535.37 387.879C533.748 383.167 528.627 382 528.627 382L528.635 382.031C528.387 381.094 528.151 380.237 527.943 379.493C532.066 379.671 534.286 382.113 534.354 382.189C533.511 380.833 531.877 380.047 530.454 379.599C529.03 379.152 527.816 379.043 527.816 379.043C527.722 378.712 527.635 378.409 527.557 378.137C527.544 378.092 527.531 378.049 527.519 378.007C530.3 377.237 532.749 379.078 532.812 379.126C531.057 377.065 528.17 377.557 527.437 377.724C527.433 377.713 527.431 377.703 527.428 377.693C527.414 377.647 527.401 377.601 527.388 377.558C527.373 377.615 527.334 377.713 527.248 377.736C527.215 377.721 527.183 377.707 527.149 377.694C527.094 377.672 527.039 377.649 526.984 377.627C526.975 377.619 526.968 377.613 526.959 377.604C526.959 377.608 526.961 377.613 526.962 377.618C525.18 376.892 523.68 376.606 522.568 376.511C524.218 376.793 526.151 377.545 527.05 377.92C527.107 378.116 527.163 378.312 527.22 378.506C526.298 378.201 522.27 377.1 520.16 380.252C520.228 380.174 522.945 377.116 527.228 378.535C527.47 379.377 527.699 380.187 527.914 380.968C521.863 381.853 521.187 386.02 521.168 386.149C522.84 381.342 528.046 381.492 528.058 381.493C528.239 382.156 528.411 382.797 528.573 383.416C524.361 386.509 524.911 390.309 524.911 390.309C524.789 386.754 527.653 384.528 528.685 383.844C529.099 385.439 529.451 386.891 529.75 388.211C529.746 388.214 526.852 390.211 527.666 393.385C527.646 393.276 527.129 390.311 529.851 388.663C531.555 396.335 531.399 399.398 531.12 400.576C531.146 400.571 531.175 400.565 531.202 400.557C531.203 400.557 531.203 400.557 531.204 400.557C531.205 400.556 531.205 400.556 531.206 400.555C531.273 400.537 531.342 400.508 531.412 400.47C531.416 400.454 531.42 400.438 531.423 400.422C532.077 397.532 530.896 391.251 529.604 385.862C529.604 385.862 532.402 389.238 532.989 392.62C532.775 390.652 532.016 387.517 529.451 385.227C529.317 384.677 529.182 384.14 529.049 383.618L529.045 383.602C529.009 383.464 528.974 383.326 528.939 383.191L528.932 383.163C528.867 382.915 528.804 382.673 528.742 382.435C533.431 383.608 535.26 387.629 535.37 387.879Z" fill="#FBB5A5"/>
<path d="M533.055 394.48C533.055 394.48 533.11 393.738 532.988 392.62C533.097 393.247 533.13 393.874 533.055 394.48Z" fill="#FBB5A5"/>
</svg>
