<svg width="466" height="479" viewBox="0 0 466 479" fill="none" xmlns="http://www.w3.org/2000/svg">
<path d="M240.701 479C355.9 479 449.287 474.65 449.287 469.284C449.287 463.919 355.9 459.569 240.701 459.569C125.502 459.569 32.1152 463.919 32.1152 469.284C32.1152 474.65 125.502 479 240.701 479Z" fill="#263238"/>
<path d="M381.926 22.0523C383.417 24.5521 388.805 28.2178 388.805 28.2283C388.805 28.2388 390.15 23.9429 390.202 23.6594C390.77 20.3928 389.961 13.7442 386.684 12.0112C386.13 11.7357 385.525 11.5802 384.908 11.5547C384.29 11.5293 383.674 11.6346 383.1 11.8636C382.526 12.0926 382.007 12.4403 381.576 12.8838C381.146 13.3273 380.814 13.8568 380.602 14.4374C379.625 16.8742 380.655 19.9307 381.926 22.0523Z" fill="#263238"/>
<path d="M434.737 61.545C434.737 61.608 438.213 58.7091 438.413 58.499C440.692 56.0937 443.664 50.0963 441.91 46.8508C441.6 46.317 441.181 45.8547 440.68 45.4939C440.179 45.1332 439.607 44.8822 439.003 44.7573C438.398 44.6324 437.774 44.6364 437.171 44.7691C436.568 44.9018 436 45.1602 435.503 45.5274C433.34 47.0084 432.51 50.1279 432.352 52.6066C432.258 55.5056 434.737 61.545 434.737 61.545Z" fill="#263238"/>
<path d="M372.78 38.7316C374.796 40.6642 380.51 42.6704 380.962 42.8279C379.808 46.0805 378.874 49.4071 378.168 52.7851C377.737 54.7492 377.37 56.7553 377.023 58.7615C377.023 57.8267 377.023 56.9759 377.023 56.8604C376.718 53.5623 374.187 47.4074 370.553 46.5566C369.944 46.4345 369.317 46.4424 368.712 46.5799C368.107 46.7173 367.538 46.9812 367.042 47.3541C366.546 47.7271 366.134 48.2007 365.834 48.7438C365.534 49.287 365.353 49.8875 365.301 50.5059C364.997 53.1107 366.793 55.7575 368.578 57.5011C370.364 59.2446 375.227 61.0512 376.519 61.5133C376.393 62.2906 376.256 63.0573 376.141 63.8346C375.563 67.5423 374.996 71.1869 374.334 74.8631C374.103 76.134 373.83 77.3839 373.557 78.6233C373.557 77.7935 373.557 77.0898 373.557 76.9848C373.252 73.6762 370.721 67.5318 367.097 66.6705C366.489 66.5501 365.862 66.5593 365.258 66.6974C364.653 66.8356 364.085 67.0996 363.589 67.4722C363.094 67.8448 362.682 68.3178 362.382 68.8601C362.082 69.4024 361.899 70.002 361.846 70.6197C361.541 73.2246 363.337 75.8714 365.123 77.6255C366.908 79.3795 371.309 80.997 372.832 81.5537C372.517 82.8141 372.202 84.0955 371.834 85.3034C371.572 86.1332 371.372 86.9419 371.057 87.7612L370.175 90.1665C369.566 91.6789 368.946 93.2439 368.305 94.7039C367.875 95.7542 367.444 96.689 367.013 97.6553C367.255 96.3949 367.685 93.9056 367.696 93.6956C367.895 90.387 366.33 83.875 362.864 82.5305C362.281 82.3238 361.661 82.2426 361.044 82.2923C360.428 82.342 359.828 82.5215 359.286 82.819C358.743 83.1165 358.27 83.5254 357.897 84.0187C357.523 84.512 357.258 85.0787 357.119 85.6815C356.415 88.2128 357.791 91.1328 359.293 93.0969C360.953 95.2606 366.078 98.0229 366.719 98.3486C365.994 99.9451 365.28 101.5 364.618 102.96C362.602 107.161 360.732 110.763 359.241 113.463L361.268 114.912C362.728 112.087 364.597 108.337 366.614 103.863C367.36 102.245 368.116 100.491 368.872 98.6847C370.693 99.1357 372.538 99.4863 374.397 99.735C374.744 102.508 377.306 107.297 377.643 107.917C376.151 108.862 374.702 109.755 373.315 110.585C369.366 112.959 365.9 114.87 363.18 116.32L365.385 117.895C367.927 116.446 371.015 114.639 374.46 112.465C375.983 111.509 377.611 110.469 379.208 109.377C379.691 109.902 383.672 114.167 386.182 115.227C388.472 116.194 391.644 116.782 393.912 115.469C394.456 115.177 394.932 114.774 395.309 114.286C395.687 113.799 395.958 113.237 396.104 112.638C396.251 112.039 396.27 111.415 396.16 110.808C396.05 110.201 395.814 109.624 395.467 109.114C393.293 106.1 386.591 106.237 383.44 107.255C383.251 107.318 381.34 108.201 380.09 108.778C380.762 108.337 381.403 107.907 382.086 107.434C383.43 106.52 384.753 105.564 386.171 104.535L388.198 102.96C388.881 102.455 389.543 101.825 390.236 101.258C391.791 99.8925 393.303 98.4431 394.795 96.9516C395.603 98.128 398.534 102.266 400.655 103.569C402.777 104.871 405.813 105.921 408.249 104.966C408.832 104.762 409.365 104.438 409.813 104.014C410.262 103.59 410.616 103.076 410.852 102.506C411.088 101.936 411.201 101.322 411.183 100.705C411.165 100.088 411.017 99.482 410.749 98.9262C409.058 95.6282 402.42 94.7249 399.143 95.2711C398.943 95.2711 396.643 95.9538 395.383 96.3214C396.265 95.4076 397.158 94.5148 398.03 93.5695C400.54 90.8387 402.998 87.9923 405.466 85.1669L407.745 82.5935C408.029 83.0137 411.4 88.0133 413.774 89.4732C415.875 90.7651 418.942 91.826 421.379 90.8702C421.959 90.6639 422.49 90.338 422.937 89.9136C423.383 89.4892 423.736 88.9757 423.971 88.4064C424.207 87.8371 424.321 87.2246 424.304 86.6087C424.288 85.9927 424.143 85.387 423.878 84.8308C422.187 81.5222 415.549 80.6294 412.272 81.1756C412.031 81.1756 408.711 82.1524 407.882 82.436C409.552 80.5454 411.243 78.6863 412.976 76.9112C415.342 74.513 417.861 72.271 420.517 70.1996C420.654 70.3992 424.151 75.6298 426.588 77.1213C428.689 78.4132 431.745 79.4741 434.193 78.5182C434.774 78.3133 435.306 77.9882 435.754 77.5641C436.201 77.1399 436.554 76.6262 436.79 76.0564C437.026 75.4867 437.139 74.8736 437.122 74.2572C437.106 73.6408 436.959 73.0348 436.692 72.4788C434.991 69.1808 428.353 68.2775 425.086 68.8237C424.866 68.8237 422.345 69.5799 421.147 69.9475L421.053 69.7585C423.749 67.7348 426.621 65.9561 429.634 64.4438C431.283 63.5825 432.901 62.8683 434.497 62.1961C435.054 63.2464 437.648 67.9624 439.665 69.5484C441.681 71.1344 444.538 72.4578 447.07 71.7751C447.671 71.6371 448.236 71.3736 448.729 71.0019C449.221 70.6303 449.629 70.1588 449.927 69.6184C450.224 69.0779 450.404 68.4808 450.455 67.866C450.505 67.2512 450.426 66.6326 450.221 66.0508C448.897 62.5742 442.396 60.9672 439.087 61.1457C438.909 61.1457 437.081 61.4503 435.758 61.6919C436.482 61.3978 437.228 61.0827 437.932 60.8201C440.547 59.7698 443.015 59.0661 445.2 58.4149C446.45 58.0578 447.584 57.7532 448.645 57.4801C449.695 58.2258 454.096 61.1457 456.586 61.6079C459.075 62.07 462.247 61.944 464.18 60.1689C464.648 59.7683 465.027 59.2736 465.292 58.7168C465.557 58.1601 465.701 57.5538 465.716 56.9375C465.731 56.3212 465.616 55.7087 465.378 55.1399C465.141 54.571 464.786 54.0585 464.337 53.6358C461.564 51.1676 455.052 52.7326 452.195 54.4131C451.954 54.5601 448.351 57.27 448.404 57.312H448.467C447.416 57.5536 446.366 57.8267 445.137 58.1418C442.931 58.7405 440.442 59.4442 437.785 60.3895C434.92 61.3841 432.115 62.5413 429.382 63.8556C426.278 65.3282 423.311 67.0752 420.517 69.0758L420.423 69.1493C421.063 68.2775 422.796 65.7672 422.901 65.5571C424.466 62.6372 425.779 56.1041 423.196 53.3943C422.754 52.9642 422.228 52.6316 421.65 52.4179C421.072 52.2043 420.456 52.1143 419.841 52.1539C419.226 52.1936 418.626 52.3618 418.081 52.6478C417.535 52.9339 417.055 53.3313 416.673 53.8144C414.982 55.8205 415.003 59.0661 415.539 61.4608C416.158 64.1917 419.813 69.0127 420.108 69.4014C417.342 71.4871 414.717 73.7537 412.251 76.1865C410.812 77.594 409.405 79.0644 408.05 80.5454C408.585 79.7787 409.1 79.0749 409.1 78.9804C410.665 76.05 411.978 69.5274 409.394 66.807C408.953 66.377 408.426 66.0444 407.849 65.8307C407.271 65.6171 406.654 65.5271 406.039 65.5667C405.425 65.6063 404.825 65.7746 404.279 66.0606C403.734 66.3466 403.254 66.7441 402.872 67.2272C401.17 69.2333 401.202 72.4788 401.737 74.8736C402.273 77.2684 405.329 81.5012 406.149 82.604C405.613 83.1712 405.098 83.7489 404.552 84.3266C402.031 87.0995 399.521 89.8724 396.969 92.5297C396.076 93.4645 395.152 94.3468 394.238 95.2396C394.711 94.5463 395.11 93.9687 395.162 93.8741C396.727 90.9437 398.03 84.4211 395.446 81.7113C395.006 81.2791 394.48 80.9444 393.903 80.7289C393.325 80.5135 392.708 80.4221 392.093 80.4607C391.478 80.4994 390.877 80.6672 390.331 80.9532C389.785 81.2393 389.305 81.6371 388.923 82.1209C387.232 84.127 387.253 87.3726 387.799 89.7673C388.346 92.1621 391.087 95.9958 392.001 97.2982C391.045 98.1805 390.079 99.0733 389.102 99.882C388.419 100.428 387.81 100.995 387.096 101.5L384.995 103.023C383.651 103.947 382.264 104.913 380.93 105.774C380.006 106.384 379.113 106.951 378.22 107.528C379.124 106.604 380.857 104.766 380.983 104.598C382.643 102.199 383.663 99.4148 383.945 96.5105C384.142 96.2543 384.314 95.98 384.459 95.6912C384.753 95.1478 384.929 94.5487 384.976 93.9329C385.023 93.317 384.939 92.6982 384.731 92.1167C384.523 91.5351 384.195 91.0039 383.768 90.5575C383.341 90.1111 382.825 89.7596 382.254 89.5258C378.777 88.2233 373.273 92.0256 371.204 94.6199C371.078 94.7669 369.944 96.584 369.25 97.7709C369.555 97.0251 369.86 96.3109 370.175 95.5442C370.784 94.0317 371.362 92.5087 371.981 90.8702C372.244 90.0719 372.527 89.2632 372.801 88.4439C373.074 87.6246 373.294 86.7529 373.557 85.8916C374.103 83.9065 374.607 81.8583 374.985 79.7892C376.309 80.3248 381.035 82.1629 383.524 82.0789C386.014 81.9949 389.217 81.1441 390.73 79.0434C391.102 78.5514 391.366 77.9865 391.505 77.3856C391.645 76.7846 391.656 76.1611 391.538 75.5556C391.42 74.9501 391.175 74.3763 390.821 73.8715C390.466 73.3667 390.009 72.9422 389.48 72.6259C386.245 70.7983 380.216 73.6762 377.79 75.9764C377.632 76.1235 376.067 77.9301 375.227 78.9489C375.479 77.699 375.72 76.4596 375.931 75.1887C376.519 71.523 376.981 67.8364 377.496 64.0867C377.643 62.9418 377.811 61.8179 377.968 60.6836C378.441 60.8726 384.008 63.1834 386.802 63.0888C389.27 63.0048 392.4 62.2066 393.912 60.0639C394.283 59.5704 394.546 59.0047 394.684 58.4032C394.823 57.8018 394.833 57.178 394.716 56.5721C394.598 55.9663 394.354 55.3919 394.001 54.8862C393.647 54.3804 393.191 53.9544 392.662 53.6358C389.427 51.8188 383.398 54.7492 380.972 56.9969C380.783 57.165 378.535 59.7803 378 60.4735C378.357 57.9737 378.735 55.4844 379.208 53.0582C379.809 49.7659 380.626 46.5168 381.655 43.3321C381.875 43.4266 387.673 45.8529 390.53 45.7583C392.998 45.6743 396.128 44.8761 397.641 42.7334C398.013 42.2414 398.277 41.6765 398.417 41.0756C398.556 40.4746 398.567 39.851 398.449 39.2455C398.331 38.6401 398.087 38.0662 397.732 37.5614C397.378 37.0566 396.921 36.6322 396.391 36.3158C393.156 34.4988 387.127 37.4187 384.701 39.6664C384.543 39.8134 382.821 41.7671 382.033 42.8174L381.844 42.7124C382.971 39.5378 384.377 36.4693 386.045 33.543C386.949 31.9254 387.904 30.392 388.86 28.9845C389.91 29.5517 394.658 32.0725 397.263 32.2721C399.868 32.4716 402.935 32.0095 404.668 30.0453C405.091 29.5965 405.416 29.0635 405.62 28.4811C405.824 27.8987 405.904 27.2798 405.853 26.6647C405.803 26.0496 405.623 25.452 405.327 24.9107C405.03 24.3694 404.623 23.8965 404.132 23.5228C401.118 21.3591 394.805 23.6068 392.137 25.6234C391.99 25.7285 390.635 26.9784 389.669 27.9132C390.11 27.2725 390.562 26.6003 390.992 25.9911C392.631 23.7118 394.269 21.7162 395.74 19.9726C396.58 18.9853 397.357 18.103 398.093 17.2943C399.406 17.2943 404.657 17.2943 406.989 16.349C409.321 15.4037 411.904 13.5026 412.535 10.9608C412.704 10.3679 412.747 9.74598 412.661 9.13543C412.574 8.52488 412.36 7.93944 412.032 7.41724C411.704 6.89503 411.269 6.44777 410.757 6.10461C410.245 5.76144 409.666 5.53005 409.058 5.42552C405.382 4.90035 400.813 9.79491 399.363 12.7779C399.237 13.0299 397.725 17.2838 397.798 17.2838H397.872C397.147 18.0505 396.381 18.8908 395.551 19.8151C394.049 21.5271 392.4 23.4913 390.667 25.7495C388.818 28.1591 387.11 30.6736 385.552 33.2804C383.791 36.1929 382.297 39.2583 381.088 42.4393C381.082 42.4776 381.082 42.5165 381.088 42.5548C381.151 41.5045 381.203 38.427 381.182 38.1854C380.878 34.8874 378.346 28.7324 374.723 27.8817C374.114 27.7596 373.487 27.7675 372.882 27.9049C372.277 28.0424 371.708 28.3062 371.212 28.6792C370.716 29.0521 370.304 29.5257 370.004 30.0689C369.704 30.6121 369.523 31.2125 369.471 31.8309C369.198 34.3307 370.994 37.0301 372.78 38.7316Z" fill="#263238"/>
<path d="M275.443 76.1023C278.174 75.052 282.796 70.483 282.796 70.483C282.796 70.483 278.836 68.3824 278.594 68.2668C275.496 67.101 268.816 66.6703 266.505 69.5797C266.135 70.0721 265.873 70.6368 265.736 71.2371C265.598 71.8374 265.589 72.4599 265.708 73.0641C265.826 73.6684 266.071 74.2409 266.426 74.7444C266.78 75.2479 267.237 75.6712 267.766 75.9868C269.919 77.4047 273.122 76.9426 275.443 76.1023Z" fill="#263238"/>
<path d="M324.001 31.4948C324.075 31.4948 321.901 27.5455 321.691 27.2934C319.748 24.6046 314.412 20.5608 310.883 21.7057C310.302 21.9126 309.771 22.2396 309.324 22.6654C308.878 23.0913 308.527 23.6064 308.293 24.1772C308.059 24.748 307.948 25.3617 307.967 25.9783C307.986 26.5948 308.135 27.2004 308.404 27.7556C309.454 30.1608 312.374 31.5578 314.79 32.125C317.584 32.8287 324.001 31.4948 324.001 31.4948Z" fill="#263238"/>
<path d="M290.138 88.1708C292.417 86.5428 295.442 81.3016 295.684 80.8815C298.677 82.6189 301.782 84.1558 304.979 85.482C306.838 86.2697 308.74 86.9944 310.651 87.7087C309.727 87.5091 308.897 87.3411 308.782 87.3306C305.483 87.026 298.919 88.3809 297.459 91.7945C297.233 92.3682 297.131 92.9829 297.158 93.5987C297.186 94.2145 297.342 94.8177 297.617 95.3693C297.893 95.9208 298.281 96.4084 298.756 96.8004C299.232 97.1924 299.785 97.4801 300.379 97.6448C302.879 98.4221 305.851 97.1512 307.868 95.7122C309.884 94.2733 312.584 89.8303 313.266 88.654L315.472 89.4522C319.012 90.7021 322.551 91.9415 325.975 93.2544C327.183 93.7271 328.349 94.2207 329.526 94.7249C328.717 94.5463 328.024 94.4098 327.919 94.3993C324.61 94.0947 318.056 95.4496 316.596 98.8527C316.367 99.4262 316.261 100.042 316.286 100.659C316.311 101.276 316.466 101.88 316.741 102.433C317.015 102.987 317.403 103.476 317.88 103.868C318.356 104.261 318.91 104.549 319.505 104.714C322.016 105.491 324.978 104.22 326.994 102.781C329.011 101.342 331.448 97.3297 332.246 95.9328C333.433 96.479 334.63 96.9831 335.754 97.6028C336.51 98.0229 337.277 98.3696 338.023 98.8317L340.229 100.134C341.604 101.016 343.022 101.909 344.335 102.802C345.26 103.422 346.131 104.02 347.003 104.63C345.806 104.157 343.443 103.275 343.232 103.222C340.018 102.413 333.328 102.749 331.364 105.911C331.053 106.443 330.858 107.034 330.792 107.647C330.725 108.259 330.788 108.878 330.976 109.465C331.164 110.051 331.473 110.591 331.884 111.05C332.295 111.509 332.797 111.877 333.359 112.129C335.723 113.284 338.842 112.476 341.058 111.362C343.485 110.133 347.15 105.606 347.602 105.06C349.041 106.111 350.438 107.056 351.74 108.012C355.532 110.785 358.693 113.263 361.099 115.238L362.895 113.526C360.384 111.562 357.044 109.03 353.022 106.174C351.562 105.123 349.976 104.073 348.337 103.023C349.114 101.314 349.787 99.5601 350.354 97.7709C353.148 97.9389 358.326 96.3004 358.998 96.0903C359.649 97.7184 360.269 99.3149 360.826 100.838C362.422 105.155 363.661 108.915 364.586 111.856L366.539 109.976C365.594 107.213 364.376 103.842 362.874 100.05C362.223 98.3906 361.498 96.626 360.721 94.7984C361.33 94.4203 366.256 91.3008 367.758 89.0216C369.123 86.9209 370.289 83.938 369.417 81.4697C369.232 80.8813 368.925 80.3385 368.515 79.8769C368.106 79.4152 367.604 79.0449 367.042 78.7902C366.48 78.5356 365.871 78.4021 365.254 78.3987C364.637 78.3953 364.027 78.5219 363.462 78.7703C360.101 80.3458 358.998 86.9524 359.429 90.24C359.429 90.4395 359.954 92.5087 360.3 93.8111C359.985 93.0759 359.681 92.3616 359.345 91.6054C358.693 90.1139 357.99 88.6435 357.244 87.0575C356.866 86.3012 356.467 85.545 356.078 84.7782C355.689 84.0115 355.206 83.2448 354.776 82.457C353.725 80.6819 352.58 78.9279 351.383 77.2053C352.696 76.6276 357.307 74.5165 358.977 72.6679C360.647 70.8193 362.244 68.0359 361.75 65.4626C361.657 64.8525 361.437 64.2688 361.103 63.7496C360.769 63.2304 360.33 62.7874 359.814 62.4495C359.297 62.1115 358.716 61.8862 358.106 61.7882C357.497 61.6903 356.874 61.7219 356.278 61.881C352.717 62.9313 350.616 69.2963 350.543 72.6154C350.543 72.8254 350.753 75.2097 350.889 76.5121C350.165 75.4618 349.45 74.4114 348.684 73.3611C346.457 70.3887 344.125 67.4477 341.804 64.5068C341.09 63.6035 340.386 62.7002 339.703 61.7864C340.166 61.5869 345.701 59.1921 347.57 57.1335C349.23 55.2954 350.837 52.491 350.354 49.9177C350.26 49.3073 350.038 48.7237 349.703 48.2048C349.369 47.686 348.928 47.2436 348.411 46.9066C347.893 46.5695 347.31 46.3455 346.701 46.249C346.091 46.1525 345.467 46.1857 344.871 46.3465C341.321 47.3969 339.22 53.7619 339.147 57.0809C339.147 57.3225 339.451 60.7571 339.567 61.6289C338.023 59.6332 336.5 57.6271 335.082 55.6C333.148 52.8633 331.394 50.0039 329.83 47.0397C330.04 46.9452 335.838 44.4769 337.75 42.3553C339.409 40.5277 341.016 37.7233 340.533 35.15C340.437 34.5402 340.215 33.9573 339.88 33.4389C339.545 32.9206 339.104 32.4783 338.588 32.1407C338.071 31.8032 337.489 31.5778 336.88 31.4792C336.27 31.3806 335.647 31.411 335.05 31.5683C331.49 32.6187 329.4 38.9942 329.326 42.3027C329.326 42.5233 329.547 45.1386 329.694 46.378L329.484 46.4411C327.995 43.4036 326.779 40.2402 325.849 36.988C325.314 35.213 324.904 33.4904 324.537 31.7994C325.671 31.4423 330.786 29.7828 332.729 28.0707C334.672 26.3587 336.489 23.8694 336.279 21.212C336.258 20.5919 336.106 19.9833 335.833 19.4261C335.56 18.8689 335.172 18.3758 334.695 17.979C334.218 17.5823 333.662 17.2909 333.065 17.124C332.467 16.9571 331.841 16.9185 331.227 17.0107C327.572 17.6724 324.799 23.7643 324.358 27.0519C324.358 27.2304 324.284 29.079 324.274 30.4235C324.127 29.6567 323.948 28.869 323.822 28.1337C323.318 25.3609 323.035 22.8085 322.772 20.5398C322.646 19.2374 322.562 18.0715 322.488 16.9792C323.413 16.0549 327.099 12.3052 328.003 9.93145C328.906 7.5577 329.389 4.4277 328.003 2.20099C327.695 1.66626 327.278 1.20237 326.779 0.83955C326.28 0.476733 325.71 0.22314 325.107 0.0953008C324.503 -0.0325387 323.88 -0.0317538 323.277 0.0976046C322.673 0.226963 322.104 0.481989 321.606 0.846061C318.665 3.11478 319.001 9.80541 320.125 12.9249C320.22 13.1875 322.226 17.2313 322.278 17.1893L322.331 17.1262C322.331 18.1766 322.436 19.3214 322.53 20.5503C322.719 22.8296 322.951 25.4134 323.392 28.1968C323.829 31.2035 324.446 34.1813 325.24 37.1141C326.104 40.4038 327.261 43.6096 328.696 46.6931L328.759 46.7982C328.013 45.9999 325.87 43.8467 325.692 43.6472C323.108 41.5465 316.89 39.0677 313.792 41.1159C313.285 41.4685 312.859 41.9239 312.54 42.4524C312.222 42.9809 312.018 43.5706 311.943 44.1831C311.867 44.7956 311.922 45.4171 312.103 46.007C312.284 46.597 312.587 47.1421 312.993 47.6069C314.653 49.6341 317.825 50.2118 320.346 50.1172C323.14 50.0227 328.559 47.3233 328.99 47.1028C330.535 50.2085 332.289 53.2053 334.242 56.0726C335.355 57.7531 336.542 59.4022 337.739 61.0512C337.078 60.379 336.489 59.7908 336.395 59.7173C333.811 57.6166 327.593 55.1378 324.495 57.186C323.988 57.5386 323.562 57.994 323.243 58.5225C322.924 59.051 322.721 59.6407 322.646 60.2532C322.57 60.8657 322.625 61.4872 322.806 62.0771C322.987 62.6671 323.29 63.2122 323.696 63.677C325.356 65.7042 328.528 66.2819 331.049 66.1978C333.569 66.1138 338.222 63.8976 339.451 63.2884C339.924 63.9186 340.376 64.5488 340.848 65.1685C343.106 68.1725 345.375 71.1554 347.507 74.1384C348.264 75.1887 348.967 76.239 349.671 77.2894L348.505 76.1235C345.921 74.0228 339.703 71.5545 336.605 73.5922C336.098 73.9448 335.672 74.4002 335.353 74.9287C335.035 75.4572 334.831 76.0469 334.756 76.6594C334.681 77.2719 334.735 77.8934 334.916 78.4833C335.097 79.0733 335.401 79.6184 335.807 80.0832C337.456 82.1209 340.638 82.6986 343.159 82.604C345.68 82.5095 349.881 80.5034 351.341 79.8102C352.034 80.9235 352.727 82.0369 353.347 83.1397C353.746 83.9065 354.187 84.6207 354.555 85.4084C354.923 86.1962 355.311 86.9524 355.679 87.7192C356.341 89.2106 357.023 90.7441 357.633 92.2146C358.063 93.2649 358.452 94.2207 358.851 95.2081C358.116 94.1577 356.624 92.0571 356.488 91.952C354.435 89.8749 351.887 88.3564 349.083 87.5406C348.868 87.2993 348.629 87.0811 348.369 86.8894C347.888 86.5011 347.331 86.2186 346.734 86.0602C346.137 85.9018 345.514 85.8712 344.904 85.9703C344.294 86.0695 343.712 86.2961 343.196 86.6355C342.68 86.9748 342.242 87.4193 341.909 87.9397C339.987 91.0907 342.697 97.2352 344.871 99.735C344.997 99.882 346.573 101.332 347.57 102.235C346.898 101.794 346.257 101.363 345.564 100.922C344.188 100.04 342.791 99.1888 341.3 98.2855L339.063 97.0251C338.327 96.584 337.487 96.2164 336.699 95.8173C334.84 94.9035 332.918 94.0737 330.965 93.2754C331.731 92.0781 334.41 87.7717 334.788 85.3139C335.166 82.8561 334.956 79.6421 333.128 77.762C332.716 77.3033 332.211 76.9364 331.647 76.6853C331.084 76.4342 330.474 76.3045 329.856 76.3045C329.239 76.3045 328.629 76.4342 328.066 76.6853C327.502 76.9364 326.997 77.3033 326.585 77.762C324.2 80.6084 325.965 87.068 327.73 89.8724C327.835 90.0509 329.337 91.973 330.177 92.9288C328.99 92.4667 327.814 91.994 326.606 91.5529C323.119 90.303 319.547 89.1371 315.987 87.9607L312.731 86.9104C313.004 86.4903 316.302 81.4382 316.722 78.6758C317.09 76.2285 316.89 73.004 315.063 71.1344C314.65 70.6757 314.145 70.3088 313.582 70.0577C313.018 69.8066 312.408 69.6768 311.791 69.6768C311.174 69.6768 310.564 69.8066 310 70.0577C309.436 70.3088 308.932 70.6757 308.519 71.1344C306.135 73.9808 307.899 80.4509 309.664 83.2553C309.79 83.4653 311.943 86.1542 312.531 86.8159C310.136 85.9966 307.763 85.1774 305.462 84.2636C302.345 83.056 299.307 81.6527 296.367 80.0622C296.493 79.8627 299.959 74.6005 300.389 71.7856C300.768 69.3383 300.557 66.1138 298.73 64.2337C298.317 63.775 297.813 63.4081 297.249 63.157C296.685 62.9059 296.075 62.7762 295.458 62.7762C294.841 62.7762 294.231 62.9059 293.667 63.157C293.104 63.4081 292.599 63.775 292.186 64.2337C289.802 67.0801 291.567 73.5397 293.331 76.3441C293.447 76.5331 295.085 78.5813 295.883 79.4951L295.747 79.6631C292.837 77.9613 290.085 76.0034 287.523 73.8128C286.094 72.6259 284.792 71.4075 283.563 70.1996C284.309 69.2858 287.67 65.074 288.332 62.5847C288.993 60.0954 289.13 56.9654 287.512 54.8962C287.151 54.3966 286.688 53.9787 286.154 53.6698C285.62 53.3609 285.027 53.168 284.414 53.1036C283.801 53.0392 283.18 53.1047 282.594 53.296C282.008 53.4872 281.468 53.7999 281.011 54.2135C278.322 56.7868 279.372 63.4039 280.811 66.3869C280.895 66.5444 281.862 68.1094 282.607 69.2333C282.061 68.6766 281.483 68.1199 280.969 67.5738C279.026 65.5466 277.366 63.572 275.927 61.8074C275.108 60.7571 274.394 59.8643 273.721 58.9925C273.994 57.7111 274.992 52.554 274.446 50.0752C273.9 47.5964 272.556 44.7185 270.171 43.6262C269.598 43.3444 268.97 43.1907 268.332 43.1759C267.693 43.161 267.059 43.2854 266.474 43.5402C265.888 43.7951 265.365 44.1743 264.94 44.6517C264.516 45.129 264.201 45.693 264.016 46.3045C262.819 49.8231 266.789 55.2113 269.447 57.1965C269.678 57.3645 273.574 59.6332 273.595 59.5702C273.616 59.5072 273.595 59.5072 273.595 59.4862C274.215 60.3475 274.887 61.2613 275.696 62.2381C277.103 64.0341 278.721 66.0508 280.622 68.1304C282.648 70.3974 284.805 72.5438 287.082 74.5585C289.62 76.8232 292.355 78.8583 295.253 80.6399H295.369C294.318 80.3878 291.325 79.7576 291.094 79.7366C287.796 79.432 281.231 80.787 279.771 84.1901C279.544 84.7644 279.44 85.38 279.467 85.9971C279.493 86.6141 279.649 87.2187 279.925 87.7715C280.2 88.3243 280.589 88.813 281.065 89.2057C281.542 89.5984 282.096 89.8864 282.691 90.0509C285.16 90.8807 288.174 89.6098 290.138 88.1708Z" fill="#263238"/>
<path d="M119.953 390.31C121.907 390.982 125.205 394.207 125.205 394.207C125.205 394.207 122.411 395.772 122.222 395.845C120.027 396.727 115.269 397.137 113.578 395.099C113.309 394.752 113.117 394.353 113.012 393.927C112.907 393.501 112.892 393.058 112.968 392.626C113.044 392.194 113.209 391.782 113.454 391.418C113.698 391.053 114.016 390.744 114.387 390.509C115.994 389.459 118.283 389.732 119.953 390.31Z" fill="#263238"/>
<path d="M155.234 421.389C155.234 421.389 153.764 424.236 153.648 424.404C152.304 426.347 148.554 429.309 146.023 428.542C145.607 428.401 145.226 428.174 144.903 427.877C144.58 427.579 144.323 427.218 144.148 426.816C143.973 426.413 143.884 425.979 143.887 425.54C143.889 425.101 143.984 424.667 144.164 424.267C144.888 422.545 146.937 421.505 148.649 421.064C150.655 420.549 155.234 421.389 155.234 421.389Z" fill="#263238"/>
<path d="M130.246 381.54C131.895 382.663 134.132 386.361 134.311 386.655C136.42 385.368 138.613 384.224 140.875 383.231C142.188 382.653 143.533 382.096 144.877 381.571C144.226 381.718 143.638 381.855 143.554 381.855C141.211 382.128 136.516 381.266 135.414 378.851C135.249 378.445 135.17 378.01 135.182 377.573C135.195 377.136 135.298 376.705 135.486 376.31C135.673 375.915 135.941 375.563 136.273 375.277C136.604 374.991 136.991 374.777 137.409 374.649C139.184 374.051 141.317 374.912 142.776 375.91C144.236 376.908 146.232 380.038 146.736 380.867L148.301 380.258C150.801 379.313 153.301 378.378 155.727 377.391C156.588 377.044 157.418 376.666 158.248 376.34L157.103 376.592C154.75 376.855 150.055 375.994 148.963 373.578C148.798 373.173 148.719 372.738 148.731 372.3C148.744 371.863 148.847 371.433 149.035 371.038C149.223 370.642 149.491 370.291 149.822 370.005C150.153 369.719 150.54 369.505 150.959 369.377C152.723 368.778 154.855 369.65 156.315 370.637C157.775 371.624 159.571 374.46 160.191 375.448C161.021 375.038 161.872 374.628 162.659 374.198C163.195 373.893 163.71 373.631 164.256 373.294L165.81 372.328C166.777 371.687 167.785 371.015 168.709 370.364L170.537 368.936C169.686 369.293 168.016 369.986 167.869 369.986C165.59 370.606 160.811 370.458 159.372 368.242C159.144 367.866 158.997 367.446 158.941 367.01C158.885 366.574 158.922 366.131 159.047 365.709C159.173 365.288 159.385 364.898 159.671 364.563C159.957 364.229 160.309 363.958 160.706 363.768C162.365 362.917 164.602 363.442 166.199 364.209C167.795 364.976 170.621 368.221 170.957 368.62C172.007 367.885 172.953 367.15 173.866 366.457C176.524 364.419 178.74 362.592 180.431 361.205L181.733 362.402C179.969 363.831 177.627 365.69 174.801 367.749C173.751 368.505 172.7 369.293 171.514 370.08C172.089 371.286 172.594 372.524 173.026 373.788C175.127 373.852 177.208 374.206 179.213 374.838C179.654 373.662 180.074 372.517 180.441 371.425C181.492 368.326 182.353 365.627 182.962 363.516L184.38 364.818C183.75 366.803 182.931 369.23 181.922 371.96C181.481 373.147 180.988 374.418 180.462 375.721C180.904 375.973 184.464 378.126 185.567 379.733C186.67 381.34 187.447 383.315 186.859 385.09C186.733 385.51 186.521 385.899 186.236 386.233C185.951 386.566 185.599 386.837 185.204 387.026C184.808 387.216 184.378 387.321 183.939 387.335C183.501 387.349 183.064 387.271 182.658 387.106C180.242 386.056 179.349 381.329 179.601 378.977C179.601 378.84 179.948 377.359 180.179 376.424C179.958 376.95 179.759 377.475 179.528 378.01C179.087 379.061 178.603 380.111 178.099 381.287C177.837 381.823 177.574 382.338 177.301 382.926C177.028 383.514 176.702 384.039 176.408 384.596C175.683 385.888 174.896 387.148 174.066 388.409C175.011 388.808 178.33 390.247 179.549 391.56C180.767 392.873 181.943 394.816 181.649 396.664C181.588 397.098 181.437 397.514 181.206 397.886C180.975 398.259 180.668 398.578 180.307 398.825C179.945 399.073 179.536 399.241 179.105 399.322C178.674 399.402 178.231 399.391 177.805 399.29C175.253 398.597 173.656 394.091 173.604 391.728C173.604 391.581 173.709 389.879 173.793 388.944C173.289 389.701 172.742 390.446 172.259 391.192C170.715 393.345 169.108 395.477 167.48 397.61C166.987 398.261 166.504 398.923 166.02 399.574C166.356 399.71 170.337 401.338 171.703 402.788C172.911 404.069 174.097 406.044 173.803 407.882C173.742 408.317 173.591 408.734 173.359 409.107C173.127 409.48 172.82 409.8 172.457 410.048C172.094 410.295 171.683 410.464 171.251 410.543C170.819 410.622 170.376 410.61 169.949 410.508C167.396 409.814 165.81 405.309 165.747 402.945C165.747 402.767 165.905 400.32 165.978 399.7C164.928 401.139 163.878 402.588 162.827 404.059C161.495 406.04 160.289 408.103 159.214 410.235C159.372 410.298 163.542 411.978 164.939 413.459C166.146 414.741 167.333 416.715 167.039 418.564C166.978 418.999 166.827 419.416 166.595 419.789C166.363 420.162 166.056 420.482 165.693 420.73C165.33 420.977 164.919 421.145 164.487 421.225C164.055 421.304 163.612 421.292 163.184 421.19C160.632 420.486 159.046 415.938 158.983 413.627C158.983 413.47 159.099 411.6 159.183 410.718H159.036C158.019 412.895 157.2 415.159 156.588 417.482C156.231 418.753 155.958 419.992 155.727 421.211C156.536 421.442 160.212 422.545 161.619 423.742C163.027 424.939 164.361 426.714 164.256 428.573C164.243 429.012 164.139 429.444 163.95 429.84C163.76 430.236 163.491 430.588 163.157 430.874C162.824 431.16 162.435 431.373 162.014 431.499C161.594 431.626 161.152 431.663 160.716 431.609C158.101 431.199 156.032 426.893 155.664 424.561C155.664 424.435 155.591 423.122 155.559 422.156C155.465 422.713 155.349 423.269 155.275 423.794C154.96 425.78 154.792 427.607 154.656 429.225C154.582 430.149 154.54 430.989 154.509 431.767C155.181 432.418 157.859 435.033 158.542 436.714C159.225 438.394 159.592 440.61 158.658 442.217C158.443 442.599 158.151 442.933 157.8 443.196C157.449 443.459 157.048 443.645 156.621 443.744C156.194 443.843 155.751 443.852 155.32 443.77C154.89 443.688 154.481 443.517 154.12 443.268C152.019 441.703 152.124 436.966 152.881 434.686C152.954 434.487 154.32 431.535 154.351 431.609C154.351 430.853 154.351 430.044 154.446 429.162C154.54 427.534 154.666 425.696 154.939 423.71C155.214 421.561 155.61 419.429 156.126 417.324C156.696 414.964 157.472 412.658 158.447 410.434C158.451 410.41 158.451 410.385 158.447 410.361C157.933 410.938 156.441 412.514 156.347 412.619C154.53 414.142 150.139 416.011 147.892 414.604C147.527 414.358 147.218 414.038 146.985 413.665C146.752 413.293 146.599 412.875 146.537 412.44C146.474 412.005 146.504 411.561 146.623 411.138C146.743 410.715 146.949 410.321 147.23 409.983C148.385 408.512 150.633 408.06 152.408 408.081C154.393 408.081 158.3 409.962 158.605 410.109C159.637 407.863 160.816 405.687 162.134 403.597C162.911 402.378 163.731 401.181 164.56 399.994C164.098 400.477 163.678 400.908 163.615 400.96C161.809 402.483 157.408 404.353 155.212 402.945C154.848 402.699 154.539 402.379 154.306 402.007C154.073 401.634 153.92 401.216 153.858 400.781C153.795 400.346 153.825 399.902 153.944 399.479C154.063 399.056 154.27 398.662 154.551 398.324C155.696 396.853 157.954 396.402 159.718 396.423C161.483 396.444 164.875 397.956 165.758 398.366L166.724 397.011C168.289 394.837 169.875 392.673 171.346 390.509C171.86 389.753 172.396 388.976 172.837 388.209C172.427 388.64 172.081 389.007 172.018 389.049C170.201 390.572 165.81 392.442 163.615 391.035C163.252 390.788 162.945 390.469 162.713 390.097C162.48 389.725 162.328 389.309 162.266 388.875C162.204 388.441 162.233 387.999 162.351 387.577C162.469 387.155 162.675 386.762 162.953 386.424C164.098 384.943 166.356 384.491 168.121 384.512C169.886 384.533 172.942 385.898 173.992 386.382C174.476 385.583 174.948 384.785 175.379 383.987C175.652 383.43 175.957 382.936 176.209 382.348C176.461 381.76 176.723 381.235 176.975 380.689C177.416 379.638 177.889 378.504 178.299 377.454C178.593 376.718 178.855 376.015 179.118 375.301C178.614 376.067 177.585 377.538 177.479 377.653C176.056 379.169 174.265 380.291 172.28 380.909C172.125 381.08 171.957 381.238 171.776 381.382C171.44 381.664 171.048 381.873 170.626 381.995C170.204 382.116 169.761 382.149 169.326 382.089C168.891 382.03 168.473 381.88 168.099 381.65C167.725 381.42 167.403 381.114 167.155 380.752C165.737 378.515 167.585 374.114 169.087 372.286C169.182 372.181 170.274 371.131 170.978 370.469C170.505 370.795 170.054 371.11 169.56 371.435C168.604 372.087 167.617 372.706 166.567 373.378L164.991 374.313C164.476 374.639 163.878 374.912 163.321 375.206C162.019 375.889 160.653 376.508 159.267 377.097C159.834 377.947 161.809 380.983 162.113 382.726C162.418 384.47 162.323 386.77 161.063 388.136C160.772 388.465 160.415 388.729 160.016 388.912C159.617 389.095 159.184 389.193 158.745 389.199C158.306 389.205 157.87 389.119 157.466 388.947C157.062 388.774 156.699 388.52 156.399 388.199C154.666 386.203 155.822 381.571 157.04 379.544C157.114 379.418 158.153 378.063 158.731 377.328C157.901 377.685 157.072 378.031 156.21 378.378C153.742 379.323 151.211 380.206 148.69 381.098C147.923 381.361 147.156 381.645 146.39 381.928C146.589 382.222 149.015 385.772 149.352 387.736C149.656 389.47 149.562 391.77 148.301 393.135C148.011 393.463 147.656 393.727 147.258 393.91C146.86 394.093 146.429 394.191 145.991 394.198C145.553 394.205 145.119 394.121 144.715 393.95C144.312 393.78 143.949 393.527 143.648 393.209C141.905 391.213 143.06 386.581 144.278 384.554C144.362 384.396 145.864 382.453 146.264 381.97C144.573 382.59 142.892 383.21 141.264 383.903C139.056 384.807 136.912 385.86 134.846 387.054C134.941 387.19 137.483 390.887 137.84 392.894C138.134 394.627 138.039 396.927 136.79 398.292C136.499 398.622 136.144 398.887 135.745 399.071C135.346 399.255 134.913 399.354 134.474 399.361C134.035 399.368 133.599 399.283 133.195 399.112C132.791 398.94 132.427 398.686 132.126 398.366C130.383 396.37 131.538 391.738 132.756 389.711C132.84 389.575 133.975 388.094 134.531 387.4L134.426 387.285C132.377 388.539 130.444 389.973 128.649 391.57C127.652 392.442 126.748 393.324 125.887 394.207C126.423 394.847 128.881 397.799 129.395 399.563C129.91 401.328 130.046 403.565 128.933 405.057C128.68 405.416 128.355 405.719 127.978 405.945C127.601 406.172 127.181 406.317 126.745 406.371C126.309 406.426 125.866 406.388 125.445 406.261C125.024 406.134 124.635 405.921 124.301 405.634C122.347 403.849 122.988 399.122 123.976 396.969C124.028 396.853 124.711 395.73 125.215 394.868C124.837 395.267 124.427 395.677 124.07 396.076C122.715 397.547 121.57 398.986 120.562 400.277C119.995 401.002 119.512 401.685 119.039 402.315C119.249 403.218 120.037 406.884 119.68 408.617C119.323 410.35 118.419 412.461 116.728 413.27C116.339 413.472 115.913 413.59 115.475 413.618C115.038 413.646 114.6 413.582 114.189 413.431C113.778 413.28 113.403 413.044 113.088 412.74C112.772 412.435 112.524 412.069 112.359 411.663C111.456 409.174 114.207 405.267 116.066 403.817C116.235 403.691 118.976 402.021 118.986 402.063C119.417 401.443 119.89 400.782 120.415 400.078C121.392 398.775 122.516 397.305 123.839 395.803C125.253 394.159 126.761 392.599 128.355 391.129C130.103 389.523 131.986 388.071 133.985 386.791H134.059C133.313 386.991 131.191 387.484 131.034 387.505C128.681 387.768 123.986 386.907 122.894 384.491C122.728 384.086 122.649 383.652 122.661 383.215C122.673 382.778 122.775 382.349 122.962 381.953C123.148 381.558 123.415 381.206 123.745 380.92C124.075 380.634 124.461 380.419 124.879 380.29C126.654 379.628 128.786 380.489 130.246 381.54Z" fill="#263238"/>
<path d="M183.583 405.33C185.515 404.563 190.158 404.836 190.158 404.836C190.158 404.836 189.045 407.84 188.95 407.987C187.9 410.088 184.507 413.48 181.892 413.029C181.463 412.939 181.058 412.76 180.702 412.504C180.346 412.249 180.047 411.922 179.825 411.544C179.602 411.167 179.461 410.747 179.41 410.312C179.359 409.876 179.399 409.435 179.529 409.016C179.991 407.252 181.944 405.97 183.583 405.33Z" fill="#263238"/>
<path d="M230.595 406.012C230.595 406.012 231.33 409.163 231.351 409.331C231.593 411.684 230.679 416.369 228.2 417.429C227.792 417.594 227.354 417.671 226.915 417.656C226.475 417.641 226.043 417.534 225.648 417.342C225.252 417.15 224.901 416.877 224.617 416.541C224.333 416.205 224.122 415.814 223.999 415.392C223.421 413.617 224.314 411.484 225.322 410.046C226.572 408.344 230.595 406.012 230.595 406.012Z" fill="#263238"/>
<path d="M185.672 391.928C187.657 391.718 191.753 393.072 192.079 393.177C192.849 390.829 193.776 388.534 194.852 386.308C195.461 385.016 196.133 383.724 196.805 382.443C196.417 382.979 196.049 383.493 195.997 383.493C194.379 385.216 190.251 387.621 187.856 386.497C187.464 386.298 187.118 386.019 186.84 385.678C186.562 385.337 186.359 384.941 186.243 384.517C186.127 384.092 186.102 383.648 186.168 383.213C186.234 382.778 186.391 382.362 186.628 381.991C187.583 380.395 189.779 379.66 191.522 379.471C193.266 379.282 196.826 380.353 197.761 380.657L198.549 379.187C199.841 376.834 201.133 374.503 202.33 372.171C202.761 371.352 203.139 370.532 203.527 369.703C203.181 370.186 202.876 370.585 202.824 370.637C201.217 372.37 197.078 374.765 194.684 373.641C194.293 373.442 193.948 373.163 193.671 372.823C193.394 372.483 193.191 372.088 193.076 371.665C192.96 371.242 192.934 370.799 192.999 370.365C193.065 369.932 193.22 369.516 193.455 369.146C194.421 367.539 196.606 366.814 198.36 366.625C200.114 366.436 203.317 367.402 204.42 367.759C204.788 366.898 205.166 366.047 205.471 365.197C205.681 364.619 205.922 364.073 206.09 363.474C206.258 362.875 206.468 362.308 206.647 361.73C206.962 360.607 207.288 359.462 207.571 358.359C207.771 357.592 207.939 356.857 208.117 356.122C207.708 356.941 206.867 358.537 206.783 358.664C205.45 360.617 201.731 363.611 199.19 362.865C198.773 362.727 198.389 362.503 198.064 362.208C197.739 361.912 197.479 361.553 197.301 361.151C197.123 360.749 197.03 360.315 197.03 359.876C197.03 359.437 197.121 359.002 197.299 358.6C198.003 356.878 200.051 355.817 201.763 355.365C203.643 354.861 207.729 355.534 208.243 355.618C208.538 354.399 208.811 353.212 209.042 352.088C209.745 348.811 210.239 345.986 210.596 343.791L212.361 343.864C211.962 346.091 211.384 349.021 210.575 352.425C210.281 353.664 209.955 354.987 209.598 356.342C210.818 356.878 212.004 357.488 213.148 358.17C214.794 356.875 216.611 355.815 218.547 355.019C218.117 353.832 217.686 352.698 217.266 351.626C216.068 348.57 214.945 345.975 214.031 343.969L215.963 344.043C216.772 345.965 217.728 348.328 218.726 351.07C219.177 352.256 219.619 353.548 220.07 354.872C220.574 354.788 224.671 354.105 226.551 354.599C228.263 355.05 230.311 356.101 231.025 357.834C231.203 358.235 231.294 358.67 231.294 359.109C231.294 359.548 231.202 359.983 231.024 360.384C230.846 360.786 230.586 361.146 230.26 361.441C229.935 361.736 229.551 361.96 229.135 362.098C226.593 362.854 222.833 359.861 221.541 357.897C221.457 357.781 220.742 356.437 220.312 355.586C220.49 356.122 220.669 356.636 220.847 357.214C221.205 358.317 221.541 359.43 221.898 360.628C222.045 361.216 222.202 361.804 222.349 362.392C222.496 362.98 222.622 363.632 222.759 364.251C223.043 365.69 223.274 367.171 223.463 368.663C224.429 368.348 227.885 367.287 229.649 367.476C231.414 367.665 233.588 368.39 234.554 369.997C234.79 370.366 234.945 370.781 235.011 371.215C235.077 371.648 235.052 372.09 234.938 372.513C234.823 372.936 234.621 373.331 234.346 373.672C234.07 374.012 233.726 374.292 233.336 374.492C230.941 375.626 226.803 373.232 225.196 371.509C225.091 371.394 224.072 370.028 223.526 369.261C223.631 370.165 223.746 371.057 223.83 371.971C224.061 374.608 224.208 377.286 224.377 379.954C224.377 380.773 224.482 381.582 224.534 382.401C224.881 382.286 228.967 380.931 230.941 381.141C232.695 381.33 234.88 382.054 235.846 383.651C236.083 384.021 236.241 384.437 236.308 384.871C236.375 385.306 236.35 385.749 236.235 386.174C236.12 386.598 235.918 386.994 235.641 387.335C235.364 387.677 235.019 387.957 234.628 388.157C232.233 389.281 228.095 386.896 226.477 385.163C226.362 385.037 224.891 383.063 224.545 382.548C224.671 384.344 224.807 386.13 225.017 387.884C225.294 390.254 225.718 392.604 226.288 394.921C226.456 394.868 230.71 393.44 232.727 393.661C234.481 393.839 236.665 394.574 237.632 396.171C237.869 396.541 238.026 396.957 238.093 397.391C238.16 397.826 238.135 398.269 238.021 398.694C237.906 399.118 237.704 399.514 237.427 399.855C237.15 400.197 236.805 400.477 236.413 400.677C234.019 401.801 229.88 399.416 228.273 397.683C228.168 397.568 227.044 396.066 226.53 395.341L226.393 395.404C227.034 397.724 227.885 399.981 228.935 402.147C229.492 403.345 230.09 404.458 230.7 405.529C231.466 405.183 234.985 403.628 236.823 403.628C238.661 403.628 240.846 404.101 241.97 405.592C242.244 405.934 242.444 406.329 242.558 406.752C242.671 407.175 242.695 407.617 242.628 408.05C242.56 408.483 242.404 408.897 242.167 409.266C241.931 409.635 241.621 409.951 241.255 410.193C238.997 411.579 234.628 409.657 232.853 408.092C232.758 408.008 231.802 407.042 231.214 406.338C231.498 406.811 231.781 407.315 232.065 407.767C233.115 409.479 234.166 410.97 235.121 412.294C235.668 413.039 236.172 413.701 236.665 414.321C237.59 414.321 241.329 414.615 242.967 415.445C244.606 416.274 246.308 417.724 246.633 419.562C246.72 419.992 246.717 420.437 246.622 420.866C246.528 421.295 246.344 421.699 246.084 422.053C245.824 422.408 245.493 422.703 245.112 422.922C244.73 423.14 244.308 423.277 243.871 423.322C241.234 423.511 238.23 419.793 237.348 417.598C237.275 417.409 236.424 414.31 236.476 414.31H236.529C236.046 413.733 235.542 413.102 235.006 412.399C234.019 411.096 232.905 409.615 231.855 407.924C230.664 406.116 229.581 404.24 228.609 402.305C227.508 400.142 226.601 397.885 225.9 395.562C225.9 395.562 225.9 395.499 225.9 395.478C225.9 396.255 225.773 398.419 225.742 398.629C225.353 400.96 223.232 405.235 220.616 405.624C220.18 405.674 219.737 405.632 219.318 405.501C218.899 405.369 218.511 405.152 218.181 404.862C217.85 404.572 217.584 404.216 217.4 403.818C217.215 403.419 217.116 402.986 217.108 402.546C217.024 400.677 218.442 398.86 219.797 397.736C221.331 396.465 225.5 395.331 225.837 395.236C225.181 392.856 224.686 390.435 224.356 387.989C224.156 386.56 223.998 385.121 223.851 383.672C223.851 384.344 223.788 384.943 223.767 385.027C223.379 387.359 221.257 391.633 218.642 392.022C218.196 392.082 217.742 392.046 217.312 391.916C216.881 391.786 216.483 391.565 216.145 391.269C215.806 390.972 215.535 390.607 215.35 390.197C215.165 389.787 215.07 389.342 215.071 388.892C214.987 387.033 216.405 385.216 217.759 384.082C219.114 382.947 222.675 381.907 223.61 381.645C223.61 381.088 223.515 380.531 223.463 379.975C223.242 377.307 223.032 374.65 222.749 372.045C222.654 371.12 222.517 370.217 222.391 369.324C222.391 369.913 222.328 370.375 222.318 370.49C221.929 372.822 219.808 377.107 217.182 377.485C216.746 377.534 216.305 377.491 215.887 377.359C215.468 377.227 215.082 377.009 214.753 376.719C214.424 376.43 214.159 376.074 213.975 375.676C213.791 375.278 213.692 374.846 213.684 374.408C213.6 372.549 215.018 370.732 216.373 369.608C217.728 368.484 220.942 367.507 222.055 367.203C221.898 366.289 221.74 365.365 221.541 364.482C221.394 363.884 221.289 363.295 221.11 362.697L220.606 360.943C220.249 359.829 219.892 358.685 219.556 357.613C219.303 356.867 219.041 356.164 218.789 355.449C218.894 356.363 219.072 358.159 219.072 358.306C218.968 360.383 218.332 362.397 217.224 364.157C217.225 364.389 217.204 364.621 217.161 364.85C217.088 365.283 216.925 365.697 216.683 366.064C216.441 366.431 216.125 366.743 215.755 366.98C215.385 367.218 214.969 367.375 214.535 367.442C214.101 367.51 213.657 367.485 213.233 367.371C210.701 366.594 209.241 362.046 209.21 359.682C209.21 359.546 209.346 358.033 209.462 357.077C209.304 357.624 209.168 358.128 209.01 358.727C208.706 359.85 208.359 360.964 207.96 362.161C207.771 362.728 207.571 363.306 207.372 363.884C207.172 364.461 206.92 365.06 206.689 365.648C206.132 367.014 205.502 368.369 204.84 369.724C205.817 369.997 209.294 371.015 210.659 372.15C212.025 373.284 213.443 375.08 213.359 376.95C213.352 377.389 213.255 377.822 213.071 378.222C212.888 378.621 212.623 378.977 212.293 379.268C211.964 379.559 211.577 379.778 211.159 379.91C210.74 380.043 210.298 380.086 209.861 380.038C207.235 379.649 205.113 375.385 204.714 373.053C204.714 372.906 204.599 371.194 204.567 370.259C204.158 371.068 203.759 371.877 203.317 372.685C202.057 375.007 200.713 377.328 199.368 379.639L198.16 381.739C198.507 381.834 202.666 382.958 204.189 384.218C205.712 385.479 206.973 387.159 206.899 389.029C206.892 389.468 206.792 389.901 206.608 390.3C206.423 390.699 206.157 391.054 205.826 391.344C205.496 391.634 205.109 391.852 204.689 391.983C204.27 392.114 203.828 392.156 203.391 392.106C200.776 391.728 198.643 387.453 198.255 385.121C198.255 384.943 198.087 382.496 198.087 381.865C197.204 383.43 196.333 385.016 195.534 386.581C194.459 388.713 193.515 390.909 192.709 393.156C192.877 393.156 197.215 394.354 198.78 395.646C200.145 396.78 201.563 398.587 201.479 400.456C201.472 400.895 201.373 401.327 201.189 401.725C201.005 402.123 200.739 402.478 200.41 402.768C200.081 403.057 199.695 403.275 199.277 403.407C198.859 403.539 198.418 403.582 197.982 403.534C195.366 403.156 193.234 398.881 192.835 396.549C192.835 396.402 192.709 394.532 192.688 393.64H192.53C191.791 395.926 191.257 398.274 190.934 400.656C190.734 401.969 190.619 403.229 190.545 404.458C191.375 404.595 195.156 405.235 196.7 406.244C198.244 407.252 199.788 408.859 199.914 410.729C199.955 411.166 199.904 411.608 199.764 412.025C199.625 412.442 199.399 412.825 199.102 413.149C198.805 413.474 198.444 413.733 198.041 413.909C197.638 414.085 197.203 414.176 196.763 414.174C194.116 414.079 191.512 410.067 190.881 407.798C190.881 407.672 190.629 406.37 190.482 405.424C190.482 405.981 190.409 406.559 190.398 407.084C190.325 409.09 190.398 410.928 190.451 412.556C190.451 413.48 190.556 414.31 190.619 415.087C191.365 415.644 194.348 417.913 195.23 419.499C196.112 421.085 196.774 423.238 196.018 424.95C195.853 425.357 195.606 425.724 195.291 426.03C194.976 426.335 194.601 426.572 194.19 426.724C193.779 426.876 193.34 426.941 192.903 426.914C192.465 426.887 192.038 426.769 191.648 426.568C189.337 425.265 188.896 420.507 189.369 418.165C189.369 417.965 190.419 414.909 190.419 414.93C190.346 414.174 190.272 413.365 190.209 412.493C190.104 410.865 189.999 409.017 190.031 407.01C190.032 404.844 190.162 402.68 190.419 400.53C190.7 398.118 191.188 395.736 191.879 393.409V393.325C191.438 393.965 190.146 395.709 190.031 395.835C188.424 397.568 184.296 399.963 181.901 398.839C181.51 398.639 181.165 398.361 180.888 398.02C180.612 397.68 180.409 397.286 180.293 396.863C180.177 396.439 180.151 395.997 180.217 395.563C180.282 395.129 180.437 394.714 180.672 394.343C181.733 392.852 183.918 392.127 185.672 391.928Z" fill="#263238"/>
<path d="M424.886 83.4863H131.56C127.574 83.4863 124.344 86.7169 124.344 90.7021V375.857C124.344 379.842 127.574 383.073 131.56 383.073H424.886C428.871 383.073 432.102 379.842 432.102 375.857V90.7021C432.102 86.7169 428.871 83.4863 424.886 83.4863Z" fill="white" stroke="#263238" stroke-linecap="round" stroke-linejoin="round"/>
<path d="M425.086 83.4863H131.381C129.516 83.4863 127.728 84.2263 126.409 85.5438C125.089 86.8612 124.347 88.6485 124.344 90.5131V102.918H432.07V90.5131C432.068 88.6575 431.332 86.8782 430.024 85.5622C428.716 84.2463 426.941 83.5002 425.086 83.4863Z" fill="black" stroke="#263238" stroke-linecap="round" stroke-linejoin="round"/>
<path d="M139.112 92.8657C139.114 93.4395 138.946 94.001 138.629 94.4791C138.312 94.9572 137.86 95.3304 137.33 95.5514C136.8 95.7725 136.217 95.8314 135.654 95.7207C135.091 95.61 134.574 95.3348 134.167 94.9298C133.761 94.5248 133.484 94.0083 133.371 93.4456C133.258 92.883 133.315 92.2996 133.534 91.7693C133.753 91.239 134.125 90.7856 134.602 90.4666C135.079 90.1476 135.64 89.9773 136.213 89.9773C136.98 89.98 137.714 90.2849 138.256 90.8257C138.799 91.3665 139.107 92.0995 139.112 92.8657Z" fill="white" stroke="#263238" stroke-linecap="round" stroke-linejoin="round"/>
<path d="M151.265 92.8657C151.267 93.4395 151.098 94.001 150.781 94.4791C150.464 94.9572 150.012 95.3304 149.482 95.5514C148.953 95.7725 148.37 95.8314 147.807 95.7207C147.244 95.61 146.726 95.3348 146.32 94.9298C145.913 94.5248 145.636 94.0083 145.523 93.4456C145.411 92.883 145.467 92.2996 145.686 91.7693C145.906 91.239 146.277 90.7856 146.754 90.4666C147.231 90.1476 147.792 89.9773 148.366 89.9773C149.133 89.9773 149.868 90.2813 150.412 90.8226C150.955 91.364 151.262 92.0987 151.265 92.8657Z" fill="white" stroke="#263238" stroke-linecap="round" stroke-linejoin="round"/>
<path d="M163.417 92.8657C163.419 93.44 163.251 94.0019 162.933 94.4802C162.615 94.9586 162.162 95.3317 161.632 95.5525C161.102 95.7732 160.518 95.8315 159.955 95.7199C159.392 95.6084 158.874 95.3321 158.468 94.9261C158.062 94.52 157.786 94.0025 157.674 93.4392C157.563 92.8759 157.621 92.2921 157.842 91.762C158.063 91.2319 158.436 90.7792 158.914 90.4615C159.392 90.1437 159.954 89.9752 160.529 89.9773C161.294 89.9801 162.027 90.2853 162.568 90.8264C163.109 91.3675 163.414 92.1005 163.417 92.8657Z" fill="white" stroke="#263238" stroke-linecap="round" stroke-linejoin="round"/>
<path d="M282.924 138.293V118.62H278.891V116.404H289.394V118.62H285.361V138.293H282.924Z" fill="#263238"/>
<path d="M290.906 121.687C290.906 118.337 292.566 116.183 295.906 116.183C299.246 116.183 300.947 118.284 300.947 121.687V132.999C300.947 136.318 299.288 138.503 295.906 138.503C292.524 138.503 290.906 136.318 290.906 132.999V121.687ZM293.312 133.125C293.312 135.131 294.162 136.276 295.906 136.276C297.649 136.276 298.5 135.121 298.5 133.125V121.572C298.5 119.597 297.691 118.421 295.906 118.421C294.12 118.421 293.312 119.607 293.312 121.572V133.125Z" fill="#263238"/>
<path d="M308.383 116.404C311.787 116.404 313.352 118.504 313.352 121.845V132.884C313.352 136.224 311.787 138.293 308.383 138.293H303.258V116.404H308.383ZM308.383 136.066C310.138 136.066 310.978 135.016 310.978 132.978V121.718C310.978 119.712 310.138 118.62 308.352 118.62H305.726V136.066H308.383Z" fill="#263238"/>
<path d="M318.066 133.881L317.226 138.293H314.979L319.18 116.404H322.709L326.91 138.293H324.474L323.623 133.881H318.066ZM318.382 131.781H323.266L320.787 119.177L318.382 131.781Z" fill="#263238"/>
<path d="M331.144 130.436L326.512 116.404H329.043L332.457 127.159L335.891 116.404H338.202L333.549 130.436V138.293H331.144V130.436Z" fill="#263238"/>
<path d="M143.544 117.003V117.318H142.315V116.929C142.315 115.879 141.916 115.27 140.982 115.27C140.047 115.27 139.658 115.889 139.658 116.919C139.658 119.523 143.555 119.776 143.555 123.042C143.555 124.796 142.715 125.941 140.94 125.941C139.164 125.941 138.324 124.796 138.324 123.042V122.38H139.543V123.158C139.543 124.208 139.973 124.817 140.898 124.817C141.822 124.817 142.263 124.208 142.263 123.158C142.263 120.574 138.377 120.322 138.377 117.055C138.377 115.259 139.206 114.146 140.95 114.146C142.694 114.146 143.544 115.238 143.544 117.003Z" fill="#263238"/>
<path d="M149.815 117.013V118.063H148.586V116.95C148.586 115.9 148.176 115.269 147.231 115.269C146.286 115.269 145.865 115.9 145.865 116.95V123.094C145.865 124.145 146.296 124.764 147.231 124.764C148.166 124.764 148.586 124.134 148.586 123.094V121.582H149.815V123.021C149.815 124.785 148.985 125.941 147.199 125.941C145.414 125.941 144.584 124.785 144.584 123.021V117.013C144.584 115.259 145.414 114.093 147.199 114.093C148.985 114.093 149.815 115.259 149.815 117.013Z" fill="#263238"/>
<path d="M152.294 120.605V125.857H151.002V114.209H152.294V119.46H155.151V114.209H156.443V125.825H155.151V120.574L152.294 120.605Z" fill="#263238"/>
<path d="M161.903 119.355V120.521H159.067V124.649H162.554V125.825H157.775V114.209H162.554V115.385H159.067V119.355H161.903Z" fill="#263238"/>
<path d="M166.472 114.209C168.279 114.209 169.109 115.259 169.109 117.097V122.958C169.109 124.733 168.279 125.825 166.472 125.825H163.752V114.209H166.472ZM166.472 124.649C167.407 124.649 167.848 124.071 167.848 123.011V117.034C167.848 115.984 167.407 115.385 166.462 115.385H165.065V124.649H166.472Z" fill="#263238"/>
<path d="M171.588 123.095C171.588 124.145 171.998 124.765 172.943 124.765C173.888 124.765 174.287 124.134 174.287 123.095V114.209H175.506V123.021C175.506 124.786 174.687 125.962 172.901 125.962C171.115 125.962 170.307 124.786 170.307 123.021V114.209H171.588V123.095Z" fill="#263238"/>
<path d="M176.746 125.825V114.209H178.048V124.649H181.368V125.825H176.746Z" fill="#263238"/>
<path d="M186.482 119.355V120.521H183.636V124.649H187.123V125.825H182.344V114.209H187.123V115.385H183.636V119.355H186.482Z" fill="#263238"/>
<path d="M218.434 151.874V152.22C218.495 152.685 218.405 153.157 218.178 153.567C217.951 153.977 217.599 154.304 217.174 154.499C217.605 154.703 217.959 155.039 218.186 155.459C218.413 155.878 218.5 156.359 218.434 156.831V157.65C218.434 158.347 218.157 159.015 217.665 159.507C217.172 160 216.505 160.276 215.808 160.276C215.112 160.276 214.444 160 213.951 159.507C213.459 159.015 213.182 158.347 213.182 157.65V156.831C213.115 156.356 213.203 155.872 213.434 155.452C213.665 155.031 214.026 154.697 214.464 154.499C214.031 154.311 213.671 153.987 213.44 153.575C213.208 153.164 213.118 152.688 213.182 152.22V151.874C213.182 151.177 213.459 150.509 213.951 150.017C214.444 149.524 215.112 149.248 215.808 149.248C216.505 149.248 217.172 149.524 217.665 150.017C218.157 150.509 218.434 151.177 218.434 151.874ZM214.443 151.874V152.409C214.443 153.46 214.957 153.964 215.829 153.964C216.701 153.964 217.216 153.481 217.216 152.409V151.874C217.216 150.739 216.701 150.225 215.829 150.225C214.957 150.225 214.443 150.771 214.443 151.905V151.874ZM214.443 156.653V157.587C214.443 158.722 214.947 159.257 215.829 159.257C216.711 159.257 217.205 158.722 217.216 157.587V156.653C217.216 155.602 216.743 155.067 215.829 155.067C214.915 155.067 214.443 155.613 214.443 156.684V156.653Z" fill="#263238"/>
<path d="M220.732 152.756V154.289H219.545V152.756H220.732ZM220.732 158.774V160.297H219.545V158.774H220.732Z" fill="#263238"/>
<path d="M221.898 151.926C221.898 150.235 222.739 149.143 224.43 149.143C226.121 149.143 226.961 150.193 226.961 151.926V157.619C226.961 159.31 226.131 160.413 224.43 160.413C222.728 160.413 221.898 159.31 221.898 157.619V151.926ZM223.117 157.693C223.117 158.743 223.537 159.289 224.43 159.289C225.323 159.289 225.732 158.69 225.732 157.693V151.863C225.732 150.813 225.323 150.256 224.43 150.256C223.537 150.256 223.117 150.855 223.117 151.863V157.693Z" fill="#263238"/>
<path d="M228.033 151.926C228.033 150.235 228.873 149.143 230.564 149.143C232.256 149.143 233.096 150.193 233.096 151.926V157.619C233.096 159.31 232.266 160.413 230.564 160.413C228.863 160.413 228.033 159.31 228.033 157.619V151.926ZM229.252 157.693C229.252 158.743 229.672 159.289 230.564 159.289C231.457 159.289 231.867 158.69 231.867 157.693V151.863C231.867 150.813 231.457 150.256 230.564 150.256C229.672 150.256 229.252 150.855 229.252 151.863V157.693Z" fill="#263238"/>
<path d="M245.961 151.264C245.497 151.546 244.97 151.708 244.428 151.737V150.687C244.864 150.698 245.291 150.557 245.636 150.289C245.98 150.021 246.221 149.642 246.318 149.216H247.211V160.255H245.993L245.961 151.264Z" fill="#263238"/>
<path d="M248.945 151.926C248.945 150.235 249.775 149.143 251.466 149.143C253.157 149.143 254.008 150.193 254.008 151.926V157.619C254.008 159.31 253.168 160.413 251.466 160.413C249.765 160.413 248.945 159.31 248.945 157.619V151.926ZM250.153 157.693C250.153 158.743 250.584 159.289 251.466 159.289C252.348 159.289 252.779 158.69 252.779 157.693V151.863C252.779 150.813 252.369 150.256 251.466 150.256C250.563 150.256 250.153 150.855 250.153 151.863V157.693Z" fill="#263238"/>
<path d="M256.348 152.756V154.289H255.172V152.756H256.348ZM256.348 158.774V160.297H255.172V158.774H256.348Z" fill="#263238"/>
<path d="M257.525 151.926C257.525 150.235 258.355 149.143 260.046 149.143C261.737 149.143 262.588 150.193 262.588 151.926V157.619C262.588 159.31 261.748 160.413 260.046 160.413C258.345 160.413 257.525 159.31 257.525 157.619V151.926ZM258.733 157.693C258.733 158.743 259.164 159.289 260.046 159.289C260.928 159.289 261.359 158.69 261.359 157.693V151.863C261.359 150.813 260.939 150.256 260.046 150.256C259.153 150.256 258.733 150.855 258.733 151.863V157.693Z" fill="#263238"/>
<path d="M263.66 151.926C263.66 150.235 264.49 149.143 266.181 149.143C267.872 149.143 268.723 150.193 268.723 151.926V157.619C268.723 159.31 267.882 160.413 266.181 160.413C264.479 160.413 263.66 159.31 263.66 157.619V151.926ZM264.868 157.693C264.868 158.743 265.299 159.289 266.181 159.289C267.063 159.289 267.494 158.69 267.494 157.693V151.863C267.494 150.813 267.084 150.256 266.181 150.256C265.278 150.256 264.868 150.855 264.868 151.863V157.693Z" fill="#263238"/>
<path d="M282.367 151.264C281.903 151.546 281.376 151.708 280.834 151.737V150.687C281.27 150.698 281.697 150.557 282.042 150.289C282.386 150.021 282.628 149.642 282.725 149.216H283.586V160.255H282.367V151.264Z" fill="#263238"/>
<path d="M290.411 151.936C290.411 155.266 286.672 156.463 286.651 159.005V159.184H290.275V160.297H285.443V159.352C285.443 155.791 289.183 155.098 289.183 151.999C289.183 150.865 288.804 150.266 287.88 150.266C286.956 150.266 286.588 150.907 286.588 151.884V152.861H285.443V151.968C285.443 150.277 286.21 149.153 287.922 149.153C289.634 149.153 290.411 150.256 290.411 151.936Z" fill="#263238"/>
<path d="M292.734 152.756V154.289H291.547V152.756H292.734ZM292.734 158.774V160.297H291.547V158.774H292.734Z" fill="#263238"/>
<path d="M293.898 151.926C293.898 150.235 294.728 149.143 296.419 149.143C298.11 149.143 298.961 150.193 298.961 151.926V157.619C298.961 159.31 298.121 160.413 296.419 160.413C294.718 160.413 293.898 159.31 293.898 157.619V151.926ZM295.106 157.693C295.106 158.743 295.537 159.289 296.419 159.289C297.302 159.289 297.732 158.69 297.732 157.693V151.863C297.732 150.813 297.312 150.256 296.419 150.256C295.526 150.256 295.106 150.855 295.106 151.863V157.693Z" fill="#263238"/>
<path d="M300.033 151.926C300.033 150.235 300.863 149.143 302.554 149.143C304.245 149.143 305.096 150.193 305.096 151.926V157.619C305.096 159.31 304.256 160.413 302.554 160.413C300.852 160.413 300.033 159.31 300.033 157.619V151.926ZM301.241 157.693C301.241 158.743 301.672 159.289 302.554 159.289C303.436 159.289 303.867 158.69 303.867 157.693V151.863C303.867 150.813 303.457 150.256 302.554 150.256C301.651 150.256 301.241 150.855 301.241 151.863V157.693Z" fill="#263238"/>
<path d="M322.835 151.936C322.835 155.266 319.096 156.463 319.075 159.005V159.184H322.709V160.297H317.867V159.352C317.867 155.791 321.596 155.098 321.596 151.999C321.596 150.865 321.218 150.266 320.304 150.266C319.39 150.266 319.012 150.907 319.012 151.884V152.861H317.867V151.968C317.867 150.277 318.634 149.153 320.335 149.153C322.037 149.153 322.835 150.256 322.835 151.936Z" fill="#263238"/>
<path d="M325.147 152.756V154.289H323.971V152.756H325.147ZM325.147 158.774V160.297H323.971V158.774H325.147Z" fill="#263238"/>
<path d="M326.312 151.926C326.312 150.235 327.153 149.143 328.844 149.143C330.535 149.143 331.375 150.193 331.375 151.926V157.619C331.375 159.31 330.545 160.413 328.844 160.413C327.142 160.413 326.312 159.31 326.312 157.619V151.926ZM327.531 157.693C327.531 158.743 327.962 159.289 328.844 159.289C329.726 159.289 330.146 158.69 330.146 157.693V151.863C330.146 150.813 329.737 150.256 328.844 150.256C327.951 150.256 327.531 150.855 327.531 151.863V157.693Z" fill="#263238"/>
<path d="M332.445 151.926C332.445 150.235 333.286 149.143 334.977 149.143C336.668 149.143 337.518 150.193 337.518 151.926V157.619C337.518 159.31 336.678 160.413 334.977 160.413C333.275 160.413 332.445 159.31 332.445 157.619V151.926ZM333.664 157.693C333.664 158.743 334.094 159.289 334.977 159.289C335.859 159.289 336.279 158.69 336.279 157.693V151.863C336.279 150.813 335.869 150.256 334.977 150.256C334.084 150.256 333.664 150.855 333.664 151.863V157.693Z" fill="#263238"/>
<path d="M357.403 158.071V160.297H356.195V158.071H352.635V156.957L356.059 149.258H357.403V156.957H358.286V158.071H357.403ZM353.769 156.957H356.195V151.517L353.769 156.957Z" fill="#263238"/>
<path d="M360.407 152.756V154.289H359.23V152.756H360.407ZM360.407 158.774V160.297H359.23V158.774H360.407Z" fill="#263238"/>
<path d="M361.572 151.926C361.572 150.235 362.413 149.143 364.104 149.143C365.795 149.143 366.635 150.193 366.635 151.926V157.619C366.635 159.31 365.805 160.413 364.104 160.413C362.402 160.413 361.572 159.31 361.572 157.619V151.926ZM362.791 157.693C362.791 158.743 363.221 159.289 364.104 159.289C364.986 159.289 365.406 158.69 365.406 157.693V151.863C365.406 150.813 364.996 150.256 364.104 150.256C363.211 150.256 362.791 150.855 362.791 151.863V157.693Z" fill="#263238"/>
<path d="M367.715 151.926C367.715 150.235 368.545 149.143 370.236 149.143C371.927 149.143 372.777 150.193 372.777 151.926V157.619C372.777 159.31 371.937 160.413 370.236 160.413C368.534 160.413 367.715 159.31 367.715 157.619V151.926ZM368.923 157.693C368.923 158.743 369.353 159.289 370.236 159.289C371.118 159.289 371.549 158.69 371.549 157.693V151.863C371.549 150.813 371.128 150.256 370.236 150.256C369.343 150.256 368.923 150.855 368.923 151.863V157.693Z" fill="#263238"/>
<path d="M394.951 151.905V152.115H393.796V151.832C393.796 150.781 393.386 150.256 392.493 150.256C391.6 150.256 391.149 150.855 391.149 152.031V154.51C391.276 154.145 391.52 153.831 391.842 153.617C392.164 153.402 392.548 153.299 392.934 153.323C394.352 153.323 394.983 154.373 394.983 155.949V157.619C394.983 159.31 394.142 160.413 392.451 160.413C390.76 160.413 389.92 159.31 389.92 157.619V151.989C389.92 150.235 390.708 149.143 392.451 149.143C394.195 149.143 394.951 150.225 394.951 151.905ZM391.107 156.044V157.693C391.107 158.743 391.516 159.289 392.409 159.289C393.302 159.289 393.722 158.69 393.722 157.693V156.044C393.722 155.046 393.302 154.447 392.409 154.447C391.516 154.447 391.107 155.046 391.107 156.044Z" fill="#263238"/>
<path d="M397.316 152.756V154.289H396.129V152.756H397.316ZM397.316 158.774V160.297H396.129V158.774H397.316Z" fill="#263238"/>
<path d="M398.461 151.926C398.461 150.235 399.301 149.143 400.982 149.143C402.662 149.143 403.524 150.193 403.524 151.926V157.619C403.524 159.31 402.694 160.413 400.982 160.413C399.27 160.413 398.461 159.31 398.461 157.619V151.926ZM399.679 157.693C399.679 158.743 400.099 159.289 400.982 159.289C401.864 159.289 402.295 158.69 402.295 157.693V151.863C402.295 150.813 401.885 150.256 400.982 150.256C400.078 150.256 399.679 150.855 399.679 151.863V157.693Z" fill="#263238"/>
<path d="M404.615 151.926C404.615 150.235 405.456 149.143 407.147 149.143C408.838 149.143 409.678 150.193 409.678 151.926V157.619C409.678 159.31 408.848 160.413 407.147 160.413C405.445 160.413 404.615 159.31 404.615 157.619V151.926ZM405.834 157.693C405.834 158.743 406.254 159.289 407.147 159.289C408.039 159.289 408.449 158.69 408.449 157.693V151.863C408.449 150.813 408.039 150.256 407.147 150.256C406.254 150.256 405.834 150.855 405.834 151.863V157.693Z" fill="#263238"/>
<path d="M241.446 283.386H207.814V315.075H241.446V283.386Z" stroke="#ADADAD" stroke-miterlimit="10"/>
<path d="M276.056 283.386H242.424V315.075H276.056V283.386Z" stroke="#ADADAD" stroke-miterlimit="10"/>
<path d="M310.663 283.386H277.031V315.075H310.663V283.386Z" stroke="#ADADAD" stroke-miterlimit="10"/>
<path d="M345.282 283.386H311.65V315.075H345.282V283.386Z" stroke="#ADADAD" stroke-miterlimit="10"/>
<path d="M379.89 283.386H346.258V315.075H379.89V283.386Z" stroke="#ADADAD" stroke-miterlimit="10"/>
<path d="M414.645 283.386H381.014V315.075H414.645V283.386Z" stroke="#ADADAD" stroke-miterlimit="10"/>
<path d="M138.66 166.956H193.12" stroke="#ADADAD" stroke-miterlimit="10"/>
<path d="M138.66 172.933H193.12" stroke="#ADADAD" stroke-miterlimit="10"/>
<path d="M138.66 178.899H193.12" stroke="#ADADAD" stroke-miterlimit="10"/>
<path d="M138.66 184.865H193.12" stroke="#ADADAD" stroke-miterlimit="10"/>
<path d="M138.66 190.831H193.12" stroke="#ADADAD" stroke-miterlimit="10"/>
<path d="M138.66 196.807H193.12" stroke="#ADADAD" stroke-miterlimit="10"/>
<path d="M138.66 202.773H193.12" stroke="#ADADAD" stroke-miterlimit="10"/>
<path d="M138.66 208.739H193.12" stroke="#ADADAD" stroke-miterlimit="10"/>
<path d="M138.66 299.886H193.12" stroke="#ADADAD" stroke-miterlimit="10"/>
<path d="M138.66 305.853H193.12" stroke="#ADADAD" stroke-miterlimit="10"/>
<path d="M138.66 311.818H193.12" stroke="#ADADAD" stroke-miterlimit="10"/>
<path d="M138.66 317.784H193.12" stroke="#ADADAD" stroke-miterlimit="10"/>
<path d="M138.66 323.761H193.12" stroke="#ADADAD" stroke-miterlimit="10"/>
<path d="M138.66 329.727H193.12" stroke="#ADADAD" stroke-miterlimit="10"/>
<path d="M138.66 335.693H193.12" stroke="#ADADAD" stroke-miterlimit="10"/>
<path d="M138.66 341.658H193.12" stroke="#ADADAD" stroke-miterlimit="10"/>
<path d="M241.446 166.988H207.814V198.676H241.446V166.988Z" stroke="#ADADAD" stroke-miterlimit="10"/>
<path d="M276.056 166.988H242.424V198.676H276.056V166.988Z" fill="black" stroke="#ADADAD" stroke-miterlimit="10"/>
<path d="M310.663 166.988H277.031V198.676H310.663V166.988Z" fill="black" stroke="#ADADAD" stroke-miterlimit="10"/>
<path d="M345.282 166.988H311.65V198.676H345.282V166.988Z" stroke="#ADADAD" stroke-miterlimit="10"/>
<path d="M379.89 166.988H346.258V198.676H379.89V166.988Z" stroke="#ADADAD" stroke-miterlimit="10"/>
<path d="M414.645 166.988H381.014V198.676H414.645V166.988Z" stroke="#ADADAD" stroke-miterlimit="10"/>
<path d="M248.324 176.021H271.841" stroke="#ADADAD" stroke-miterlimit="10"/>
<path d="M248.324 179.602H271.841" stroke="#ADADAD" stroke-miterlimit="10"/>
<path d="M248.324 183.184H271.841" stroke="#ADADAD" stroke-miterlimit="10"/>
<path d="M248.324 186.755H271.841" stroke="#ADADAD" stroke-miterlimit="10"/>
<path d="M248.324 190.337H271.841" stroke="#ADADAD" stroke-miterlimit="10"/>
<path d="M241.446 205.756H207.814V237.444H241.446V205.756Z" stroke="#ADADAD" stroke-miterlimit="10"/>
<path d="M276.056 205.756H242.424V237.444H276.056V205.756Z" fill="black" stroke="#ADADAD" stroke-miterlimit="10"/>
<path d="M310.663 205.756H277.031V237.444H310.663V205.756Z" stroke="#ADADAD" stroke-miterlimit="10"/>
<path d="M345.282 205.756H311.65V237.444H345.282V205.756Z" stroke="#ADADAD" stroke-miterlimit="10"/>
<path d="M379.89 205.756H346.258V237.444H379.89V205.756Z" stroke="#ADADAD" stroke-miterlimit="10"/>
<path d="M414.645 205.756H381.014V237.444H414.645V205.756Z" stroke="#ADADAD" stroke-miterlimit="10"/>
<path d="M248.324 214.368H271.841" stroke="#ADADAD" stroke-miterlimit="10"/>
<path d="M248.324 217.939H271.841" stroke="#ADADAD" stroke-miterlimit="10"/>
<path d="M248.324 221.521H271.841" stroke="#ADADAD" stroke-miterlimit="10"/>
<path d="M248.324 225.103H271.841" stroke="#ADADAD" stroke-miterlimit="10"/>
<path d="M248.324 228.684H271.841" stroke="#ADADAD" stroke-miterlimit="10"/>
<path d="M241.446 244.513H207.814V276.202H241.446V244.513Z" stroke="#ADADAD" stroke-miterlimit="10"/>
<path d="M276.056 244.513H242.424V276.202H276.056V244.513Z" stroke="#ADADAD" stroke-miterlimit="10"/>
<path d="M310.663 244.513H277.031V276.202H310.663V244.513Z" stroke="#ADADAD" stroke-miterlimit="10"/>
<path d="M345.282 244.513H311.65V276.202H345.282V244.513Z" stroke="#ADADAD" stroke-miterlimit="10"/>
<path d="M379.89 244.513H346.258V276.202H379.89V244.513Z" fill="black" stroke="#ADADAD" stroke-miterlimit="10"/>
<path d="M414.645 244.513H381.014V276.202H414.645V244.513Z" stroke="#ADADAD" stroke-miterlimit="10"/>
<path d="M352.613 253.22H376.13" stroke="#ADADAD" stroke-miterlimit="10"/>
<path d="M352.613 256.802H376.13" stroke="#ADADAD" stroke-miterlimit="10"/>
<path d="M352.613 260.373H376.13" stroke="#ADADAD" stroke-miterlimit="10"/>
<path d="M352.613 263.955H376.13" stroke="#ADADAD" stroke-miterlimit="10"/>
<path d="M352.613 267.536H376.13" stroke="#ADADAD" stroke-miterlimit="10"/>
<path d="M241.446 322.248H207.814V353.937H241.446V322.248Z" stroke="#ADADAD" stroke-miterlimit="10"/>
<path d="M276.056 322.248H242.424V353.937H276.056V322.248Z" stroke="#ADADAD" stroke-miterlimit="10"/>
<path d="M310.663 322.248H277.031V353.937H310.663V322.248Z" fill="black" stroke="#ADADAD" stroke-miterlimit="10"/>
<path d="M345.282 322.248H311.65V353.937H345.282V322.248Z" fill="black" stroke="#ADADAD" stroke-miterlimit="10"/>
<path d="M379.89 322.248H346.258V353.937H379.89V322.248Z" fill="black" stroke="#ADADAD" stroke-miterlimit="10"/>
<path d="M414.645 322.248H381.014V353.937H414.645V322.248Z" stroke="#ADADAD" stroke-miterlimit="10"/>
<path d="M282.576 330.924H306.093" stroke="#ADADAD" stroke-miterlimit="10"/>
<path d="M282.576 334.506H306.093" stroke="#ADADAD" stroke-miterlimit="10"/>
<path d="M282.576 338.087H306.093" stroke="#ADADAD" stroke-miterlimit="10"/>
<path d="M282.576 341.658H306.093" stroke="#ADADAD" stroke-miterlimit="10"/>
<path d="M282.576 345.24H306.093" stroke="#ADADAD" stroke-miterlimit="10"/>
<path d="M316.828 330.924H340.345" stroke="#ADADAD" stroke-miterlimit="10"/>
<path d="M316.828 334.506H340.345" stroke="#ADADAD" stroke-miterlimit="10"/>
<path d="M316.828 338.087H340.345" stroke="#ADADAD" stroke-miterlimit="10"/>
<path d="M316.828 341.658H340.345" stroke="#ADADAD" stroke-miterlimit="10"/>
<path d="M316.828 345.24H340.345" stroke="#ADADAD" stroke-miterlimit="10"/>
<path d="M351.08 330.924H374.597" stroke="#ADADAD" stroke-miterlimit="10"/>
<path d="M351.08 334.506H374.597" stroke="#ADADAD" stroke-miterlimit="10"/>
<path d="M351.08 338.087H374.597" stroke="#ADADAD" stroke-miterlimit="10"/>
<path d="M351.08 341.658H374.597" stroke="#ADADAD" stroke-miterlimit="10"/>
<path d="M351.08 345.24H374.597" stroke="#ADADAD" stroke-miterlimit="10"/>
<path d="M114.743 100.628C105.227 93.58 92.6857 94.3258 85.1548 99.0418C77.6239 103.758 75.2922 112.244 73.181 118.053C68.9797 129.606 59.9573 136.476 50.1892 143.145C40.7362 149.626 28.4578 159.121 34.9384 172.071C37.8688 177.943 41.5345 181.976 35.9887 191.513C30.4429 201.05 24.6136 205.462 28.6364 214.62C32.6591 223.779 37.8058 238.106 59.4531 232.97C81.1005 227.834 87.7071 203.245 89.9128 194.107C92.1185 184.97 102.716 181.22 110.457 174.655C118.198 168.091 117.432 157.776 115.226 151.18C113.545 146.118 111.655 138.912 117.442 133.178L118.198 133.409C118.198 133.409 129.826 128.157 131.758 124.954C133.691 121.75 124.248 107.665 114.743 100.628Z" fill="#263238" stroke="#263238" stroke-linecap="round" stroke-linejoin="round"/>
<path d="M131.675 162.555C131.675 162.555 154.32 180.043 160.223 183.73C166.126 187.417 180.421 194.318 183.614 196.786C186.807 199.254 181.891 209.831 175.001 213.77C168.111 217.708 161.704 213.276 158.017 211.301C154.331 209.327 129.658 193.33 129.658 193.33L131.675 162.555Z" fill="#919191" stroke="#263238" stroke-linecap="round" stroke-linejoin="round"/>
<path d="M136.727 172.964L132.883 195.011L141.632 177.512" stroke="#263238" stroke-linecap="round" stroke-linejoin="round"/>
<path d="M139.279 277.556C139.279 277.556 133.376 277.798 126.675 271.643C119.974 265.488 118.272 262.778 118.272 262.778C118.272 262.778 114.869 228.537 114.869 225.334C114.869 222.13 117.621 206.134 120.121 198.256C122.621 190.379 127.263 199.737 127.263 199.737C127.263 199.737 132.924 254.88 133.912 260.3C134.899 265.719 139.279 277.556 139.279 277.556Z" fill="#787878" stroke="#263238" stroke-linecap="round" stroke-linejoin="round"/>
<path d="M119.511 337.982C119.511 337.982 112.789 354.704 112.527 362.781C112.264 370.858 113.924 383.042 107.695 396.706C101.467 410.371 95.6268 430.401 94.65 436.524C93.6732 442.648 99.2715 459.411 102.17 464.884C105.069 470.356 103.935 469.946 100.857 469.841C98.5579 469.846 96.2978 469.243 94.3059 468.094C92.314 466.945 90.6609 465.291 89.5139 463.297C86.2368 457.794 87.4972 454.37 85.3125 452.374L83.0648 450.368L81.1322 462.247L78.4434 461.775L80.8906 446.45C80.8906 446.45 80.6176 442.974 82.2036 441.482C83.7896 439.991 86.2578 435.453 86.2578 435.453C86.2578 435.453 88.9047 413.974 88.243 399.311C87.5813 384.649 87.1191 375.395 88.8627 369.293C90.6062 363.19 90.6692 361.258 90.8793 355.103C91.0894 348.948 90.9423 341.627 90.9738 340.471C91.0054 339.316 119.511 337.982 119.511 337.982Z" fill="white"/>
<mask id="mask0_634_5780" style="mask-type:luminance" maskUnits="userSpaceOnUse" x="78" y="337" width="42" height="133">
<path d="M119.511 337.982C119.511 337.982 112.789 354.704 112.527 362.781C112.264 370.858 113.924 383.042 107.695 396.706C101.467 410.371 95.6268 430.401 94.65 436.524C93.6732 442.648 99.2715 459.411 102.17 464.884C105.069 470.356 103.935 469.946 100.857 469.841C98.5579 469.846 96.2978 469.243 94.3059 468.094C92.314 466.945 90.6609 465.291 89.5139 463.297C86.2368 457.794 87.4972 454.37 85.3125 452.374L83.0648 450.368L81.1322 462.247L78.4434 461.775L80.8906 446.45C80.8906 446.45 80.6176 442.974 82.2036 441.482C83.7896 439.991 86.2578 435.453 86.2578 435.453C86.2578 435.453 88.9047 413.974 88.243 399.311C87.5813 384.649 87.1191 375.395 88.8627 369.293C90.6062 363.19 90.6692 361.258 90.8793 355.103C91.0894 348.948 90.9423 341.627 90.9738 340.471C91.0054 339.316 119.511 337.982 119.511 337.982Z" fill="white"/>
</mask>
<g mask="url(#mask0_634_5780)">
<path opacity="0.2" d="M90.9199 340.492C90.9199 341.333 90.9199 345.492 90.9199 350.072C94.2705 350.765 102.474 351.689 115.781 348.37C117.609 342.719 119.51 337.982 119.51 337.982C119.51 337.982 90.9619 339.337 90.9199 340.492Z" fill="black"/>
</g>
<path d="M119.511 337.982C119.511 337.982 112.789 354.704 112.527 362.781C112.264 370.858 113.924 383.041 107.695 396.706C101.467 410.371 95.6268 430.401 94.65 436.524C93.6732 442.648 99.2715 459.411 102.17 464.884C105.069 470.356 103.935 469.946 100.857 469.841C98.5579 469.846 96.2978 469.243 94.3059 468.094C92.314 466.945 90.6609 465.291 89.5139 463.297C86.2368 457.794 87.4972 454.37 85.3125 452.374L83.0648 450.368L81.1322 462.247L78.4434 461.775L80.8906 446.45C80.8906 446.45 80.6176 442.974 82.2036 441.482C83.7896 439.991 86.2578 435.453 86.2578 435.453C86.2578 435.453 88.9047 413.974 88.243 399.311C87.5813 384.649 87.1191 375.395 88.8627 369.293C90.6062 363.19 90.6692 361.258 90.8793 355.103C91.0894 348.948 90.9423 341.627 90.9738 340.471C91.0053 339.316 119.511 337.982 119.511 337.982Z" stroke="#263238" stroke-linecap="round" stroke-linejoin="round"/>
<path d="M102.17 464.905L101.866 464.295C95.2695 466.27 92.4126 459.611 88.999 451.691C87.3681 447.888 85.1805 444.348 82.5079 441.188C82.3819 441.314 82.2664 441.44 82.1508 441.545C80.5648 443.037 80.8379 446.513 80.8379 446.513L78.3906 461.838L81.0795 462.31L83.0121 450.431L85.2598 452.437C87.497 454.433 86.2366 457.857 89.4611 463.361C90.6082 465.354 92.2612 467.008 94.2532 468.157C96.2451 469.306 98.5052 469.909 100.805 469.904C103.935 469.967 105.069 470.387 102.17 464.905Z" fill="black" stroke="#263238" stroke-linecap="round" stroke-linejoin="round"/>
<path d="M77.8438 455.231L78.2429 469.127L80.165 469.19L81.1943 458.802L77.8438 455.231Z" fill="black" stroke="#263238" stroke-linecap="round" stroke-linejoin="round"/>
<path d="M66.8267 335.451C66.8267 335.451 71.1331 344.83 67.5724 359.357C64.0118 373.883 67.4779 396.717 72.8241 411.148C78.1703 425.58 77.6766 438.657 78.3489 441.755C79.0211 444.854 77.6556 450.977 77.8972 455.231C78.1388 459.485 85.2495 466.648 86.678 469.001C88.1065 471.354 98.9144 471.721 101.614 471.816C104.313 471.91 104.765 469.221 102.895 468.003C101.026 466.785 97.0028 459.716 97.0028 459.716C97.0028 459.716 90.9213 446.062 90.3016 441.388C89.682 436.714 87.5183 409.321 88.4846 403.576C89.4509 397.83 92.8225 365.974 93.8728 357.539C94.9231 349.105 95.7109 337.184 95.7109 337.184L66.8267 335.451Z" fill="white"/>
<mask id="mask1_634_5780" style="mask-type:luminance" maskUnits="userSpaceOnUse" x="66" y="335" width="39" height="137">
<path d="M66.8267 335.451C66.8267 335.451 71.1331 344.83 67.5724 359.357C64.0118 373.883 67.4779 396.717 72.8241 411.148C78.1703 425.58 77.6766 438.657 78.3489 441.755C79.0211 444.854 77.6556 450.977 77.8972 455.231C78.1388 459.485 85.2495 466.648 86.678 469.001C88.1065 471.354 98.9144 471.721 101.614 471.816C104.313 471.91 104.765 469.221 102.895 468.003C101.026 466.785 97.0028 459.716 97.0028 459.716C97.0028 459.716 90.9213 446.062 90.3016 441.388C89.682 436.714 87.5183 409.321 88.4846 403.576C89.4509 397.83 92.8225 365.974 93.8728 357.539C94.9231 349.105 95.7109 337.184 95.7109 337.184L66.8267 335.451Z" fill="white"/>
</mask>
<g mask="url(#mask1_634_5780)">
<path opacity="0.2" d="M94.723 349.042C95.2902 342.793 95.6578 337.184 95.6578 337.184L66.8262 335.451C68.1124 338.758 68.8229 342.261 68.9268 345.807C73.6743 347.498 82.119 349.504 94.723 349.042Z" fill="black"/>
</g>
<path d="M66.8267 335.451C66.8267 335.451 71.1331 344.83 67.5724 359.357C64.0118 373.883 67.4779 396.717 72.8241 411.148C78.1703 425.58 77.6766 438.657 78.3489 441.755C79.0211 444.854 77.6556 450.977 77.8972 455.231C78.1388 459.485 85.2495 466.648 86.678 469.001C88.1065 471.354 98.9144 471.721 101.614 471.816C104.313 471.91 104.765 469.221 102.895 468.003C101.026 466.785 97.0028 459.716 97.0028 459.716C97.0028 459.716 90.9213 446.062 90.3016 441.388C89.682 436.714 87.5183 409.321 88.4846 403.576C89.4509 397.83 92.8225 365.974 93.8728 357.539C94.9231 349.105 95.7109 337.184 95.7109 337.184L66.8267 335.451Z" stroke="#263238" stroke-linecap="round" stroke-linejoin="round"/>
<path d="M102.841 468.003C102.002 467.316 101.272 466.505 100.677 465.598C95.5098 465.346 89.2918 464.757 87.2227 462.856C84.7964 460.64 79.0406 450.084 78.1898 448.509C77.9147 450.738 77.7988 452.985 77.8432 455.231C78.0848 459.432 85.1955 466.648 86.624 469.001C88.0524 471.354 98.8604 471.721 101.56 471.816C104.259 471.91 104.721 469.221 102.841 468.003Z" fill="black" stroke="#263238" stroke-linecap="round" stroke-linejoin="round"/>
<path d="M61.9745 229.766C61.9745 229.766 48.6878 269.679 49.6646 286.883C50.6414 304.088 60.5041 338.098 60.5041 338.098C60.5041 338.098 82.6556 344 98.4106 344C108.453 343.873 118.416 342.211 127.956 339.074C127.956 339.074 135.834 283.407 132.389 263.744C130.22 251.741 125.518 240.336 118.598 230.291L61.9745 229.766Z" fill="#263238" stroke="#263238" stroke-linecap="round" stroke-linejoin="round"/>
<path d="M73.3079 161.085C73.3079 161.085 86.101 155.424 92.508 155.424C98.9151 155.424 112.937 166.253 115.153 168.227C117.369 170.202 125.247 192.595 126.476 198.75C127.705 204.905 118.598 231.982 118.598 231.982C118.598 231.982 102.108 235.427 89.7982 234.944C77.4882 234.461 72.0685 232.97 72.0685 232.97C72.0685 232.97 67.153 208.35 64.7162 193.824C62.2794 179.298 59.5486 169.666 61.7648 166.011C63.981 162.356 73.3079 161.085 73.3079 161.085Z" fill="white"/>
<mask id="mask2_634_5780" style="mask-type:luminance" maskUnits="userSpaceOnUse" x="60" y="155" width="67" height="80">
<path d="M73.3099 161.085C73.3099 161.085 86.1029 155.424 92.51 155.424C98.917 155.424 112.939 166.253 115.155 168.227C117.371 170.202 125.249 192.595 126.478 198.75C127.707 204.905 118.6 231.982 118.6 231.982C118.6 231.982 102.11 235.427 89.8001 234.944C77.4902 234.461 72.0705 232.97 72.0705 232.97C72.0705 232.97 67.1549 208.35 64.7181 193.824C62.2814 179.298 59.5505 169.666 61.7667 166.011C63.9829 162.356 73.3099 161.085 73.3099 161.085Z" fill="white"/>
</mask>
<g mask="url(#mask2_634_5780)">
<path opacity="0.3" d="M118.598 231.982C118.598 231.982 127.715 204.905 126.475 198.75C125.236 192.595 117.369 170.191 115.153 168.227C114.481 167.618 112.695 166.19 110.363 164.499L108.777 166.799C108.777 166.799 116.97 190.379 117.243 199.527C117.506 208.066 109.891 230.722 108.84 233.642C114.512 232.844 118.598 231.982 118.598 231.982Z" fill="black"/>
</g>
<path d="M73.3079 161.085C73.3079 161.085 86.101 155.424 92.508 155.424C98.9151 155.424 112.937 166.253 115.153 168.227C117.369 170.202 125.247 192.595 126.476 198.75C127.705 204.905 118.598 231.982 118.598 231.982C118.598 231.982 102.108 235.427 89.7982 234.944C77.4882 234.461 72.0685 232.97 72.0685 232.97C72.0685 232.97 67.153 208.35 64.7162 193.824C62.2794 179.298 59.5486 169.666 61.7648 166.011C63.981 162.356 73.3079 161.085 73.3079 161.085Z" stroke="#263238" stroke-linecap="round" stroke-linejoin="round"/>
<path d="M104.072 159.11C104.072 159.11 116.876 182.008 120.573 196.292C124.27 210.577 130.415 270.393 133.125 273.103C134.96 274.86 137.032 276.352 139.279 277.535C139.279 277.535 131.927 237.161 131.927 225.092C131.927 213.024 133.902 165.759 132.662 163.049C131.423 160.339 127.253 161.82 118.63 160.833C110.007 159.846 104.072 159.11 104.072 159.11Z" fill="#919191" stroke="#263238" stroke-linecap="round" stroke-linejoin="round"/>
<path d="M83.0325 154.163L42.0695 169.698C42.0695 169.698 43.54 217.456 44.0336 223.611C44.5273 229.766 46.9956 232.97 50.4407 235.428C53.8858 237.885 55.1147 234.944 55.1147 234.944C55.1147 234.944 48.2245 260.793 44.0336 269.606C39.8428 278.418 42.0695 278.964 42.0695 278.964C42.0695 278.964 58.0661 285.854 69.6408 282.168C81.2155 278.481 84.6606 270.099 84.6606 270.099L78.222 194.58C78.222 194.58 78.222 172.912 79.4509 167.986C80.6798 163.06 83.0325 154.163 83.0325 154.163Z" fill="#919191" stroke="#263238" stroke-linecap="round" stroke-linejoin="round"/>
<path d="M54.1582 247.843C54.1582 247.843 66.4051 248.189 73.7469 245.395V249.943C68.2991 250.678 62.8063 251.029 57.3092 250.994" stroke="#263238" stroke-linecap="round" stroke-linejoin="round"/>
<path d="M50.6621 169.813C50.6621 169.813 61.5121 177.166 65.0097 188.719" stroke="#263238" stroke-linecap="round" stroke-linejoin="round"/>
<path d="M83.0335 154.163C81.9369 155.061 80.934 156.067 80.0401 157.167C78.6326 158.921 74.7884 167.03 72.4672 169.488C70.1459 171.945 71.4168 172.481 72.2991 172.313C73.1814 172.145 81.6261 169.162 83.2121 168.437C84.5364 167.893 85.8899 167.423 87.2664 167.03L99.9439 179.529L103.473 166.851C103.473 166.851 116.676 167.902 118.262 168.08C119.848 168.259 121.077 167.376 119.848 167.376C118.619 167.376 108.399 162.272 106.992 161.568C105.584 160.864 103.641 156.632 99.4187 153.817C95.1964 151.002 86.0375 150.119 83.0335 154.163Z" fill="white" stroke="#263238" stroke-linecap="round" stroke-linejoin="round"/>
<path d="M100.826 158.396L99.9438 179.529C99.9438 179.529 87.0877 163.322 85.4596 161.39C84.341 159.739 83.5626 157.883 83.1699 155.928L84.5774 137.61C84.5774 137.61 92.854 151.002 94.9757 152.409C97.0973 153.817 100.647 156.632 100.826 158.396Z" fill="white" stroke="#263238" stroke-linecap="round" stroke-linejoin="round"/>
<path d="M95.017 152.409C92.9163 151.002 84.6187 137.61 84.6187 137.61L83.5684 151.327C85.1859 154.594 97.6113 161.904 99.6805 162.24C100.003 162.3 100.329 162.335 100.657 162.345L100.825 158.396C100.647 156.632 97.1282 153.817 95.017 152.409Z" fill="#263238" stroke="#263238" stroke-linecap="round" stroke-linejoin="round"/>
<path d="M115.972 115.417C115.972 115.417 97.1292 126.519 91.4889 129.155L88.3379 130.037C88.3379 130.037 84.2836 124.229 82.3405 125.458C80.3974 126.687 79.3471 129.859 80.4079 132.684C81.3493 134.668 82.7988 136.367 84.6092 137.61C84.6092 137.61 84.7878 146.065 86.0272 149.237C87.2666 152.409 100.165 159.982 102.265 160.329C104.366 160.675 106.32 160.329 107.38 158.396C108.441 156.464 115.121 148.534 118.115 137.61C121.108 126.687 119.323 117.181 115.972 115.417Z" fill="white" stroke="#263238" stroke-linecap="round" stroke-linejoin="round"/>
<path d="M111.75 133.209L112.275 143.429L106.635 142.19" stroke="#263238" stroke-linecap="round" stroke-linejoin="round"/>
<path d="M99.5957 143.429C99.5957 143.429 100.825 145.004 105.898 146.769" stroke="#263238" stroke-linecap="round" stroke-linejoin="round"/>
<path d="M98.7148 131.98C98.7148 131.98 100.122 134.974 105.227 133.913" stroke="#263238" stroke-linecap="round" stroke-linejoin="round"/>
<path d="M113.682 136.024C114.057 136.629 114.632 137.084 115.307 137.31C115.982 137.536 116.715 137.52 117.379 137.264" stroke="#263238" stroke-linecap="round" stroke-linejoin="round"/>
<path d="M100.164 127.044C101.473 126.487 102.88 126.2 104.302 126.2C105.725 126.2 107.132 126.487 108.441 127.044" stroke="#263238" stroke-linecap="round" stroke-linejoin="round"/>
<path d="M118.787 131.098C118.083 129.155 114.922 128.451 114.922 128.451" stroke="#263238" stroke-linecap="round" stroke-linejoin="round"/>
<path d="M150.822 207.394L135.067 210.934C135.067 210.934 115.52 210.083 114.06 210.65C112.6 211.218 113.923 217.026 113.923 217.026C111.801 217.18 109.67 217.18 107.548 217.026C105.143 216.742 104.008 217.173 104.575 218.727C105.143 220.282 107.548 221.7 109.827 221.7C112.159 221.538 114.475 221.208 116.759 220.713C116.759 220.713 122.568 222.813 124.7 222.813C126.832 222.813 129.952 220.975 129.952 220.975C129.952 220.975 133.775 221.112 135.76 221.259C137.745 221.406 140.287 218.843 140.287 218.843L155.727 218.423L150.822 207.394Z" fill="white" stroke="#263238" stroke-linecap="round" stroke-linejoin="round"/>
<path d="M111.444 209.663C111.444 209.663 107.758 209.946 107.758 211.081C107.758 212.215 110.741 220.712 110.741 220.712L116.686 221.28C116.686 221.28 117.536 220.996 116.822 219.862C115.998 218.806 115.049 217.854 113.997 217.026L114.133 210.65L111.444 209.663Z" fill="white" stroke="#263238" stroke-linecap="round" stroke-linejoin="round"/>
<path d="M117.515 208.665C117.515 208.665 111.098 208.109 110.856 208.833C110.615 209.558 111.907 220.387 111.907 220.387C111.907 220.387 118.398 221.784 119.259 221.721C119.481 221.695 119.692 221.607 119.866 221.467C120.041 221.327 120.173 221.141 120.247 220.93C120.322 220.719 120.335 220.491 120.287 220.273C120.239 220.054 120.13 219.854 119.973 219.694C118.923 218.883 117.781 218.199 116.57 217.656L117.515 208.665Z" fill="white" stroke="#263238" stroke-linecap="round" stroke-linejoin="round"/>
<path d="M121.223 207.961C121.223 207.961 114.847 206.911 114.564 207.678C114.28 208.445 114.847 219.295 114.847 219.295C114.847 219.295 121.223 221.133 122.063 221.133C122.287 221.119 122.502 221.044 122.686 220.915C122.869 220.786 123.013 220.609 123.101 220.403C123.19 220.197 123.219 219.97 123.186 219.748C123.153 219.527 123.059 219.319 122.914 219.147C121.921 218.27 120.828 217.512 119.658 216.889L121.223 207.961Z" fill="white" stroke="#263238" stroke-linecap="round" stroke-linejoin="round"/>
<path d="M137.65 212.205C137.65 212.205 121.78 206.26 120.94 205.976C120.099 205.693 119.522 206.123 119.522 206.691C119.522 207.258 116.969 217.688 117.82 218.444C118.671 219.2 123.765 220.713 123.765 220.713C123.765 220.713 125.183 219.715 125.33 219.295C125.477 218.874 123.765 217.73 123.765 217.73L124.049 214.579L127.735 215.849" fill="white"/>
<path d="M137.65 212.205C137.65 212.205 121.78 206.26 120.94 205.976C120.099 205.693 119.522 206.123 119.522 206.691C119.522 207.258 116.969 217.688 117.82 218.444C118.671 219.2 123.765 220.713 123.765 220.713C123.765 220.713 125.183 219.715 125.33 219.295C125.477 218.874 123.765 217.73 123.765 217.73L124.049 214.579L127.735 215.849" stroke="#263238" stroke-linecap="round" stroke-linejoin="round"/>
<path d="M139.205 209.8C139.205 209.8 142.755 214.001 141.054 218.444H144.73C144.73 218.444 146.148 211.365 142.892 209.379L139.205 209.8Z" fill="#263238" stroke="#263238" stroke-linecap="round" stroke-linejoin="round"/>
<path d="M144.73 207.678C144.73 207.678 147.241 210.955 147.881 221.952C148.008 223.989 174.444 220.429 181.807 219.011C189.17 217.593 192.006 214.81 192.573 208.665C193.14 202.521 186.334 196.345 181.24 194.223C176.146 192.101 144.73 207.678 144.73 207.678Z" fill="#919191" stroke="#263238" stroke-linecap="round" stroke-linejoin="round"/>
<path d="M77.5058 120.025L68.2454 124.638C67.2329 125.142 66.821 126.372 67.3253 127.385L79.4785 151.781C79.9828 152.794 81.2125 153.206 82.225 152.701L91.4854 148.088C92.4979 147.584 92.9098 146.354 92.4054 145.342L80.2523 120.945C79.7479 119.933 78.5183 119.521 77.5058 120.025Z" fill="black" stroke="#263238" stroke-linecap="round" stroke-linejoin="round"/>
<path d="M70.1779 169.488L72.6462 159.457L67.3945 142.893C67.3945 142.893 72.1525 130.741 73.0348 129.512C73.9171 128.283 76.1858 127.044 77.0786 127.411C77.9714 127.779 77.9609 128.997 76.732 129.701C75.8644 130.319 75.1905 131.172 74.7889 132.159L72.1525 141.15L73.3499 143.114L76.7005 132.894C76.7005 132.894 86.3846 131.665 86.9097 131.665C87.4349 131.665 89.5566 131.844 88.4957 133.251C87.9067 134.072 87.0284 134.638 86.038 134.837H90.0817C90.0817 134.837 91.4892 135.541 90.6069 136.602C89.7246 137.662 83.7482 139.238 83.7482 139.238L81.4585 146.464L85.8594 141.349L90.2603 140.645C90.2603 140.645 93.2537 141.349 92.7286 142.589C92.2034 143.828 89.5776 143.114 89.5776 143.114L86.9307 144.521L82.887 151.873V161.032C82.887 163.322 78.8327 171.609 78.8327 171.609L70.1779 169.488Z" fill="white" stroke="#263238" stroke-linecap="round" stroke-linejoin="round"/>
<path d="M86.0378 134.795L80.0404 136.203L76.8789 146.422" stroke="#263238" stroke-linecap="round" stroke-linejoin="round"/>
<path d="M68.1299 166.221L84.137 171.641C84.137 171.641 71.449 227.645 69.4323 232.77C66.2183 241.047 54.8222 239.335 50.1377 237.864C45.4532 236.394 42.7854 227.277 43.9827 223.58C45.1801 219.883 68.1299 166.221 68.1299 166.221Z" fill="#919191" stroke="#263238" stroke-linecap="round" stroke-linejoin="round"/>
</svg>
