<svg width="17" height="17" viewBox="0 0 17 17" fill="none" xmlns="http://www.w3.org/2000/svg">
  <path d="M7.93449 3.38272H3.2489C2.89384 3.38272 2.55333 3.52376 2.30226 3.77483C2.0512 4.02589 1.91016 4.3664 1.91016 4.72146V14.0927C1.91016 14.4477 2.0512 14.7882 2.30226 15.0393C2.55333 15.2903 2.89384 15.4314 3.2489 15.4314H12.6201C12.9751 15.4314 13.3157 15.2903 13.5667 15.0393C13.8178 14.7882 13.9588 14.4477 13.9588 14.0927V9.40706M12.9548 2.37866C13.2211 2.11237 13.5822 1.96277 13.9588 1.96277C14.3354 1.96277 14.6966 2.11237 14.9629 2.37866C15.2292 2.64495 15.3788 3.00612 15.3788 3.38272C15.3788 3.75931 15.2292 4.12048 14.9629 4.38677L8.60386 10.7458L5.92638 11.4152L6.59575 8.73769L12.9548 2.37866Z" stroke="black" stroke-opacity="0.76" stroke-width="0.803245" stroke-linecap="round" stroke-linejoin="round" />
</svg>