<svg width="139" height="118" viewBox="0 0 139 118" fill="none" xmlns="http://www.w3.org/2000/svg">
<path d="M135.812 -3.88477C135.585 -4.82816 135.002 -5.64744 134.186 -6.17218C133.37 -6.69693 132.383 -6.88673 131.431 -6.70211C130.479 -6.51748 129.634 -5.97265 129.073 -5.18095C128.512 -4.38925 128.277 -3.41164 128.418 -2.45149C131.74 14.8524 118.575 25.4898 108.945 30.8105L106.176 25.2786C105.244 23.4229 102.816 21.6383 100.773 21.3146L81.1055 18.5299C78.6939 18.2518 76.2518 18.6307 74.0377 19.6266L10.1867 51.7921C8.70102 52.5436 7.57351 53.8534 7.05103 55.4347C6.52855 57.0159 6.65367 58.7398 7.399 60.2288L28.2159 101.745C29.7789 104.839 32.9789 104.96 36.0768 103.409L99.9286 71.2378C101.765 70.3029 104.06 68.0429 105.022 66.1992L114.008 47.7011C114.969 45.8636 114.988 42.849 114.056 40.9932L112.37 37.6226C125.314 30.3984 139.701 16.3932 135.812 -3.88477ZM100.433 49.8945C99.257 50.4857 97.976 50.8394 96.6632 50.9353C95.3505 51.0312 94.0317 50.8673 92.7824 50.4532C91.533 50.039 90.3775 49.3827 89.3818 48.5216C88.3861 47.6605 87.5699 46.6116 86.9796 45.4348C85.7843 43.0534 85.5825 40.2947 86.4184 37.7643C87.2543 35.2339 89.0597 33.1386 91.4383 31.9383C93.3026 31 95.4134 30.6679 97.4755 30.9883C99.5376 31.3087 101.448 32.2657 102.94 33.7254C101.115 34.492 99.8757 34.9156 99.6464 34.9766C98.8289 35.2295 98.1214 35.7527 97.64 36.4604C97.1586 37.1681 96.9317 38.0183 96.9966 38.8718C97.0614 39.7253 97.4142 40.5315 97.997 41.1581C98.5798 41.7848 99.3581 42.1948 100.204 42.321C100.735 42.3985 101.295 42.3544 101.842 42.1886C103.121 41.7959 104.502 41.3109 105.956 40.7108C105.993 42.6064 105.495 44.474 104.518 46.0988C103.541 47.7235 102.125 49.0392 100.433 49.8945Z" fill="black"/>
<path d="M36.2384 78.5338L33.2226 68.0355L37.06 66.0843C38.3436 65.4316 39.4202 65.2544 40.2898 65.5526C41.1057 65.8333 41.7289 66.3971 42.1595 67.2439C42.726 68.3581 42.8294 69.4218 42.4695 70.435C42.1096 71.4481 41.3859 72.2312 40.2984 72.7842L38.0655 73.9195L38.9928 77.1333L36.2384 78.5338ZM36.6983 69.1457L37.3922 71.5694L38.9031 70.8012C39.2686 70.6154 39.515 70.3498 39.6424 70.0046C39.7741 69.646 39.738 69.2661 39.534 68.8649C39.2213 68.2499 38.7262 68.1146 38.0487 68.459L36.6983 69.1457ZM47.8607 68.4173L46.6573 69.0292L47.7152 72.6982L44.9608 74.0988L41.9449 63.6004L45.9963 61.5404C46.9857 61.0373 47.9079 60.8433 48.7629 60.9582C49.6268 61.0687 50.2718 61.5429 50.6978 62.3808C51.0513 63.076 51.1719 63.7103 51.0595 64.2835C50.956 64.8522 50.6356 65.4134 50.0982 65.9671L50.1186 66.0072C50.9947 65.9431 51.6866 66.4103 52.1942 67.4086C52.2304 67.4799 52.3461 67.7184 52.5411 68.1241C52.7317 68.5208 52.8812 68.815 52.9899 69.0066C53.1621 69.3453 53.3355 69.5319 53.5102 69.5665L53.585 69.7136L50.8038 71.1277C50.6781 71.057 50.5382 70.8701 50.3841 70.5671C50.3252 70.4512 50.2141 70.2216 50.0508 69.8784C49.8918 69.5217 49.767 69.2542 49.6764 69.0759C49.4634 68.6569 49.2156 68.3903 48.9331 68.2759C48.6549 68.1481 48.2975 68.1952 47.8607 68.4173ZM45.3862 64.5767L46.0457 66.8665L47.5165 66.1187C47.8908 65.9283 48.1485 65.6739 48.2895 65.3554C48.4304 65.0369 48.4035 64.686 48.2086 64.3027C47.8958 63.6877 47.3829 63.5615 46.6698 63.924L45.3862 64.5767ZM54.0488 69.4778L51.0329 58.9795L53.7873 57.5789L56.8032 68.0773L54.0488 69.4778ZM62.9495 65.2381C61.5946 65.9271 60.3302 66.11 59.1563 65.787C57.9913 65.4594 57.0598 64.6093 56.3618 63.2366C55.555 61.6499 55.352 60.0591 55.7526 58.4643C56.1577 56.8561 57.1268 55.6621 58.66 54.8826C59.8545 54.2752 60.9017 54.0512 61.8017 54.2106C62.9927 54.4128 63.9571 55.1733 64.695 56.4921L61.9272 57.8994C61.6962 57.4671 61.3991 57.1807 61.0359 57.04C60.6727 56.8994 60.2549 56.9491 59.7825 57.1894C59.0159 57.5791 58.6042 58.2147 58.5476 59.0962C58.4864 59.9687 58.6824 60.8506 59.1357 61.742C59.4393 62.3392 59.8179 62.7638 60.2713 63.0156C60.7336 63.2629 61.2455 63.2438 61.8071 62.9583C62.2617 62.7271 62.5793 62.403 62.7598 61.9858C62.9493 61.5642 62.9728 61.081 62.8305 60.5364L65.6384 59.1087C66.0366 60.4655 65.9755 61.6801 65.455 62.7525C64.9346 63.8249 64.0994 64.6534 62.9495 65.2381ZM65.5852 57.0827L65.2965 56.0516C65.5993 55.8528 65.8055 55.5964 65.9152 55.2827C66.0203 54.9599 66.0135 54.6156 65.8948 54.2497L64.9722 54.7188L64.2579 52.255L66.3972 51.1672L67.0157 53.3432C67.263 54.2047 67.3012 54.8976 67.1303 55.422C66.9156 56.0809 66.4006 56.6345 65.5852 57.0827ZM70.4489 61.1388L67.433 50.6405L71.2303 48.7097C72.4961 48.0661 73.6937 47.9171 74.823 48.2628C75.9613 48.6039 76.8544 49.4119 77.5026 50.6865C78.3366 52.3267 78.5394 53.8839 78.111 55.3582C77.6827 56.8324 76.6574 57.982 75.0351 58.8069L70.4489 61.1388ZM72.4819 57.2275L73.8458 56.5341C74.6034 56.1488 75.0624 55.5733 75.2227 54.8074C75.3874 54.0282 75.2454 53.1973 74.7967 52.3148C74.1123 50.9688 73.1506 50.6108 71.9116 51.2408L70.9087 51.7507L72.4819 57.2275Z" fill="white"/>
</svg>
