<svg width="24" height="25" viewBox="0 0 24 25" fill="none" xmlns="http://www.w3.org/2000/svg">
  <path fill-rule="evenodd" clip-rule="evenodd" d="M12.9522 2.56422C12.3532 3.38861 12 4.40305 12 5.5C12 8.26142 14.2386 10.5 17 10.5C17.7111 10.5 18.3875 10.3516 19 10.084V12.0858L21 14.0858V19.5H16C16 19.7633 15.974 20.0269 15.9219 20.2867C15.8012 20.8883 15.5438 21.454 15.1695 21.9402C14.7952 22.4263 14.3141 22.8199 13.7634 23.0904C13.2126 23.3608 12.6071 23.501 11.9935 23.5C11.38 23.499 10.7749 23.3569 10.2251 23.0846C9.67522 22.8124 9.19538 22.4173 8.82266 21.9299C8.44994 21.4426 8.19433 20.876 8.0756 20.274C8.02516 20.0183 8 19.759 8 19.5H3V14.0858L5 12.0858V9.5C5 5.63401 8.13401 2.5 12 2.5C12.323 2.5 12.6408 2.52187 12.9522 2.56422ZM10.0378 19.887C10.0126 19.7591 10 19.6295 10 19.5H14C14 19.6317 13.987 19.7634 13.9609 19.8934C13.9006 20.1941 13.7719 20.477 13.5847 20.7201C13.3976 20.9632 13.157 21.1599 12.8817 21.2952C12.6063 21.4304 12.3035 21.5005 11.9968 21.5C11.69 21.4995 11.3874 21.4285 11.1125 21.2923C10.8376 21.1562 10.5977 20.9587 10.4113 20.715C10.225 20.4713 10.0972 20.188 10.0378 19.887Z" fill="#494656" />
  <path fill-rule="evenodd" clip-rule="evenodd" d="M17 2.5C15.3431 2.5 14 3.84315 14 5.5C14 7.15685 15.3431 8.5 17 8.5C18.6569 8.5 20 7.15685 20 5.5C20 3.84315 18.6569 2.5 17 2.5Z" fill="#0ED065" />
</svg>