<svg width="27" height="27" viewBox="0 0 27 27" fill="none" xmlns="http://www.w3.org/2000/svg">
  <path d="M24.209 22.8108L20.0479 18.6498C21.4389 16.9998 22.2806 14.8733 22.2806 12.5517C22.2806 7.32459 18.0285 3.07251 12.8014 3.07251C7.57435 3.07251 3.32227 7.32459 3.32227 12.5517C3.32227 17.7788 7.57435 22.0308 12.8014 22.0308C15.123 22.0308 17.2496 21.1891 18.8995 19.7981L23.0606 23.9592C23.2187 24.1173 23.4268 24.1975 23.6348 24.1975C23.8428 24.1975 24.0508 24.1184 24.209 23.9592C24.5264 23.6428 24.5264 23.1283 24.209 22.8108ZM4.94727 12.5517C4.94727 8.22051 8.47027 4.69751 12.8014 4.69751C17.1326 4.69751 20.6556 8.22051 20.6556 12.5517C20.6556 16.8828 17.1326 20.4058 12.8014 20.4058C8.47027 20.4058 4.94727 16.8828 4.94727 12.5517Z" fill="#ACACAC" />
</svg>