<svg width="16" height="17" viewBox="0 0 16 17" fill="none" xmlns="http://www.w3.org/2000/svg">
  <path d="M1.33789 4.19346H2.81841M2.81841 4.19346H14.6626M2.81841 4.19346V14.5571C2.81841 14.9498 2.97439 15.3263 3.25204 15.604C3.5297 15.8816 3.90627 16.0376 4.29893 16.0376H11.7015C12.0942 16.0376 12.4708 15.8816 12.7484 15.604C13.0261 15.3263 13.182 14.9498 13.182 14.5571V4.19346M5.03919 4.19346V2.71294C5.03919 2.32028 5.19517 1.94371 5.47282 1.66606C5.75048 1.3884 6.12705 1.23242 6.51971 1.23242H9.48075C9.87341 1.23242 10.25 1.3884 10.5276 1.66606C10.8053 1.94371 10.9613 2.32028 10.9613 2.71294V4.19346" stroke="black" stroke-opacity="0.76" stroke-linecap="round" stroke-linejoin="round" />
</svg>